<?xml version="1.0" encoding="UTF-8"?>
<svg id="_レイヤー_1" data-name="レイヤー_1" xmlns="http://www.w3.org/2000/svg" version="1.1" viewBox="0 0 20 20">
  <!-- Generator: Adobe Illustrator 29.8.3, SVG Export Plug-In . SVG Version: 2.1.1 Build 3)  -->
  <defs>
    <style>
      .st0 {
        fill-rule: evenodd;
      }

      .st0, .st1 {
        fill: #fff;
      }
    </style>
  </defs>
  <path class="st1" d="M15.3,3.6c-.7,0-1.2.5-1.2,1.2s.5,1.2,1.2,1.2,1.2-.5,1.2-1.2-.5-1.2-1.2-1.2Z"/>
  <path class="st0" d="M5.4,10c0-2.6,2.1-4.8,4.8-4.8s4.8,2.1,4.8,4.8-2.1,4.8-4.8,4.8-4.8-2.1-4.8-4.8ZM7.1,10c0,1.6,1.3,3,3,3s3-1.3,3-3-1.3-3-3-3-3,1.3-3,3Z"/>
  <path class="st0" d="M4.6,0h10.7C17.9,0,20,2.1,20,4.6v10.7c0,2.6-2.1,4.6-4.6,4.6H4.6c-2.6,0-4.6-2.1-4.6-4.6V4.6C0,2.1,2.1,0,4.6,0ZM1.9,15.4c0,1.5,1.2,2.7,2.7,2.7h10.7c1.5,0,2.7-1.2,2.7-2.7V4.6c0-1.5-1.2-2.7-2.7-2.7H4.6c-1.5,0-2.7,1.2-2.7,2.7v10.7Z"/>
</svg>