<svg width="161" height="36" viewBox="0 0 161 36" fill="none" xmlns="http://www.w3.org/2000/svg">
<path d="M159.985 9.96364C159.978 9.84727 159.934 9.83273 159.934 9.81091C159.934 9.78909 159.883 9.6 159.81 9.52C159.774 9.47636 159.701 9.43273 159.65 9.38182C159.606 9.33818 159.482 9.22909 159.467 9.20727C159.409 9.12727 159.322 8.92364 159.205 8.86545C159.168 8.85091 159.052 8.81454 158.92 8.74182C158.76 8.65454 158.475 8.49455 158.388 8.42182C158.3 8.34182 158.016 8.19636 157.972 8.17455C157.928 8.15273 157.592 8.02909 157.549 8.01455C157.512 8 157.286 7.83273 157.147 7.77455C156.965 7.70182 156.856 7.67273 156.702 7.68C156.557 7.68727 156.294 7.84727 156.265 7.86182C156.068 7.96364 155.834 8.05091 155.761 8.06545C155.688 8.08727 155.316 8.19636 155.178 8.21818C155.149 8.21818 154.47 8.32727 154.113 8.37091C153.857 8.4 152.923 8.50182 152.522 8.54545C152.274 8.57454 151.515 8.59636 150.516 8.65454C150.53 8.58182 150.545 8.50182 150.56 8.45091C150.574 8.38545 150.669 7.94182 150.676 7.89818C150.72 7.70182 150.917 7.42545 150.932 7.40364C150.946 7.38182 151.027 7.26545 151.041 7.23636C151.056 7.20727 151.202 7.04 151.238 6.90182C151.275 6.77091 151.289 6.57455 151.275 6.41455C151.26 6.25455 151.085 5.94182 151.048 5.86909C151.019 5.80364 150.946 5.65818 150.924 5.6C150.903 5.54909 150.866 5.52 150.815 5.49091C150.764 5.46182 150.436 5.25818 150.304 5.2C150.173 5.14909 149.312 4.78545 149.239 4.74909C149.166 4.71273 148.532 4.37091 148.174 4.21818C147.817 4.06545 147.255 4.01455 147.145 4C147.036 3.99273 146.7 4.02182 146.657 4.04364C146.613 4.06545 146.387 4.07273 146.27 4.10182C146.146 4.13091 146.102 4.18182 145.891 4.20364C145.861 4.20364 145.227 4.26909 145.176 4.28364C145.125 4.29818 145.059 4.32 145.037 4.32C144.84 4.33455 144.512 4.32 144.475 4.32C144.446 4.32 144.286 4.41455 144.256 4.42909C144.22 4.44364 144.162 4.45818 144.147 4.46545C144.132 4.47273 144.103 4.50909 144.089 4.52364C144.074 4.53818 144.03 4.55273 144.016 4.58182C144.001 4.62545 144.03 4.67636 144.067 4.70545C144.074 4.71273 144.205 4.81455 144.22 4.83636C144.227 4.85818 144.519 5.14182 144.672 5.25091C144.825 5.36727 145.008 5.52 145.336 5.91273C145.664 6.30545 145.927 6.98182 145.971 7.2C146.015 7.41818 146 7.75273 146.036 8.01455C146.073 8.27636 146.102 8.48727 146.168 8.65454C146.204 8.74182 146.233 8.85091 146.255 9.02545C145.256 9.12727 144.249 9.22909 143.986 9.25091C143.899 9.25818 142.549 9.42545 142.214 9.46182C141.878 9.49818 139.923 9.69454 139.638 9.71636C139.347 9.74545 138.347 9.94182 138.201 9.95636C138.055 9.96364 137.34 9.98545 137.253 9.97091C137.202 9.96364 137.063 9.92727 136.99 9.90545C136.917 9.89091 136.706 9.83273 136.676 9.82545C136.647 9.81818 136.582 9.84727 136.574 9.86909C136.574 9.89091 136.596 10.0073 136.625 10.0873C136.669 10.2036 136.895 10.64 136.917 10.6764C137.063 10.9527 137.45 11.2727 137.814 11.5418C137.96 11.6509 138.157 11.7818 138.194 11.8255C138.318 11.9636 138.478 11.9709 138.581 12.1891C138.653 12.3491 138.909 12.5891 139.062 12.72C139.062 12.8073 139.055 12.9018 139.055 12.9818C139.055 13.4327 138.989 14.1527 138.887 14.8436C138.777 15.5273 138.435 16.8873 138.15 17.9273C137.858 18.9745 137.114 21.1782 137.027 21.4109C136.939 21.6436 136.458 22.8073 136.37 23.04C136.282 23.2727 135.918 24.3927 135.852 24.5527C135.786 24.7127 135.436 25.2873 135.283 25.5855C135.13 25.8836 134.612 26.8 134.429 27.1127C134.247 27.4327 133.795 28.1164 133.663 28.2909C133.379 28.6545 133.131 28.9018 132.854 29.1418C132.562 29.3964 132.285 29.5927 132.27 29.6145C132.255 29.6364 132.066 29.7309 132.036 29.7527C132.007 29.7745 132.015 29.8182 132.066 29.8255C132.088 29.8255 132.219 29.8255 132.233 29.8473C132.248 29.8691 132.409 29.8618 132.467 29.8473C132.518 29.8327 132.649 29.8182 132.759 29.8182C132.868 29.8182 133.058 29.7964 133.226 29.7309C133.408 29.6582 133.547 29.6727 133.605 29.6436C133.663 29.6145 134.014 29.52 134.05 29.4982C134.094 29.4764 134.408 29.3745 134.495 29.3455C134.809 29.2436 135.195 29.0182 135.246 28.9818C135.298 28.9455 135.75 28.7127 135.808 28.6764C135.969 28.5673 136.312 28.3127 136.399 28.2618C136.487 28.2109 136.837 27.9345 136.99 27.7964C137.041 27.7527 137.45 27.36 137.501 27.3091C137.552 27.2509 137.8 26.9745 137.822 26.96C137.844 26.9382 138.084 26.64 138.135 26.5673C138.187 26.4945 138.478 26.1018 138.559 26.0073C138.639 25.92 139.098 25.3527 139.434 24.9236C139.66 24.6255 139.901 24.1673 140.018 23.9273C140.12 23.7164 140.39 23.2436 140.543 22.96C140.762 23.1636 140.966 23.3891 141.17 23.6218C141.404 23.8909 141.47 23.8182 141.659 24.2764C141.849 24.7273 141.9 25.1491 142.039 25.6727C142.177 26.1964 142.505 28.2836 142.681 29.2145C142.856 30.1455 143.257 30.5745 143.381 30.7127C143.505 30.8509 143.592 30.9891 143.68 31.0545C143.768 31.1273 144.169 31.4618 144.337 31.5636C144.497 31.6655 144.643 31.7527 144.731 31.76C144.818 31.7745 145.234 32.0509 145.584 31.9564C145.934 31.8618 146.109 31.4909 146.27 31.1055C146.299 31.04 146.321 30.9745 146.35 30.8945C146.474 30.8945 146.613 30.8945 146.773 30.8945C147.175 30.8945 147.86 30.8291 148.298 30.8145C148.743 30.8 150.275 30.7127 150.516 30.7055C150.764 30.7055 152.369 30.6545 152.741 30.6618C152.821 30.6618 153.128 30.6691 153.128 30.6691C153.201 30.6764 153.274 30.6836 153.39 30.7055C153.507 30.7273 153.843 30.8218 153.916 30.8145C153.981 30.8145 154.251 30.7418 154.339 30.7345C154.426 30.72 154.601 30.7345 154.711 30.72C154.82 30.7055 154.981 30.6182 155.054 30.56C155.127 30.5018 155.666 30.1527 155.732 30.0873C155.798 30.0218 155.842 29.8982 155.878 29.7309C155.915 29.5636 155.885 29.2364 155.871 29.12C155.849 29.0182 155.725 28.8582 155.688 28.8C155.688 28.8 155.688 28.7855 155.681 28.7855C155.681 28.7855 155.681 28.7782 155.674 28.7782C155.652 28.7564 155.608 28.7273 155.55 28.6909C155.594 28.5964 155.732 28.3927 155.739 28.3709C155.739 28.3491 155.936 27.9418 155.995 27.8618C156.053 27.7818 156.287 27.3891 156.316 27.36C156.535 27.0764 156.95 26.5236 157.082 26.4073C157.14 26.3564 157.352 26.1891 157.505 26.1382C157.563 26.1236 157.644 26.0873 157.782 26.0073C157.921 25.9273 158.03 25.7964 158.191 25.5855C158.351 25.3745 158.3 25.0618 158.286 24.9236C158.271 24.7855 158.176 24.5164 158.147 24.4218C158.118 24.3345 158.089 24.2691 158.059 24.1382C158.03 24.0073 158.008 23.8255 157.957 23.7745C157.906 23.7309 157.782 23.4618 157.644 23.3455C157.6 23.3164 157.279 22.9891 157.184 22.8873C157.104 22.8 156.783 22.4655 156.615 22.2909C156.586 22.2618 156.367 21.9055 156.192 21.7673C156.126 21.7164 155.995 21.6218 155.973 21.5927C155.951 21.5636 155.528 21.3236 155.499 21.3018C155.324 21.2 155.207 21.0473 155.039 21.0036C154.981 20.9891 154.762 20.9091 154.725 20.8945C154.696 20.88 154.601 20.8073 154.514 20.7418C154.419 20.6836 154.324 20.6691 154.266 20.6691C154.2 20.6691 154.083 20.6836 154.018 20.7127C153.952 20.7418 153.689 20.7855 153.544 20.8364C153.405 20.88 153.332 20.8655 153.135 21.0982C153.047 21.2 152.471 21.36 152.201 21.4036C152.07 21.4255 151.019 21.5927 149.903 21.76C149.903 21.7455 149.903 21.7309 149.91 21.7164C149.94 21.6218 149.961 21.5782 149.954 21.52C149.947 21.4618 149.976 21.2436 149.976 21.2218C149.976 21.2 150.027 20.9091 150.042 20.7855C150.064 20.6545 150.144 20.1164 150.151 20.0364C150.151 19.9636 150.209 19.5055 150.224 19.4182C150.231 19.36 150.334 18.4945 150.392 17.8618H150.399C150.625 17.9055 150.8 17.9709 150.924 18C151.048 18.0291 151.369 18.1164 151.457 18.1455C151.545 18.1673 151.997 18.2836 152.194 18.2909C152.384 18.2982 152.858 18.3709 152.938 18.3636C153.026 18.3636 153.288 18.2909 153.441 18.2764C153.595 18.2618 153.981 18.2036 154.054 18.1964C154.12 18.1891 154.419 18.0873 154.601 18.0582C154.784 18.0364 155.324 17.9564 155.448 17.9273C155.572 17.8982 155.783 17.8327 155.995 17.7745C156.206 17.7164 156.717 17.4982 156.805 17.4545C156.899 17.4182 156.907 17.3455 156.921 17.2727C156.929 17.2073 157.009 16.9236 157.038 16.8C157.067 16.6764 157.045 16.6255 157.016 16.4873C156.987 16.3491 156.863 16.1673 156.826 16.1091C156.783 16.0436 156.608 15.8909 156.484 15.8036C156.367 15.7164 156.031 15.4691 155.973 15.4327C155.915 15.3891 155.791 15.28 155.732 15.2436C155.674 15.2073 155.608 15.1855 155.542 15.1564C155.477 15.1273 154.828 14.9091 154.616 14.8364C154.404 14.7709 154.04 14.6545 153.945 14.64C153.85 14.6255 153.77 14.64 153.675 14.6473C153.565 14.6545 153.427 14.6473 153.354 14.6473C153.252 14.6255 153.084 14.6255 153.04 14.6473C153.004 14.6618 152.85 14.6473 152.632 14.7782C152.508 14.8509 152.384 15.0109 152.296 15.0836C152.179 15.1782 152.011 15.2145 151.946 15.2436C151.873 15.2727 151.034 15.5855 150.706 15.5927H150.567C150.582 15.4109 150.589 15.2727 150.596 15.2291C150.618 15.0327 150.676 14.2909 150.698 14.1455C150.72 14 150.757 13.8109 150.764 13.68C150.771 13.5564 150.749 13.5055 150.706 13.4255C150.662 13.3527 150.552 13.2218 150.385 13.0473C150.224 12.88 149.896 12.6545 149.75 12.5818C149.604 12.5091 149.648 12.5964 149.37 12.4073C149.093 12.2182 148.663 12.08 148.32 11.9345C148.159 11.8618 147.977 11.7818 147.802 11.6873C147.919 11.6727 147.992 11.6655 148.006 11.6655C148.437 11.6073 148.867 11.5782 148.918 11.5709C149.101 11.5491 149.312 11.5345 149.531 11.5055C149.67 11.4836 149.961 11.4691 150.158 11.4473C150.348 11.4255 150.742 11.3891 151.005 11.3673C151.267 11.3455 152.106 11.3382 152.201 11.3382C152.595 11.3164 153.565 11.3018 153.755 11.2945C153.945 11.2945 155.17 11.2873 155.287 11.2873C155.608 11.2873 156.126 11.3164 156.374 11.3018C156.622 11.2945 156.914 11.3527 157.177 11.3818C157.439 11.4109 157.833 11.4618 157.95 11.4618C158.067 11.4618 158.162 11.4255 158.22 11.4255C158.278 11.4255 158.563 11.36 158.614 11.3455C158.665 11.3309 159.146 11.1055 159.161 11.1055C159.219 11.0764 159.446 10.9527 159.511 10.9164C159.577 10.88 159.767 10.7636 159.818 10.7273C159.869 10.6909 159.927 10.6255 159.942 10.5891C159.956 10.5527 160.015 10.4436 160.029 10.3782C160.058 10.2618 160.029 10.0655 160.015 9.97818V9.96364H159.985ZM142.637 22.3418C142.535 22.32 142.403 22.3127 142.243 22.2909C142.082 22.2618 141.966 22.2473 141.783 22.2618C141.601 22.2764 141.513 22.24 141.44 22.24C141.375 22.24 141.09 22.24 140.857 22.2182C140.973 21.9564 141.076 21.7091 141.09 21.6655C141.127 21.5782 141.513 20.3491 141.528 20.32C141.542 20.2836 141.718 19.7309 141.754 19.6509C141.791 19.5709 142.009 18.7927 142.039 18.6909C142.068 18.5891 142.469 17.0545 142.491 16.9673C142.505 16.8727 142.666 16.3927 142.724 16.1745C142.775 15.9564 143.075 14.5164 143.096 14.4C143.111 14.2909 143.096 14.2618 143.075 14.2036C143.045 14.1382 142.797 13.6073 142.768 13.5782C142.739 13.5418 142.564 13.3527 142.527 13.3091C142.484 13.2727 141.973 12.6982 141.878 12.6036C141.871 12.5964 141.849 12.5745 141.827 12.56C141.973 12.5236 142.36 12.4145 142.454 12.3855C142.557 12.3564 143.293 12.24 143.374 12.2182C143.447 12.1964 144.986 12.0218 145.606 11.9418C145.942 12.3491 146.175 12.7709 146.263 13.12C146.35 13.4836 146.35 14.4509 146.394 15.0909C146.438 15.7309 146.569 18.5382 146.606 18.8582C146.642 19.1782 146.693 20.24 146.708 20.4509C146.715 20.6545 146.715 20.96 146.715 20.9818C146.722 21.1418 146.737 21.3455 146.766 21.5055C146.802 21.6655 146.817 21.8691 146.854 21.9127C146.897 21.9636 146.956 22.0727 147.043 22.1964C146.277 22.3127 144.643 22.4945 144.329 22.56C144.162 22.5964 143.789 22.6255 143.476 22.64C143.359 22.5818 143.257 22.5309 143.162 22.48C143.009 22.4 142.739 22.3491 142.644 22.3273L142.637 22.3418ZM151.559 23.9345C151.793 23.9127 152.354 23.8982 152.398 23.8982C152.449 23.8982 152.551 23.9127 152.595 23.9345C152.639 23.9564 152.661 23.9855 152.668 24.0582C152.668 24.1309 152.588 24.8145 152.588 24.9164C152.588 25.0182 152.537 25.1855 152.42 25.6945C152.303 26.2036 152.23 26.6764 152.157 26.96C152.084 27.2436 151.844 28.0509 151.771 28.3127C151.771 28.3127 151.771 28.32 151.771 28.3273C151.603 28.3418 151.442 28.3564 151.34 28.3709C151.194 28.3927 150.742 28.4145 150.603 28.4145C150.465 28.4145 149.772 28.4873 149.502 28.4945C149.385 28.4945 148.962 28.5527 148.765 28.5745C148.575 28.5891 147.372 28.7055 147.175 28.7127C147.102 28.7127 146.861 28.7273 146.584 28.7418C146.569 28.5673 146.554 28.4364 146.54 28.3927C146.511 28.2909 146.496 28.2764 146.46 28.1745C146.43 28.0727 146.387 27.84 146.387 27.7891C146.387 27.7382 146.248 27.3164 146.204 27.1855C146.16 27.0545 145.993 26.5964 145.978 26.5309C145.964 26.4655 145.949 26.1891 145.92 26.08C145.891 25.9709 145.73 25.4909 145.628 25.0691C145.599 24.9527 145.526 24.7927 145.438 24.6182C145.526 24.6182 145.621 24.6182 145.715 24.6036C146.029 24.5673 146.795 24.4436 147.189 24.3855C147.277 24.3709 147.89 24.3055 148.065 24.2909C148.51 24.2473 150.275 23.9927 150.552 23.9927C150.822 23.9927 151.34 23.9636 151.574 23.9345H151.559Z" fill="black"/>
<path d="M18 31.3441C16.8143 29.425 15.1508 27.7615 13.0605 26.5554C10.9702 25.3492 8.69846 24.7385 6.44208 24.6721C7.51277 22.6865 8.12095 20.4148 8.12095 18C8.12095 15.5852 7.51277 13.3135 6.44208 11.3279C8.69846 11.2615 10.9676 10.6533 13.0605 9.44463C15.1508 8.2385 16.8143 6.57496 18 4.65588C19.1857 6.57496 20.8492 8.2385 22.9395 9.44463C25.0298 10.6508 27.3015 11.2615 29.5579 11.3279C28.4872 13.3135 27.879 15.5852 27.879 18C27.879 20.4148 28.4872 22.6865 29.5579 24.6721C27.3015 24.7385 25.0324 25.3492 22.9395 26.5554C20.8492 27.7615 19.1857 29.425 18 31.3441ZM18 2.72913C26.4353 2.72913 33.2709 9.56729 33.2709 18C33.2709 26.4327 26.4327 33.2709 18 33.2709C9.56729 33.2709 2.72913 26.4327 2.72913 18C2.72913 9.56729 9.56729 2.72913 18 2.72913ZM18 0C8.07496 0 0 8.07496 0 18C0 27.925 8.07496 36 18 36C27.925 36 36 27.925 36 18C36 8.07496 27.9276 0 18 0Z" fill="black"/>
<path d="M71.7912 12.7806C71.7173 12.5824 71.525 12.3989 71.3771 12.2521C71.2219 12.1126 70.2827 11.3345 70.194 11.2758C70.1053 11.2171 69.9574 11.1363 69.8317 11.0923C69.706 11.0482 69.4915 11.0629 69.425 11.0703C69.351 11.0703 69.1514 11.151 69.0552 11.173C68.9665 11.195 68.8334 11.195 68.7816 11.1877C68.7668 11.1877 68.7299 11.1877 68.6929 11.1804C68.7225 11.0776 68.7594 10.9748 68.7964 10.8574C68.8334 10.7399 68.8778 10.6959 68.8925 10.6152C68.9147 10.5271 68.9813 10.3803 69.0183 10.3289C69.0626 10.2775 69.1514 10.1894 69.2253 10.116C69.2992 10.0426 69.3954 9.97653 69.4324 9.95451C69.4619 9.92514 69.5433 9.83706 69.5655 9.81504C69.5876 9.79302 69.6616 9.75631 69.7207 9.69759C69.7799 9.64621 69.8391 9.5728 69.8612 9.54344C69.8834 9.51408 69.9426 9.45535 69.95 9.43333C69.9574 9.41131 69.9574 9.39663 69.9722 9.37461C69.9796 9.35259 69.9722 9.32323 69.9943 9.3012C70.0091 9.27918 70.0387 9.27184 70.0313 9.2278C70.0239 9.18376 69.9722 8.80205 69.9648 8.69194C69.9574 8.58184 69.913 8.24417 69.913 8.20013C69.913 8.15609 69.8021 7.85513 69.7725 7.7964C69.7429 7.73034 69.7503 7.74502 69.6764 7.67162C69.6024 7.60555 69.144 7.15778 68.9443 6.97427C68.752 6.79076 68.5968 6.68799 68.3601 6.55586C68.1235 6.42373 67.8795 6.33565 67.6207 6.26224C67.3545 6.18884 66.3192 5.80713 66.1861 5.74107C66.053 5.675 65.9199 5.5649 65.6759 5.48415C65.4319 5.40341 64.7072 5.42543 64.5371 5.43277C64.367 5.44011 64.0047 5.97596 63.9234 5.99064C63.842 6.00533 63.5167 6.10809 63.4649 6.12277C63.4131 6.13745 63.0804 6.17416 62.9768 6.1815C62.8733 6.18884 62.6293 6.18884 62.548 6.21086C62.474 6.23288 62.3113 6.26224 62.2226 6.26958C62.1339 6.27692 60.9433 6.49714 60.1299 6.64395C59.3165 6.7981 58.0151 7.04033 57.7119 7.09172C57.4013 7.1431 56.3808 7.34129 56.1516 7.378C55.9298 7.4147 55.7819 7.39268 55.6488 7.38534C55.5157 7.378 55.2347 7.31193 55.1385 7.28991C55.0424 7.26789 54.9019 7.19448 54.8723 7.17246C54.8428 7.15044 54.7984 7.1431 54.791 7.16512C54.7614 7.21651 54.791 7.37066 54.8132 7.42938C54.828 7.4881 54.8945 7.58353 54.9167 7.60555C54.9389 7.62757 54.9463 7.63491 54.9537 7.65693C54.9537 7.67896 55.0424 7.74502 55.0646 7.82577C55.0942 7.90651 55.3456 8.17811 55.3678 8.21481C55.39 8.25151 55.4565 8.31024 55.4639 8.33226C55.4639 8.35428 55.5157 8.40566 55.6783 8.54513C55.841 8.6846 56.2329 8.91216 56.44 9.05897C56.647 9.19844 56.8097 9.32322 56.9059 9.39663C57.002 9.46269 57.1203 9.5361 57.3274 9.58014C57.5344 9.62418 58.1703 9.60216 58.2369 9.61684C58.2813 9.62418 58.4365 9.63887 58.5475 9.63887C58.5992 10.0426 58.6066 10.5271 58.6288 10.7546C58.6584 10.9969 58.6954 12.2007 58.6954 12.2594C58.6954 12.2888 58.6954 12.3181 58.6954 12.3475C58.3108 12.4209 57.9263 12.5017 57.7119 12.553C57.3865 12.6338 57.0759 12.7072 56.6175 12.7733C56.159 12.8393 55.1903 13.0081 54.8428 13.0595C54.4952 13.1109 54.0811 13.2137 53.8815 13.2504C53.6892 13.2944 52.9571 13.4412 52.7057 13.4853C52.4617 13.5293 52.2398 13.5 52.0772 13.4779C52.018 13.4706 51.9441 13.4633 51.8701 13.4559C51.9071 13.3899 51.9441 13.3164 51.9515 13.2871C51.9589 13.2504 52.0254 13.1183 52.055 13.0595C52.0846 13.0081 52.2251 12.7219 52.2398 12.6778C52.2472 12.6338 52.3286 12.4429 52.3508 12.4209C52.3656 12.3989 52.4839 12.0539 52.5061 12.0098C52.5282 11.9658 52.6244 11.819 52.6392 11.7823C52.6466 11.7456 52.7131 11.5841 52.7353 11.5401C52.7575 11.496 52.8314 11.2905 52.8462 11.2538C52.8536 11.2244 52.9202 11.1216 52.9202 11.0849C52.9202 11.0482 52.9497 10.9895 52.9645 10.9455C52.9793 10.9014 53.0089 10.7987 53.0237 10.7766C53.0385 10.7546 53.0533 10.6886 53.0606 10.6298C53.068 10.5711 53.5413 9.56546 53.6448 9.22046C53.7557 8.87546 53.6744 8.42035 53.6522 8.25151C53.6374 8.08268 53.5857 7.89917 53.5191 7.7964C53.4452 7.69364 53.0976 7.34129 52.9423 7.1798C52.787 7.01097 52.4321 6.51916 52.3582 6.45309C52.2842 6.38703 52.0846 6.24756 51.981 6.13011C51.8849 6.01267 51.6113 5.49149 51.5817 5.46947C51.5521 5.44745 51.3673 5.37404 51.3303 5.33734C51.2933 5.30064 51.1602 5.21255 51.0345 5.19787C50.9088 5.18319 50.6056 5.14649 50.5317 5.13181C50.4577 5.11713 50.3394 5.08042 50.1915 5.02904C50.0436 4.97766 49.7848 4.99968 49.5482 5.03638C49.3116 5.08042 48.5647 5.40341 48.5647 5.40341C48.6165 5.43277 49.2672 6.16682 49.282 6.20352C49.2894 6.23288 49.4964 6.69533 49.5334 6.7614C49.5704 6.82746 49.5926 6.92289 49.5926 7.00363C49.5926 7.08438 49.5852 7.54683 49.5482 7.82577C49.5186 8.1047 49.4077 8.54513 49.0749 9.62418C48.7422 10.7032 47.5517 13.3532 47.3446 13.8229C47.1376 14.2854 46.2502 16.3921 46.1319 16.6197C46.0136 16.8472 45.6438 17.5225 45.6069 17.6033C45.5699 17.6767 45.2076 18.5282 45.1632 18.6016C45.1188 18.675 44.8452 19.0861 44.7713 19.2182C44.6899 19.3503 44.4385 19.8568 44.372 19.9743C44.3128 20.0917 43.98 20.8258 43.9283 20.8918C43.8765 20.9579 43.5364 21.4791 43.5068 21.5305C43.4846 21.5745 43.0483 22.1911 42.9522 22.3232C42.8487 22.4554 42.4937 22.815 42.442 22.8664C42.3902 22.9178 42.1388 23.2041 42.0944 23.2481C42.0427 23.2922 42.0205 23.3068 42.0057 23.3215C41.9909 23.3362 41.9909 23.3509 41.9983 23.3582C41.9983 23.3656 42.0574 23.3582 42.087 23.3582C42.1166 23.3582 42.1536 23.3436 42.1832 23.3509C42.2201 23.3582 42.2275 23.3509 42.2941 23.3509C42.3606 23.3509 42.3828 23.3582 42.3976 23.3729C42.4124 23.3729 42.4789 23.3949 42.5011 23.3803C42.5233 23.3729 42.5529 23.3949 42.5603 23.3876C42.5677 23.3876 42.5973 23.3803 42.612 23.3876C42.6342 23.3876 42.8043 23.3729 42.8117 23.3729C42.8635 23.3803 43.0335 23.3289 43.1223 23.3069C43.4698 23.2041 44.0244 22.8738 44.2832 22.7123C44.542 22.5508 45.1632 22.0149 45.2889 21.9195C45.422 21.8167 46.3907 21.0313 46.4277 20.9946C46.4646 20.9579 46.5016 20.9285 46.5238 20.9139C46.546 20.8992 46.5608 20.9065 46.6051 20.8625C46.6495 20.8184 46.9675 20.5175 47.0045 20.4954C47.034 20.4661 47.1449 20.378 47.1597 20.356C47.1745 20.334 47.4038 20.1211 47.4185 20.0917C47.4333 20.0624 47.633 19.8275 47.6995 19.7541C47.8327 19.8715 47.9584 19.9522 47.9953 20.0403C48.0767 20.2165 48.0841 20.334 48.1063 20.6129C48.1284 20.8918 48.0249 21.4497 47.9953 21.6773C47.9658 21.9048 47.8548 22.9398 47.8326 23.1674C47.8105 23.3949 47.6552 24.496 47.633 24.6502C47.6108 24.8043 47.4186 25.7145 47.4038 25.8393C47.389 25.9641 47.3002 26.6174 47.3002 26.6541C47.3002 26.6908 47.2411 26.845 47.2337 26.867C47.2337 26.8817 47.2263 27.0138 47.2115 27.1312C47.1967 27.2487 47.1449 27.4175 47.1819 27.5937C47.2189 27.7699 47.3372 28.4452 47.3446 28.5993C47.352 28.7535 47.4259 28.893 47.5369 29.2673C47.6478 29.6417 47.9953 30.2436 48.0989 30.3757C48.2024 30.5079 48.2985 30.5519 48.3872 30.6033C48.4686 30.6547 49.0158 30.9703 49.0454 30.9997C49.0823 31.029 49.1193 31.029 49.1933 31.029C49.2672 31.029 49.5556 30.9556 49.6739 30.9043C49.7922 30.8529 49.8366 30.8602 49.9179 30.8455C49.9919 30.8235 50.1989 30.8088 50.5835 30.5005C50.968 30.1922 50.968 29.7812 50.9828 29.5242C50.9976 29.2673 51.0641 27.4028 51.0715 27.234C51.0715 27.0652 51.1454 25.3255 51.1602 25.1053C51.1676 24.8851 51.2564 22.8884 51.2564 22.7416C51.2564 22.5948 51.2638 21.1561 51.2712 21.0533C51.2712 20.9506 51.3673 20.5909 51.3673 20.5248C51.3673 20.4587 51.3525 19.9522 51.3525 19.7834C51.3525 19.6146 51.419 18.675 51.419 18.5062C51.419 18.3373 51.3895 17.9263 51.3599 17.8676C51.3377 17.8088 50.7831 16.8692 50.7683 16.8252C50.7535 16.7812 50.7387 16.7371 50.7239 16.7151C50.6056 16.5976 50.4799 16.5389 50.3838 16.282C50.5095 16.0838 50.6204 15.8709 50.8497 15.4452C50.9606 15.247 51.1528 14.8286 51.1972 14.7552C51.2416 14.6818 51.419 14.2854 51.4708 14.1826C51.4782 14.1606 51.5004 14.1312 51.5226 14.0945C51.6039 14.1679 51.6926 14.2487 51.811 14.3001C51.9884 14.3735 52.5726 14.8286 52.6466 14.8726C52.7205 14.9167 52.9423 15.0561 53.0015 15.1222C53.0607 15.1883 53.4452 15.3498 53.6522 15.4746C53.8593 15.5993 54.547 15.9517 54.717 16.0031C54.8871 16.0545 55.1829 16.0838 55.2347 16.0691C55.2864 16.0545 55.4047 15.9664 55.4787 15.9517C55.5526 15.9297 55.7079 15.9076 55.7227 15.893C55.7375 15.8783 55.8558 15.8489 55.952 15.8269C56.0481 15.8049 56.8171 15.6727 56.928 15.6581C57.039 15.636 57.6823 15.4378 57.771 15.4305C57.8598 15.4305 58.126 15.4011 58.2369 15.3938C58.296 15.3938 58.4365 15.3718 58.6362 15.3351V15.4011C58.6362 15.4011 58.6362 15.4452 58.6362 15.5773C58.6362 15.7094 58.6362 16.3187 58.6362 16.5756C58.6362 16.8252 58.614 17.317 58.614 17.4271C58.614 17.5372 58.577 17.7134 58.5844 17.8529V18.007C58.5179 18.0217 58.4587 18.029 58.4218 18.0437C58.3182 18.0657 57.4013 18.2639 57.1351 18.308C56.8689 18.352 55.841 18.5282 55.7449 18.5502C55.6414 18.5722 55.0424 18.7337 54.9537 18.7557C54.8575 18.7778 54.7392 18.7778 54.6801 18.7778C54.6209 18.7778 54.5174 18.7998 54.4878 18.7925C54.4582 18.7925 54.1107 18.7778 54.0589 18.7998C54.0072 18.8218 53.9184 18.7998 53.8962 18.7998C53.8667 18.7998 53.7779 18.7704 53.7557 18.7778C53.7336 18.7778 53.6152 18.7557 53.5931 18.7557C53.5709 18.7557 53.5487 18.7851 53.5561 18.8218C53.5561 18.8438 53.5635 18.9099 53.5783 18.9246C53.5857 18.9466 53.5857 18.9686 53.5857 18.9906C53.5857 19.0127 53.667 19.0861 53.667 19.1154C53.667 19.1375 53.741 19.2329 53.7705 19.2549C53.8001 19.2769 53.8815 19.3503 53.911 19.3944C53.9332 19.4237 53.9184 19.4384 53.9406 19.4751C53.9628 19.5118 54.0293 19.6072 54.0663 19.6366C54.1181 19.688 54.1698 19.7467 54.1994 19.7687C54.229 19.7908 54.3177 19.9229 54.4139 20.0183C54.473 20.077 54.7318 20.3119 54.754 20.334C54.7762 20.356 54.9611 20.5175 55.0054 20.5248C55.0572 20.5321 55.1016 20.5982 55.2421 20.6716C55.3752 20.745 55.5231 20.8845 55.5452 20.8918C55.597 20.9139 55.7153 21.024 55.7745 21.0607C55.8262 21.09 55.9815 21.2295 56.0259 21.2589C56.0703 21.2882 56.0924 21.2735 56.1294 21.2956C56.1738 21.3176 56.2551 21.3616 56.2995 21.3836C56.3882 21.4203 56.477 21.4277 56.5509 21.4424C56.6249 21.4644 56.7432 21.5231 56.8985 21.5525C57.0537 21.5745 57.6675 21.5305 57.7562 21.5231C57.8376 21.5158 58.1112 21.435 58.2369 21.3983C58.2665 21.391 58.3108 21.3836 58.3478 21.369C58.296 21.9782 58.2665 22.4407 58.2591 22.5141C58.2295 22.9765 58.1555 23.2922 58.1482 23.4537C58.1408 23.6151 58.0151 24.2831 57.9929 24.3932C57.9707 24.5033 57.8819 24.9511 57.8376 25.1199C57.7341 25.5163 57.601 25.898 57.3791 26.5146C57.1869 27.0285 56.8837 27.3588 56.8097 27.5203C56.7358 27.6818 56.3069 28.203 56.2182 28.3277C56.1294 28.4525 55.9002 28.7828 55.8115 28.8563C55.7227 28.9297 55.1903 29.4582 55.1681 29.4802C55.1459 29.5022 54.8354 29.7224 54.7688 29.7518C54.7318 29.7738 54.473 29.9206 54.4434 29.9426C54.3399 30.0014 54.1181 30.1041 53.8962 30.1775C53.8223 30.1996 53.4969 30.2803 53.4674 30.2803C53.4452 30.2876 53.4304 30.3244 53.4378 30.339C53.4378 30.3611 53.4747 30.3831 53.4969 30.4051C53.5191 30.4271 53.7262 30.3978 53.7484 30.4051C53.7705 30.4051 53.8667 30.4345 53.8962 30.4491C53.9258 30.4638 53.985 30.4491 54.0811 30.4491C54.1772 30.4491 54.4508 30.4785 54.6579 30.4858C54.8723 30.4858 55.0942 30.4565 55.1829 30.4418C55.2716 30.4271 55.4491 30.3831 55.5674 30.3464C55.6931 30.3097 56.2625 30.1629 56.3069 30.1555C56.3513 30.1482 56.3587 30.1555 56.3956 30.1262C56.4326 30.0895 56.7432 29.9867 56.8245 29.9647C56.9059 29.9426 57.4826 29.6637 57.5492 29.627C57.6157 29.5903 57.7562 29.4949 57.7858 29.4875C57.8154 29.4729 58.1482 29.2453 58.2073 29.1866C58.2665 29.1279 58.4735 28.937 58.4957 28.915C58.5179 28.893 58.688 28.7755 58.7028 28.7535C58.7175 28.7388 58.9542 28.5406 59.0355 28.4452C59.1095 28.3571 59.3387 28.1516 59.3609 28.1369C59.3831 28.1222 59.4052 28.0928 59.4422 28.0341C59.4866 27.9681 59.4866 27.9901 59.5014 27.9754C59.5088 27.9607 59.701 27.7625 59.7232 27.7332C59.7454 27.7038 59.9746 27.4836 60.0116 27.4469C60.0412 27.4028 60.2186 27.1753 60.226 27.1533C60.2334 27.1312 60.3665 26.9698 60.3887 26.9404C60.4183 26.911 60.5662 26.6541 60.581 26.6027C60.6032 26.5513 60.7511 26.3238 60.7585 26.3164C60.7585 26.3091 60.7585 26.2724 60.788 26.2357C60.8102 26.1917 61.0025 25.8907 61.0321 25.8393C61.0542 25.7953 61.2539 25.3108 61.4018 24.9585C61.424 24.9144 61.5571 24.518 61.6162 24.3198C61.6384 24.2391 61.7863 23.6445 61.8011 23.6078C61.8159 23.5711 61.875 23.3509 61.9268 23.1674C61.949 23.0793 62.0303 22.6682 62.0525 22.4994C62.1413 21.9342 62.23 21.112 62.2374 21.0533C62.2596 20.9359 62.2744 20.7303 62.2965 20.4734C62.3483 20.4661 62.4001 20.4514 62.4444 20.4441C62.511 20.4294 63.3762 20.2605 63.4797 20.2532C63.5832 20.2459 64.0417 20.2385 64.16 20.2018C64.2857 20.1725 64.3966 20.1651 64.5667 20.1578C64.7368 20.1504 65.1804 20.1064 65.4245 20.0844C65.6611 20.0624 66.4967 19.9963 66.652 19.9963C66.8073 19.9963 67.7094 20.0697 67.8721 20.055C68.0348 20.0403 68.8704 19.9009 69.0331 19.8788C69.1662 19.8568 69.1809 19.8495 69.2179 19.8054C69.2549 19.7614 69.4915 19.5338 69.5507 19.4678C69.6098 19.3944 69.6024 19.365 69.6098 19.2989C69.6098 19.2329 69.632 18.5429 69.632 18.3961C69.632 18.2566 69.5802 18.1538 69.4989 18.0217C69.4176 17.8896 69.2623 17.7428 69.1514 17.64C69.0404 17.5372 68.4415 17.1335 68.3527 17.0821C68.264 17.0307 68.1679 17.0234 68.0865 16.9573C67.9904 16.8839 67.739 16.7885 67.495 16.7078C67.495 16.7004 67.495 16.6857 67.495 16.6784C67.495 16.6564 67.5245 16.5683 67.5319 16.5316C67.5319 16.4949 67.5615 16.3774 67.5689 16.3481C67.5689 16.326 67.6503 16.0177 67.6503 15.981C67.6503 15.9517 67.6946 15.7388 67.702 15.7168C67.7094 15.6948 67.7907 15.4892 67.7981 15.4599C67.7981 15.4305 67.8943 15.0855 67.8869 15.0488C67.8869 15.0194 67.983 14.6304 68.02 14.5056C68.0274 14.4689 68.0496 14.3955 68.0643 14.3001C68.1827 14.3074 68.3232 14.3368 68.3897 14.3368C68.4784 14.3368 68.9443 14.4762 69.0922 14.5056C69.2401 14.535 69.3362 14.579 69.5285 14.579C69.7207 14.579 70.2753 14.6598 70.6377 14.6818C71.0074 14.7038 71.1479 14.6524 71.3032 14.6084C71.4659 14.5643 71.636 14.4689 71.843 14.2634C72.0574 14.0578 71.9835 13.7349 71.9687 13.5513C71.9465 13.3678 71.8504 13.0375 71.7765 12.8393L71.7912 12.7806ZM64.197 8.35428C64.2487 8.33226 64.3375 8.3396 64.3596 8.35428C64.3818 8.36896 64.4114 8.46439 64.4114 8.51577C64.4114 8.56716 64.3892 9.91046 64.367 10.2188C64.3449 10.5271 64.2709 11.2831 64.2561 11.4006V11.4226C64.0565 11.4446 63.7681 11.496 63.4205 11.5474C63.28 11.5694 63.036 11.5988 62.8142 11.6281C62.8142 11.5547 62.8142 11.5033 62.8142 11.4666C62.8142 11.3932 62.829 11.2831 62.8216 11.195C62.8216 10.9822 62.8216 10.6078 62.8511 10.4537C62.8733 10.3069 62.8955 10.1894 62.8881 10.1233C62.8881 10.0573 62.829 9.9178 62.7772 9.8077C62.718 9.70493 62.6515 9.62418 62.5258 9.52142C62.4001 9.41865 62.23 9.27918 62.0969 9.19844C62.0377 9.16173 61.875 9.04429 61.6754 8.89014C61.7198 8.8828 61.7493 8.86812 61.7715 8.86077C61.8159 8.84609 64.1452 8.36162 64.1896 8.3396L64.197 8.35428ZM63.3466 17.1335C63.1617 17.1629 62.7328 17.2583 62.6589 17.2656C62.6145 17.2656 62.5554 17.273 62.4814 17.2803C62.4962 17.0674 62.5036 16.9206 62.511 16.8692C62.5184 16.7885 62.5258 16.6417 62.5332 16.5683C62.5406 16.4875 62.5406 16.3481 62.5554 16.2453C62.5701 16.1425 62.5554 16.0398 62.5554 15.9223C62.5554 15.8049 62.5997 15.614 62.5923 15.57C62.5849 15.5259 62.6219 15.1222 62.6219 15.0855C62.6219 15.0488 62.6663 14.7111 62.6811 14.6304C62.6811 14.6084 62.6885 14.5717 62.6959 14.5276C62.8437 14.4983 62.9399 14.4836 62.9547 14.4762C63.073 14.4542 63.2726 14.4028 63.4057 14.4102C63.5167 14.4102 63.7385 14.3955 64.0195 14.3661C64.0195 14.4395 64.0121 14.4983 64.0047 14.5276C64.0047 14.5864 64.0047 14.9754 63.9973 15.1149C63.9825 15.2543 63.9529 15.6874 63.9455 15.8122C63.9381 15.937 63.879 16.4068 63.8938 16.5463C63.9086 16.6784 63.9234 16.8472 63.9455 17.0087C63.7163 17.0601 63.5093 17.1115 63.3466 17.1408V17.1335Z" fill="black"/>
<path d="M76.4813 8.24387C76.46 8.19336 76.4742 8.05628 76.4813 8.04185C76.4955 8.01299 76.5096 7.96248 76.5167 7.93362C76.5238 7.90476 76.5167 7.90476 76.5451 7.89033C76.5664 7.88312 76.6089 7.89033 76.6231 7.89755C76.6373 7.90476 76.7011 7.95527 76.7153 7.94805C76.7294 7.94805 76.7507 7.9697 76.772 7.97691C76.8003 7.99134 76.8429 8.00577 76.8712 8.0202C76.8996 8.03463 77.0485 8.09957 77.1619 8.12121C77.2754 8.14286 77.5732 8.24387 77.6299 8.26551C77.7575 8.31602 78.0269 8.33766 78.1404 8.34488C78.2467 8.34488 78.8069 8.36652 78.9699 8.33045C79.133 8.29437 79.5726 8.22222 79.7853 8.22222C79.998 8.22222 80.2816 8.13564 80.3525 8.14286C80.4305 8.15007 81.1183 8.04906 81.3097 8.02742C81.5011 8.00577 83.0681 7.78932 83.2311 7.72439C83.3942 7.65945 83.8125 7.60895 84.0465 7.57287C84.2805 7.5368 84.5357 7.51515 84.6208 7.48629C84.7059 7.45743 86.0247 7.26984 86.1523 7.25541C86.2728 7.24098 86.84 7.16162 86.9748 7.13997C87.23 7.09668 87.7121 7.03896 87.783 7.01732C87.861 7.00289 89.3145 6.75758 89.506 6.72872C89.6974 6.69986 89.9243 6.65657 90.0732 6.62771C90.2221 6.59163 90.371 6.56999 90.3922 6.55556C90.4135 6.54834 90.6333 6.49784 90.6687 6.48341C90.6971 6.47619 90.8885 6.42569 90.9098 6.41847C90.9382 6.41126 91.0091 6.36075 91.0516 6.36075C91.0942 6.36075 91.2147 6.33189 91.2501 6.31025C91.2785 6.29582 91.3565 6.21645 91.4629 6.15873C91.5692 6.10101 91.6897 6.02886 91.7323 6.01443C91.7748 6 91.8174 5.98557 91.8741 6.01443C91.9308 6.04329 92.42 6.23809 92.5477 6.27417C92.6824 6.31746 93.1149 6.46176 93.3772 6.55556C93.6395 6.64214 93.7104 6.66378 93.8522 6.75036C94.0011 6.83694 94.0791 6.89466 94.1217 6.91631C94.1571 6.93795 94.1926 6.9596 94.2138 7.01732C94.2351 7.08225 94.2918 7.17605 94.2989 7.19769C94.306 7.21934 94.2989 7.30592 94.3202 7.35642C94.3415 7.40693 94.4904 7.63781 94.5187 7.7316C94.5471 7.81818 94.5684 7.98413 94.5613 8.09957C94.5542 8.21501 94.5116 8.2583 94.5116 8.28716C94.5116 8.31602 94.5329 8.31602 94.5187 8.35931C94.5045 8.39538 94.4124 8.57576 94.3911 8.63348C94.3698 8.6912 94.2777 8.84271 94.2564 8.90043C94.228 8.95094 94.2068 8.9798 94.1997 9.00866C94.1997 9.03752 94.1429 9.1241 94.1358 9.15296C94.1288 9.18182 94.1217 9.26118 94.1004 9.29004C94.0791 9.3189 94.0295 9.3189 93.987 9.36219C93.9444 9.40548 93.8239 9.49206 93.7884 9.53535C93.7601 9.57864 93.7459 9.54978 93.6679 9.59307C93.5828 9.63636 93.4836 9.67244 93.4268 9.70851C93.3772 9.73737 93.1574 9.83838 93.1078 9.85281C93.0652 9.87446 93.0369 9.8456 92.966 9.88167C92.888 9.91053 92.8525 9.93939 92.8242 9.96104C92.7958 9.98268 92.4342 9.9899 92.3137 9.9899C92.1931 9.9899 91.2714 9.99711 91.2714 9.99711C90.924 9.99711 90.1228 9.97547 89.7825 9.99711C89.4421 10.0115 88.9671 10.0404 88.9175 10.0476C88.8678 10.0548 88.4566 10.0765 88.1943 10.1053C87.939 10.127 87.0102 10.1919 86.5919 10.2352C86.1736 10.2785 84.0961 10.5527 83.9473 10.5671C83.7984 10.5815 83.2382 10.6898 83.1106 10.733C82.983 10.7763 82.1818 10.9567 82.0116 10.9784C81.8415 11 81.6146 11.0361 81.494 11.0794C81.3735 11.1227 81.1395 11.2237 81.0332 11.2381C80.9268 11.2525 80.6645 11.3319 80.6149 11.3463C80.5652 11.3608 80.2745 11.3968 80.0902 11.3824C80.0335 11.3824 79.7569 11.3175 79.7215 11.303C79.679 11.2886 79.4095 11.1732 79.3599 11.101C79.3032 11.0289 79.1259 10.9351 79.0692 10.8918C79.0125 10.8413 78.8849 10.798 78.8352 10.7547C78.7927 10.7114 78.58 10.6248 78.5162 10.5671C78.4453 10.5094 78.2751 10.3651 78.19 10.3146C78.1049 10.2569 77.7788 10.026 77.7292 9.98268C77.6795 9.93939 77.4881 9.74459 77.4668 9.72294C77.4455 9.69408 77.4172 9.63636 77.3179 9.54257C77.1974 9.44156 77.0627 9.25397 77.0272 9.1746C76.9918 9.08802 76.8925 9.0303 76.8216 8.89322C76.7578 8.75613 76.7365 8.67677 76.6727 8.59019C76.6018 8.50361 76.6302 8.51082 76.5876 8.46032C76.538 8.4026 76.5026 8.3088 76.4813 8.2583V8.24387ZM97.922 28.3377C97.9007 28.2511 97.6526 27.8831 97.603 27.8038C97.5533 27.7244 97.3477 27.5512 97.2981 27.5152C97.2484 27.4719 97.1705 27.443 97.135 27.3997C97.0925 27.3636 96.8798 27.1544 96.823 27.1183C96.7663 27.0823 96.7592 27.0895 96.7096 27.0606C96.66 27.0317 96.3409 26.7504 96.3196 26.7287C96.2984 26.7071 96.2416 26.6638 96.2133 26.6566C96.192 26.6566 96.1424 26.6566 96.1069 26.6421C96.0715 26.6277 95.7879 26.469 95.7453 26.4473C95.7028 26.4257 95.6106 26.3247 95.5255 26.2886C95.5043 26.2814 95.2986 26.1443 95.2915 26.1371C95.2845 26.1371 95.2065 26.101 95.1143 26.1299C95.093 26.1299 94.8732 26.2237 94.852 26.2309C94.8307 26.2381 94.774 26.267 94.7314 26.2886C94.6889 26.303 94.3911 26.4401 94.3557 26.4473C94.3273 26.4473 94.1997 26.5195 94.15 26.5195C94.1004 26.5195 93.6395 26.5195 93.5261 26.5195C93.4126 26.5195 92.6611 26.5411 92.5831 26.5483C92.5051 26.5483 92.186 26.5556 92.1222 26.5772C92.0655 26.5916 91.158 26.6133 91.0587 26.6133C90.9594 26.6133 90.7255 26.6277 90.7042 26.6349C90.6829 26.6349 90.1653 26.6421 90.1299 26.6421C90.0235 26.6421 89.7045 26.6566 89.2791 26.6782C89.6265 26.3968 89.9456 26.1371 90.0874 26C90.1512 25.9351 90.4348 25.6681 90.5766 25.5599C90.7113 25.4517 91.1225 25.1631 91.321 25.0188C91.5196 24.8745 91.9166 24.6075 92.0726 24.4993C92.2215 24.3911 92.5406 24.153 92.6469 24.0519C92.7462 23.9509 92.8171 23.8283 92.8525 23.7056C92.888 23.583 92.8454 23.3521 92.8313 23.2367C92.81 23.1284 92.7391 22.9048 92.7107 22.847C92.6824 22.7821 92.6895 22.6883 92.6682 22.6089C92.654 22.5224 92.6186 22.4574 92.5973 22.3348C92.576 22.2121 92.5193 21.8802 92.4697 21.7287C92.4271 21.5772 92.3279 21.3968 92.2995 21.3391C92.2711 21.2814 92.2711 21.1587 92.2357 21.101C92.2002 21.0505 92.0868 20.9784 92.0372 20.9495C91.9946 20.9206 91.6897 20.6176 91.6117 20.5527C91.5338 20.4877 91.2218 20.2785 91.1225 20.228C91.1722 20.2352 91.2076 20.2424 91.2289 20.2424C91.2998 20.2424 91.7039 20.2857 91.8741 20.2785C92.0442 20.2785 92.2215 20.2641 92.5264 20.2352C92.8313 20.2064 93.0794 20.1198 93.2779 20.026C93.4765 19.925 93.5332 19.8384 93.6041 19.7446C93.675 19.6508 93.7034 19.557 93.7034 19.3333C93.7034 19.1097 93.6041 18.7128 93.5899 18.4387C93.5828 18.2727 93.6112 18.1429 93.6537 17.9841C93.7743 17.7677 93.8593 17.5801 93.8806 17.544C93.9373 17.4574 94.072 17.2266 94.2209 16.9812C94.3202 16.8225 94.462 16.6566 94.5329 16.57C94.6251 16.4473 94.8803 16.1659 94.8874 16.1443C94.8945 16.1227 95.0079 16.0216 95.0221 16.0072C95.0292 15.9928 95.1001 15.9495 95.1143 15.9134C95.1285 15.8846 95.2277 15.7908 95.2419 15.7763C95.249 15.7619 95.3766 15.6609 95.3908 15.632C95.405 15.6032 95.4972 15.5166 95.5255 15.4805C95.5539 15.4444 95.6461 15.3795 95.6886 15.3506C95.7311 15.3218 95.7737 15.2929 95.795 15.2641C95.8233 15.2352 95.8446 15.1631 95.8659 15.0981C95.8871 15.0332 95.8659 14.6291 95.8659 14.5786C95.8659 14.5281 95.8659 14.5137 95.8233 14.4704C95.7808 14.4199 95.5397 14.1169 95.4688 14.0231C95.3979 13.9293 95.3625 13.8355 95.3199 13.7345C95.2774 13.6335 95.1923 13.5758 95.0647 13.4747C94.937 13.3737 94.6605 13.2078 94.5684 13.1501C94.4762 13.0924 94.1926 12.8975 94.1784 12.8831C94.1642 12.8759 93.7034 12.4791 93.5828 12.3853C93.4623 12.2915 93.2141 12.0317 93.1149 11.9596C93.0156 11.8874 92.6256 11.6494 92.5477 11.5916C92.4697 11.5411 92.2428 11.4834 92.1719 11.4618C92.0939 11.4473 91.7394 11.3463 91.5763 11.303C91.4132 11.2597 91.0729 11.1732 91.0162 11.1587C90.9594 11.1443 90.8602 11.1515 90.8389 11.1299C90.8176 11.1082 90.7751 11.0938 90.7326 11.0938C90.69 11.0938 90.5978 11.0866 90.4915 11.0866C90.3851 11.0866 90.3851 11.1082 90.3639 11.1154C90.3426 11.1299 90.1157 11.3175 90.0874 11.3391C90.059 11.368 90.0235 11.4185 90.0023 11.4473C89.9526 11.5051 89.9172 11.5628 89.8534 11.6349C89.7967 11.6999 89.6903 11.7648 89.5485 11.8153C89.4989 11.8369 89.3783 11.8874 89.3216 11.8947C89.2649 11.9019 88.8466 11.9957 88.804 12.0029C88.7615 12.0101 88.0028 12.0967 87.7972 12.1544C87.5845 12.2121 86.9039 12.3348 86.7408 12.3492C86.5777 12.3636 85.8191 12.5079 85.5851 12.5512C85.3511 12.5945 84.6634 12.6883 84.5003 12.7388C84.3372 12.7893 84.082 12.811 83.9898 12.8182C83.9047 12.8254 83.7771 12.847 83.6353 12.8759C83.4864 12.9048 82.6923 13.0491 82.6143 13.0635C82.5363 13.0779 81.5224 13.2583 81.4161 13.2799C81.3026 13.3016 80.7921 13.4026 80.5369 13.4459C80.4376 13.4603 80.0193 13.5397 79.679 13.6046C79.6364 13.5758 79.0905 13.2655 79.0479 13.2511C79.0054 13.2367 78.9628 13.2222 78.9345 13.215C78.9061 13.2078 78.8707 13.1645 78.8281 13.1429C78.7856 13.1212 78.7218 13.0996 78.6863 13.0851C78.6509 13.0707 78.4878 13.0274 78.4098 13.0058C78.3318 12.9841 78.0199 12.8326 77.9064 12.7965C77.793 12.7677 77.6795 12.7532 77.6015 12.7532C77.5306 12.7532 77.1336 12.7749 76.9705 12.7749C76.8074 12.7749 75.9921 12.7893 75.9495 12.7893C75.907 12.7893 75.8077 12.8182 75.7935 12.8182C75.7794 12.8182 75.6872 12.8615 75.673 12.8615C75.6588 12.8615 75.5596 12.8831 75.5383 12.8831C75.4603 12.9048 75.3894 12.912 75.3752 12.9408C75.3752 12.9481 75.3681 12.9913 75.3752 13.0058C75.3894 13.0274 75.439 13.0996 75.4532 13.1212C75.4816 13.1501 75.595 13.2583 75.6588 13.3088C75.7155 13.3593 75.8857 13.482 75.9283 13.518C75.9708 13.5541 76.1551 13.7201 76.2544 13.8066C76.3537 13.8932 76.6444 14.2612 76.7507 14.4055C76.8571 14.557 76.9634 14.8167 77.013 14.8889C77.0556 14.9538 77.091 15.026 77.1194 15.0765C77.1549 15.127 77.2967 15.5166 77.3179 15.5599C77.3463 15.6032 77.3959 15.7763 77.4243 15.8701C77.4526 15.9639 77.5306 16.1082 77.5306 16.1299C77.5306 16.1515 77.6512 16.5339 77.6866 16.6061C77.7221 16.6782 77.7504 16.7287 77.7646 16.7937C77.7788 16.8658 77.9844 17.7172 78.0411 17.9697C78.0978 18.2222 78.2822 18.9798 78.3035 19.0808C78.3247 19.1818 78.3531 19.3333 78.3885 19.4127C78.424 19.4921 78.5658 19.8095 78.6296 19.9538C78.7005 20.0909 78.8352 20.4012 79.0054 20.6248C79.1826 20.8557 79.4095 20.9784 79.4521 20.9928C79.4946 21.0072 79.6931 21.1227 79.8066 21.1515C79.92 21.1804 80.0902 21.2092 80.2178 21.2525C80.3454 21.2958 80.6929 21.4257 80.7921 21.4545C80.8914 21.4834 81.097 21.5411 81.253 21.5267C81.2743 21.5267 81.4444 21.4401 81.4657 21.4185C81.487 21.3968 81.5933 21.3175 81.6004 21.2886C81.6146 21.267 81.6642 21.202 81.6997 21.1732C81.7351 21.1443 81.7422 21.1154 81.7493 21.0866C81.7564 21.0577 81.8202 20.9856 81.8273 20.9062C81.8344 20.8268 81.9124 20.7691 81.9549 20.7114C81.9762 20.6825 81.9974 20.632 82.0116 20.5671C82.1322 20.5455 82.2527 20.5238 82.3023 20.5166C82.3945 20.4877 82.6072 20.5022 82.6923 20.4949C82.7774 20.4877 82.827 20.4949 83.0184 20.4444C83.217 20.3939 83.3659 20.4012 83.6069 20.3579C83.848 20.3146 84.1387 20.2352 84.3018 20.2208C84.4577 20.2063 84.7981 20.1414 84.8832 20.1342C84.9682 20.1198 85.5425 20.0693 85.6064 20.0476C85.6631 20.0188 86.209 19.961 86.3012 19.9538C86.3934 19.9466 86.5919 19.9177 86.7833 19.8961C86.9748 19.8745 87.5349 19.7879 87.776 19.759C88.017 19.7302 88.5488 19.6797 88.6055 19.6652C88.6622 19.658 88.8607 19.6652 88.9033 19.658C88.9458 19.6508 89.1373 19.6652 89.1656 19.6652C89.194 19.6652 89.2365 19.6797 89.2933 19.6869C89.2082 19.7302 88.9742 19.8528 88.9317 19.8672C88.882 19.8817 88.6268 20.026 88.5771 20.062C88.5275 20.0981 88.4992 20.0837 88.3644 20.1775C88.2297 20.2713 88.2085 20.3218 88.1517 20.3434C88.095 20.3651 87.8752 20.4589 87.8469 20.4805C87.8185 20.5022 87.6342 20.6032 87.62 20.6176C87.6058 20.6393 87.2796 20.798 87.1024 20.899C86.9251 21 86.677 21.1587 86.5848 21.2092C86.4926 21.267 86.1098 21.4978 85.9963 21.57C85.968 21.5916 85.7411 21.7287 85.5355 21.8658C85.3086 22.0101 84.5995 22.443 84.16 22.7677C84.0961 22.8182 83.848 22.9913 83.8125 23.0202C83.7771 23.0491 83.4935 23.2294 83.4438 23.2655C83.3942 23.3088 83.1248 23.3665 82.983 23.3521C82.9475 23.3521 82.8057 23.3088 82.7136 23.2944C82.6214 23.2799 82.4583 23.2294 82.4087 23.2294C82.3591 23.2294 82.3449 23.2222 82.3236 23.2006C82.2952 23.1789 82.2314 23.1284 81.9549 22.9481C81.6784 22.7677 81.0474 22.443 80.8488 22.3492C80.6503 22.2554 80.3525 22.1472 80.154 22.1255C79.9555 22.1039 79.6861 22.039 79.5939 22.039C79.5017 22.039 79.0196 22.1111 78.9699 22.1039C78.9203 22.1039 78.5871 22.0534 78.5162 22.0462C78.4453 22.039 78.424 22.0534 78.3956 22.0678C78.3673 22.0823 78.1829 22.14 78.1262 22.1616C78.0624 22.1833 77.7433 22.3131 77.7008 22.3203C77.6512 22.3276 77.5732 22.3348 77.5519 22.3348C77.5306 22.3348 77.4952 22.3348 77.481 22.3492C77.4597 22.3636 77.4526 22.3853 77.4526 22.4069C77.4526 22.4286 77.4597 22.4791 77.4739 22.4863C77.4881 22.4935 77.5448 22.5729 77.5944 22.6234C77.6441 22.6739 77.6653 22.7532 77.715 22.811C77.7717 22.8687 77.793 22.912 77.8497 22.9408C77.9064 22.9697 78.19 23.2222 78.5587 23.5108C78.9203 23.8066 79.1614 24.2251 79.3315 24.5859C79.5088 24.9466 79.679 25.8629 79.7428 25.9423C79.8066 26.0216 80.232 26.8874 80.2816 26.9524C80.3454 27.0317 80.4801 27.1544 80.6574 27.2915C80.6007 27.2987 80.544 27.3059 80.4872 27.3131C80.4305 27.3203 79.8562 27.3853 79.764 27.3997C79.679 27.4141 79.4733 27.4502 79.3954 27.4646C79.3174 27.4791 79.2252 27.4863 79.0763 27.5007C78.9274 27.5152 77.2116 27.7532 76.8145 27.811C76.4175 27.8759 76.3608 27.8759 76.1339 27.8903C75.907 27.9048 74.6591 27.8975 74.5669 27.8975C74.4748 27.8975 74.4464 27.8687 74.3755 27.847C74.3046 27.8254 74.255 27.8254 74.1912 27.8398C74.1203 27.8543 73.943 27.8759 73.8721 27.8759C73.8012 27.8759 73.6027 27.847 73.5247 27.8254C73.4467 27.8038 73.4183 27.8038 73.3829 27.7749C73.3403 27.746 73.1985 27.71 73.1773 27.6811C73.156 27.6522 73.1205 27.6306 73.1064 27.6089C73.0922 27.5873 72.9929 27.6162 72.9929 27.6883C72.9929 27.8038 73.0284 27.8254 73.0355 27.8615C73.0355 27.8831 73.0355 27.9769 73.0567 28.013C73.0709 28.0563 73.1276 28.1429 73.1347 28.1573C73.1489 28.1717 73.2553 28.3593 73.2694 28.381C73.2836 28.4026 73.3191 28.4747 73.4041 28.5758C73.4892 28.6768 73.6381 28.9149 73.6523 28.9365C73.7232 29.0519 73.8296 29.1313 73.8366 29.1457C73.8437 29.1674 73.9855 29.2468 74.0281 29.2828C74.0706 29.3117 74.0919 29.3694 74.1061 29.3983C74.1203 29.4199 74.3471 29.6219 74.3684 29.6364C74.3897 29.6508 74.5882 29.8023 74.7087 29.8889C74.8293 29.9755 75.1058 30.1486 75.3114 30.228C75.5099 30.3074 76.2473 30.7403 76.2898 30.7547C76.3324 30.7763 76.382 30.798 76.5593 30.8701C76.7507 30.9495 77.0556 31.0072 77.1336 31.0144C77.2116 31.0144 77.5165 31.0144 77.5661 30.9856C77.6157 30.9639 77.949 30.899 78.1617 30.8341C78.3744 30.7619 79.7499 30.4228 79.8279 30.3795C79.9129 30.3362 80.1398 30.3074 80.1965 30.2929C80.2533 30.2713 80.3383 30.2496 80.4801 30.2208C80.6149 30.1919 82.3661 29.8528 82.5009 29.8384C83.1461 29.759 84.3514 29.6003 85.1739 29.5354C85.9963 29.4704 87.0386 29.4127 87.5562 29.3911C88.0737 29.3766 89.6052 29.3622 90.2079 29.3694C90.8106 29.3766 91.7677 29.456 92.2924 29.5209C92.8171 29.5859 93.6112 29.7302 94.0579 29.8023C94.5045 29.8672 95.7099 30.062 95.88 30.0909C96.0502 30.1198 96.1707 30.1198 96.3338 30.1126C96.4969 30.1053 96.5891 30.1414 96.7096 30.1558C96.8088 30.1703 97.0428 30.2136 97.1066 30.2136C97.1634 30.2136 97.1917 30.2136 97.2201 30.1847C97.2413 30.1631 97.2981 30.0981 97.3264 30.0693C97.3548 30.0476 97.4895 29.9177 97.4895 29.9105C97.4895 29.9033 97.5604 29.8384 97.5959 29.7879C97.6384 29.7374 97.7022 29.6364 97.7306 29.6003C97.7589 29.5642 97.7731 29.5281 97.7802 29.4921C97.7873 29.4488 97.7802 29.4199 97.8086 29.3911C97.8369 29.355 97.8653 29.2612 97.8936 29.1818C97.922 29.0952 97.9575 29.0303 97.9646 29.0014C97.9646 28.9798 97.9929 28.8139 97.9929 28.7922C97.9929 28.7706 97.9645 28.583 97.9575 28.5613C97.9575 28.5397 97.9575 28.4242 97.9362 28.3377L97.9149 28.3521L97.922 28.3377ZM88.563 16.974C88.5275 16.9885 87.9745 17.0534 87.8539 17.075C87.7334 17.0967 87.3647 17.1616 87.2584 17.1833C87.152 17.1977 86.8046 17.2554 86.6912 17.2771C86.5777 17.2987 86.2161 17.3492 86.1169 17.3564C86.0247 17.3636 85.6843 17.4358 85.4575 17.4791C85.2306 17.5224 84.9044 17.5873 84.7768 17.6089C84.6492 17.6234 84.2309 17.7316 84.0678 17.7605C83.9047 17.7893 83.5289 17.8615 83.3375 17.8831C83.1461 17.9048 82.827 17.9625 82.5718 18.0058C82.3165 18.0491 82.0967 18.0851 82.0258 18.0924C82.0258 18.0924 82.0116 18.0924 82.0045 18.0924C81.9833 17.8543 81.9549 17.6739 81.9336 17.5729C81.8911 17.4141 81.7918 17.1111 81.7351 16.9235C81.6926 16.7937 81.6288 16.4762 81.5862 16.3175C81.5437 16.1587 81.5011 15.9423 81.487 15.8485C81.487 15.8052 81.4657 15.7403 81.4515 15.6753C81.9195 15.5743 82.4158 15.4372 82.4867 15.43C82.593 15.4228 82.9404 15.3146 83.0043 15.3074C83.0681 15.3074 83.536 15.2208 83.5786 15.2136C83.6211 15.2136 84.3089 15.0837 84.4577 15.062C84.6066 15.0404 85.2873 14.9105 85.5071 14.8961C85.7269 14.8745 87.0598 14.6797 87.1875 14.6652C87.4711 14.6364 88.7686 14.5209 88.9104 14.5137C89.2082 14.4993 89.8959 14.4704 89.9526 14.4632C90.1015 14.4343 90.1299 14.6652 90.1299 14.7013C90.1299 14.7374 90.1228 14.9827 90.0803 15.1991C90.0377 15.4156 89.9526 15.8846 89.903 16.1082C89.8605 16.3247 89.7399 16.7215 89.7187 16.7937C89.7116 16.8297 89.6974 16.873 89.6832 16.9235C89.4351 16.9235 89.2436 16.9235 89.2436 16.9235C89.0664 16.9235 88.5984 16.9452 88.563 16.9596V16.974ZM84.8902 26.9163C84.7697 26.9235 84.1883 26.974 84.1032 26.9812C83.9827 26.9885 83.7984 27.0029 83.5644 27.0245C83.614 26.9019 83.6566 26.7648 83.6707 26.671C83.6778 26.6205 83.7416 26.4762 83.7487 26.4545C83.7558 26.4401 83.8622 26.2165 83.8834 26.1082C83.9047 26 83.8976 25.7835 83.9047 25.7691C83.9118 25.7547 83.8976 25.7114 83.8834 25.6104C83.8834 25.5382 83.8834 25.3434 83.8834 25.3146C83.8834 25.2857 83.8905 25.1919 83.8905 25.1631C83.8905 25.1342 83.9685 24.7085 83.9685 24.6941C83.9685 24.6797 84.1103 24.3838 84.1883 24.2684C84.245 24.1818 84.3514 24.0087 84.4294 23.9004C84.5783 23.6768 84.7697 23.4459 84.791 23.4242C84.8123 23.4026 84.9682 23.215 84.9895 23.1789C85.0179 23.1429 85.0817 23.0707 85.1171 23.0418C85.1526 23.013 85.4291 22.7749 85.5425 22.6883C85.6631 22.5945 86.2941 22.0678 86.3225 22.039C86.7053 21.7359 87.0031 21.5916 87.1804 21.5267C87.23 21.5123 87.4782 21.4906 87.5065 21.4906C87.6058 21.4906 87.7192 21.5339 87.7334 21.5411C87.7547 21.5483 88.0099 21.7143 88.0241 21.7792C88.0454 21.8442 88.0596 21.8658 88.0241 21.9812C87.9816 22.0967 87.6767 22.7965 87.542 23.0924C87.4144 23.3882 87.0953 24.0808 86.9251 24.4488C86.755 24.8167 86.3721 25.6825 86.3437 25.733C86.3154 25.7835 86.2657 25.8773 86.2516 25.9279C86.2232 26.0144 86.1877 26.0866 86.1523 26.1659C86.1168 26.2453 85.9254 26.6061 85.89 26.6566C85.8474 26.7287 85.8049 26.7937 85.7623 26.8658C85.5567 26.873 85.4007 26.8802 85.3157 26.8874C85.2802 26.8874 84.9824 26.9235 84.8619 26.9307H84.869L84.8902 26.9163Z" fill="black"/>
<path d="M130.756 27.2541C130.712 27.2099 130.444 26.9372 130.211 26.6572C130.008 26.4214 129.463 25.8909 129.093 25.5151C128.773 25.1909 128.091 24.6162 127.786 24.3067C127.531 24.0414 127.081 23.673 126.994 23.592C126.907 23.5109 126.289 22.9509 125.926 22.6709C125.868 22.6267 125.265 22.0741 125.091 21.9193C125.018 21.8604 124.554 21.4109 124.299 21.1678C124.241 21.1162 123.784 20.6446 123.595 20.4383C123.406 20.232 122.963 19.7678 122.752 19.5246C122.549 19.2814 122.273 18.9057 122.033 18.692C121.794 18.4783 120.82 17.1962 120.588 16.9457C120.356 16.6951 119.673 15.7372 119.622 15.6636C119.513 15.5162 119.441 15.4204 119.375 15.3246C119.47 15.3246 119.542 15.3172 119.593 15.3099C119.934 15.2804 120.813 15.2362 121.467 15.2067C122.113 15.1772 122.818 15.2288 123.232 15.2214C123.653 15.2214 124.953 15.2509 124.989 15.2436C125.026 15.2362 125.207 15.1846 125.302 15.1551C125.396 15.1257 125.607 15.0667 125.672 15.052C125.737 15.0446 125.796 15.0372 125.854 15.0446C125.912 15.0446 125.926 15.0446 125.963 15.0225C125.999 15.0078 126.071 14.9488 126.122 14.8604C126.18 14.772 126.318 14.5362 126.362 14.4625C126.406 14.3888 126.485 14.2709 126.5 14.2341C126.522 14.1972 126.522 14.1825 126.515 14.1457C126.507 14.1088 126.515 13.9467 126.515 13.8804C126.515 13.8141 126.565 13.6225 126.565 13.6004C126.558 13.4457 126.435 13.2835 126.391 13.2393C126.362 13.2099 126.282 13.0993 126.239 13.0478C126.195 12.9962 126.144 12.9372 126.071 12.8857C125.999 12.8414 125.323 12.4214 125.106 12.2741C124.88 12.1193 124.583 11.8541 124.539 11.8099C124.495 11.7657 124.459 11.7583 124.408 11.7436C124.365 11.7288 123.835 11.493 123.791 11.4709C123.747 11.4488 123.704 11.4193 123.675 11.3972C123.646 11.3751 123.537 11.2867 123.493 11.2572C123.45 11.2278 123.094 11.0951 123.021 11.0804C122.948 11.0657 122.738 11.0067 122.709 10.9993C122.68 10.9846 122.476 10.9993 122.447 10.9993C122.309 11.0214 121.736 11.3014 121.641 11.353C121.598 11.3751 121.104 11.5667 120.995 11.6183C120.944 11.6404 120.624 11.7509 120.537 11.7804C120.45 11.8099 119.949 11.9646 119.884 11.9646C119.818 11.9646 119.441 12.0751 119.273 12.1046C119.172 12.1267 118.017 12.2962 117.959 12.3036C117.923 12.3109 117.509 12.3478 117.087 12.392C117.095 11.9941 117.102 11.7436 117.102 11.7141C117.109 11.4783 117.138 11.213 117.153 11.0804C117.167 10.9478 117.218 10.4983 117.24 10.3878C117.262 10.2772 117.472 9.37829 117.48 9.34144C117.48 9.3046 117.545 9.06144 117.552 9.04671C117.567 8.98776 117.683 8.61197 117.712 8.50881C117.748 8.37618 117.799 8.02987 117.806 7.98566C117.806 7.94881 117.756 7.79408 117.756 7.75724C117.756 7.6025 117.69 7.55829 117.668 7.49934C117.647 7.44039 117.48 7.31513 117.472 7.29302C117.465 7.27092 117.421 7.2046 117.4 7.18987C117.378 7.17513 117.24 7.07197 117.218 7.0646C117.196 7.05723 117.102 6.99829 117.087 6.96881C117.073 6.93934 116.935 6.79197 116.906 6.7625C116.884 6.73302 116.615 6.5046 116.586 6.4825C116.564 6.46776 116.376 6.26145 116.332 6.24671C116.288 6.23197 115.845 5.95197 115.824 5.93723C115.809 5.9225 115.373 5.59829 115.352 5.57618C115.33 5.55408 115.105 5.45092 114.967 5.36987C114.923 5.34039 114.589 5.13408 114.56 5.12671C114.531 5.11934 114.487 5.09723 114.407 5.09723C114.328 5.09723 114.24 5.06039 114.19 5.03829C114.139 5.01618 113.71 4.99408 113.667 5.00145C113.623 5.00145 113.572 5.04566 113.521 5.03092C113.47 5.02355 113.209 5.00145 113.151 5.01618C113.093 5.03092 112.824 5.06039 112.766 5.06039C112.708 5.06039 112.403 5.11197 112.374 5.13408C112.345 5.15618 112.2 5.18566 112.17 5.18566C112.141 5.18566 112.047 5.27408 112.018 5.32566C111.982 5.37723 111.967 5.39197 111.931 5.40671C111.894 5.42145 111.873 5.43618 111.873 5.46566C111.873 5.48776 111.894 5.50987 111.931 5.5246C111.974 5.53934 112.083 5.59092 112.141 5.60566C112.2 5.62776 112.229 5.65724 112.272 5.70145C112.316 5.74566 112.454 5.87092 112.512 5.95197C112.57 6.03302 112.643 6.15092 112.686 6.27618C112.737 6.40145 112.715 6.39408 112.73 6.43092C112.744 6.46776 112.86 6.75513 112.977 7.21197C113.1 7.67618 113.165 8.22881 113.238 8.70039C113.311 9.1646 113.376 10.5941 113.391 10.8814C113.398 11.1688 113.427 12.2372 113.427 12.4141C113.427 12.4657 113.427 12.6057 113.427 12.812C112.846 12.893 111.473 13.092 111.037 13.1509C110.529 13.2172 108.561 13.5267 107.864 13.6446C107.166 13.7625 106.905 13.8067 106.665 13.8214C106.426 13.8288 105.765 13.8657 105.561 13.8657C105.358 13.8657 104.494 13.9025 104.399 13.8951C104.305 13.8878 104.174 13.9099 104.138 13.8951C104.109 13.8878 103.927 13.8288 103.891 13.8288C103.855 13.8288 103.68 13.7625 103.644 13.7404C103.6 13.7183 103.579 13.7109 103.557 13.7036C103.535 13.7036 103.484 13.6741 103.477 13.6593C103.47 13.652 103.441 13.6225 103.426 13.6078C103.411 13.6004 103.375 13.6151 103.375 13.6299C103.375 13.6446 103.375 13.7551 103.375 13.7699C103.382 13.8288 103.419 13.9393 103.426 13.9688C103.448 14.0499 103.528 14.1309 103.579 14.212C103.629 14.2857 103.651 14.3962 103.695 14.4478C103.738 14.4993 103.738 14.5067 103.855 14.6835C103.971 14.8604 104.167 15.0078 104.414 15.1846C104.661 15.3614 104.566 15.3909 104.762 15.5088C104.966 15.6267 105.155 15.8109 105.329 15.9583C105.51 16.1057 105.728 16.2825 105.801 16.3414C105.874 16.4004 106.012 16.5772 106.055 16.6141C106.099 16.6436 106.171 16.7393 106.193 16.7541C106.295 16.8278 106.426 16.8425 106.455 16.8499C106.535 16.8646 106.68 16.8793 106.709 16.8793C106.738 16.8793 106.898 16.8867 106.963 16.9088C107.028 16.9309 107.283 16.9383 107.421 16.9457C107.559 16.9457 107.82 16.9383 107.965 16.9236C108.111 16.9162 108.249 16.9088 108.416 16.8646C108.568 16.8278 108.728 16.8057 108.779 16.7836C108.83 16.7614 109.273 16.6951 109.309 16.673C109.323 16.6657 109.454 16.6362 109.599 16.5993C109.541 16.8057 109.469 17.0267 109.418 17.1888C109.323 17.4688 108.452 19.4067 108.125 20.0846C107.798 20.7551 106.302 23.3783 106.28 23.4078C106.259 23.4372 106.15 23.5699 106.121 23.6141C106.091 23.6583 106.033 23.7467 105.997 23.8057C105.953 23.8646 105.823 24.0193 105.786 24.093C105.75 24.1741 105.699 24.1962 105.685 24.233C105.677 24.2772 105.598 24.373 105.547 24.4393C105.496 24.5057 105.169 24.9551 105.126 25.0141C105.082 25.073 105.053 25.1393 105.002 25.1688C104.951 25.1909 104.697 25.4709 104.675 25.5078C104.653 25.5446 104.283 25.9351 104.254 25.9499C104.218 25.9646 103.68 26.4509 103.637 26.4878C103.593 26.5172 103.506 26.5836 103.47 26.6278C103.433 26.6793 103.077 26.952 103.048 26.9667C103.027 26.9814 103.005 27.0257 102.968 27.0551C102.939 27.0846 102.881 27.0846 102.838 27.1288C102.794 27.173 102.765 27.1804 102.729 27.1951C102.692 27.2099 102.511 27.3499 102.496 27.372C102.482 27.3941 101.995 27.6446 101.857 27.7183C101.719 27.7993 101.313 28.0278 101.269 28.0425C101.225 28.0646 101.196 28.0867 101.146 28.1014C101.066 28.1236 101.022 28.1383 101.008 28.153C100.986 28.1678 101.015 28.1972 101.051 28.2046C101.08 28.2046 101.109 28.2193 101.109 28.2414C101.109 28.2636 101.189 28.2783 101.225 28.2857C101.262 28.2857 101.603 28.3078 101.697 28.3299C101.792 28.352 102.024 28.3299 102.155 28.3151C102.286 28.3004 102.286 28.2857 102.409 28.2857C102.533 28.2857 102.765 28.2709 102.86 28.2341C102.947 28.2046 102.99 28.212 103.034 28.212C103.077 28.212 103.121 28.1972 103.252 28.1604C103.382 28.1236 103.506 28.0793 103.549 28.0572C103.6 28.0351 103.956 27.9836 104.181 27.9246C104.414 27.8657 104.966 27.652 105.075 27.6004C105.184 27.5488 105.38 27.512 105.54 27.3793C105.699 27.2541 105.714 27.2983 105.772 27.2762C105.83 27.2541 106.208 27.0699 106.818 26.6793C107.428 26.2962 108.103 25.5225 108.365 25.2646C108.619 25.0067 108.764 24.8299 108.837 24.7562C108.873 24.7193 108.931 24.6604 108.997 24.5867C109.076 24.6457 109.171 24.7046 109.193 24.7193C109.229 24.7414 109.367 24.8446 109.469 24.8814C109.57 24.9183 109.81 25.0362 109.868 25.0951C109.926 25.1541 110.086 25.2941 110.13 25.3383C110.166 25.3751 110.398 25.5962 110.413 25.6109C110.435 25.6257 110.594 25.8025 110.66 25.8688C110.718 25.9425 110.907 26.0751 110.965 26.1193C111.11 26.2299 111.321 26.2372 111.415 26.2741C111.502 26.3036 111.858 26.3404 112.076 26.3551C112.294 26.3625 112.977 26.2962 113.093 26.2814C113.115 26.2814 113.151 26.2741 113.209 26.2593C113.18 26.7162 113.158 27.0846 113.151 27.1878C113.151 27.4678 113.064 28.0499 113.049 28.153C113.042 28.2562 112.962 28.4551 112.919 28.5288C112.882 28.6025 112.875 28.6467 112.875 28.7425C112.875 28.8383 112.781 29.1551 112.744 29.2583C112.715 29.3614 112.744 29.3909 112.751 29.4351C112.759 29.472 112.94 30.2162 113.035 30.6804C113.129 31.1446 113.725 31.8225 113.928 32.0362C114.139 32.2499 114.458 32.6183 114.691 32.7951C114.923 32.972 115.039 32.9867 115.257 32.9941C115.468 33.0014 115.635 32.9867 115.824 32.8762C116.012 32.7657 116.267 32.552 116.47 32.213C116.681 31.8741 116.732 31.5941 116.761 31.4246C116.79 31.2478 116.819 29.3762 116.819 29.2362C116.819 29.0962 116.819 27.6741 116.819 27.5267C116.819 27.3867 116.782 26.8414 116.782 26.7383C116.782 26.5836 116.782 26.1341 116.797 25.5814C116.811 25.5814 116.826 25.5814 116.833 25.5814C116.877 25.5741 116.906 25.5667 117.095 25.5372C117.283 25.5151 118.496 25.3825 118.62 25.3751C118.743 25.3678 118.838 25.3309 118.961 25.3162C119.085 25.3014 119.361 25.2793 119.542 25.2793C119.724 25.2793 119.985 25.2646 120.08 25.2351C120.181 25.2057 120.298 25.1467 120.356 25.0878C120.414 25.0288 120.479 24.9404 120.537 24.8667C120.595 24.793 120.813 24.5646 120.886 24.4467C120.958 24.3288 120.937 24.2109 120.922 24.1225C120.9 24.0341 120.842 23.9236 120.682 23.7172C120.523 23.5109 119.934 23.0836 119.76 22.9362C119.586 22.7962 119.07 22.3025 118.867 22.1699C118.663 22.0372 118.351 21.9488 118.242 21.9267C118.133 21.9046 117.865 21.912 117.763 21.9193C117.661 21.9193 117.574 21.9488 117.516 21.9783C117.458 22.0078 117.131 22.2509 117.095 22.2878C117.058 22.3172 116.92 22.3836 116.884 22.3983C116.869 22.3983 116.848 22.4057 116.826 22.413V22.3909C116.797 22.2657 116.84 21.993 116.826 21.8825C116.811 21.7646 116.819 20.9393 116.84 20.8067C116.862 20.6741 116.869 20.512 116.869 20.3351C116.877 20.1509 116.891 19.8857 116.899 19.6941C116.913 19.5025 116.92 18.3014 116.92 18.2425C116.935 18.0509 116.957 17.1814 116.986 16.1351C117.087 16.3636 117.175 16.5772 117.218 16.6657C117.4 17.0414 117.85 17.933 118.068 18.3309C118.191 18.5593 118.431 19.0751 118.554 19.2741C118.78 19.6278 119.136 20.2541 119.223 20.4014C119.31 20.5488 119.651 21.1678 119.913 21.573C120.181 21.9783 120.537 22.7299 120.82 23.2014C120.951 23.4225 121.329 24.1593 121.423 24.3657C121.518 24.572 121.895 25.272 121.953 25.4267C122.019 25.5741 122.331 26.0751 122.418 26.2151C122.607 26.5172 122.956 26.9814 123.028 27.0404C123.101 27.0993 123.246 27.2688 123.275 27.2836C123.304 27.2909 123.58 27.4972 123.66 27.5414C123.74 27.5857 123.842 27.6593 123.864 27.6741C123.885 27.6814 124.176 27.7772 124.27 27.7772C124.546 27.7699 124.721 27.7036 124.757 27.6962C124.859 27.6814 125.265 27.6741 125.302 27.6667C125.498 27.6372 125.745 27.6078 125.861 27.6151C125.977 27.6225 126.137 27.6446 126.275 27.6372C126.493 27.6372 126.631 27.593 126.732 27.593C127.117 27.5783 127.234 27.6299 127.386 27.6446C127.553 27.6593 127.727 27.6741 127.887 27.6814C128.047 27.6814 128.308 27.6962 128.555 27.7404C128.802 27.7846 128.824 27.7478 128.998 27.7551C129.173 27.7551 129.398 27.7257 129.492 27.7257C129.696 27.733 129.754 27.7404 129.819 27.7478C129.957 27.7625 129.986 27.8067 130.146 27.8141C130.204 27.8141 130.436 27.792 130.495 27.7846C130.553 27.7772 130.582 27.7625 130.633 27.7625C130.749 27.7625 130.865 27.7846 130.938 27.7625C130.967 27.7625 131.025 27.6446 130.988 27.5857C130.967 27.5562 130.836 27.3499 130.741 27.2614L130.756 27.2762V27.2541ZM112.643 23.2972C112.461 23.3341 111.764 23.4814 111.473 23.5109C111.183 23.5404 110.493 23.6362 110.231 23.6214C109.97 23.6067 110.013 23.6141 109.999 23.6141H109.839C110.13 23.2309 110.398 22.8846 110.5 22.7446C110.544 22.693 110.979 22.0151 111.161 21.6172C111.342 21.2267 112.352 19.2299 112.352 19.1857C112.352 19.1414 112.505 18.9499 112.541 18.8541C112.584 18.7657 112.889 18.073 112.94 17.9699C112.998 17.8593 113.042 17.7636 113.064 17.7341C113.151 17.6088 113.18 17.4909 113.376 17.1888C113.398 17.152 113.434 17.0857 113.478 17.0046C113.478 17.6088 113.478 18.0804 113.478 18.2572C113.463 18.9204 113.449 19.6867 113.441 19.8488C113.441 19.9888 113.405 21.4478 113.412 21.7351C113.412 21.9857 113.412 22.6414 113.398 23.1278C113.165 23.1793 112.781 23.2604 112.65 23.2825H112.643V23.2972Z" fill="black"/>
</svg>
