<svg width="20" height="20" viewBox="0 0 20 20" fill="none" xmlns="http://www.w3.org/2000/svg">
<path fill-rule="evenodd" clip-rule="evenodd" d="M9.97997 0.00105261C7.26529 0.00631565 6.92477 0.0184207 5.85848 0.0694722V0.0694722C4.79429 0.119471 4.06746 0.29052 3.43274 0.538936V0.538936C2.77538 0.795246 2.2175 1.1384 1.6633 1.69523V1.69523C1.10805 2.25206 0.767533 2.81047 0.513328 3.46835V3.46835C0.267017 4.10517 0.100179 4.83253 0.0533376 5.89724V5.89724C0.00649654 6.96353 -0.00402955 7.30405 0.00123349 10.0193V10.0193C0.00597023 12.7339 0.0180752 13.075 0.0691268 14.1418V14.1418C0.120178 15.206 0.289648 15.9318 0.53859 16.5675V16.5675C0.794901 17.2249 1.13805 17.7817 1.69541 18.3364V18.3364C2.25171 18.8912 2.81012 19.2317 3.46853 19.4864V19.4864C4.10483 19.7322 4.83218 19.9001 5.8969 19.9464V19.9464C6.96266 19.9938 7.30371 20.0038 10.0179 19.9985V19.9985C12.7341 19.9938 13.0746 19.9811 14.1415 19.9306V19.9306C15.2051 19.8801 15.9314 19.7096 16.5672 19.4612V19.4612C17.2245 19.2043 17.7814 18.8617 18.3361 18.3043V18.3043C18.8903 17.748 19.2313 17.1896 19.4861 16.5312V16.5312C19.7319 15.8949 19.8992 15.1681 19.9461 14.1039V14.1039C19.9924 13.0366 20.0034 12.696 19.9982 9.98136V9.98136C19.9929 7.26563 19.9808 6.92564 19.9303 5.85935V5.85935C19.8798 4.79463 19.7092 4.06833 19.4608 3.43256V3.43256C19.204 2.7752 18.8608 2.21837 18.3045 1.66365V1.66365C17.7482 1.10945 17.1888 0.767878 16.5309 0.513673V0.513673C15.8946 0.267889 15.1672 0.0999979 14.103 0.0536831V0.0536831C13.1978 0.0136839 12.8157 0 11.0594 0V0C10.7468 0 10.3905 0.000526304 9.97997 0.00105261V0.00105261ZM5.97504 18.1469C5.00033 18.1043 4.47087 17.9422 4.11772 17.8064V17.8064C3.65088 17.6259 3.31721 17.409 2.96616 17.0606V17.0606C2.61617 16.7112 2.39881 16.3785 2.2167 15.9122V15.9122C2.07934 15.5596 1.91461 15.0312 1.86882 14.0554V14.0554C1.81882 13.0018 1.80829 12.686 1.80303 10.0155V10.0155C1.79777 7.3461 1.80777 7.03032 1.85355 5.97455V5.97455C1.89513 5.00089 2.05829 4.4709 2.19355 4.11775V4.11775C2.3746 3.65039 2.59091 3.31724 2.93985 2.96619V2.96619C3.28931 2.61568 3.62194 2.39884 4.08772 2.21674V2.21674C4.44087 2.07885 4.96928 1.91516 5.94399 1.86885V1.86885C6.99871 1.81938 7.31449 1.80832 9.98391 1.80306V1.80306C12.6538 1.7978 12.9702 1.80727 14.0254 1.85359V1.85359C14.9996 1.89569 15.5296 2.05727 15.8817 2.19411V2.19411C16.349 2.37463 16.6822 2.59041 17.0327 2.93988V2.93988C17.3832 3.28935 17.6011 3.62092 17.7832 4.0888V4.0888C17.9211 4.43985 18.0843 4.96984 18.1306 5.94403V5.94403C18.1806 6.99821 18.1921 7.31505 18.1974 9.98394V9.98394C18.2027 12.6539 18.1927 12.9702 18.1464 14.0249V14.0249C18.1037 14.9996 17.9422 15.5291 17.8058 15.8828V15.8828C17.6248 16.3491 17.409 16.6827 17.0601 17.0338V17.0338C16.7106 17.3833 16.3785 17.6011 15.9111 17.7838V17.7838C15.5596 17.9211 15.0301 18.0853 14.0559 18.1311V18.1311C13.0017 18.1811 12.6854 18.1922 10.0155 18.1969V18.1969C9.60023 18.198 9.24182 18.198 8.92866 18.198V18.198C7.22975 18.198 6.86555 18.1853 5.97504 18.1469V18.1469ZM15.3243 3.45215C14.6622 3.45373 14.1259 3.99214 14.127 4.65423V4.65423C14.1285 5.31632 14.6669 5.85262 15.329 5.85157V5.85157C15.9917 5.85052 16.528 5.31211 16.5269 4.65002V4.65002C16.5259 3.98793 15.988 3.45215 15.3264 3.45215V3.45215C15.3253 3.45215 15.3248 3.45215 15.3243 3.45215V3.45215ZM9.98987 4.86523C7.15467 4.86997 4.85998 7.17413 4.86524 10.0093V10.0093C4.87103 12.8456 7.17467 15.1392 10.0093 15.134V15.134C12.8456 15.1282 15.1403 12.8256 15.135 9.98986V9.98986C15.1292 7.15834 12.8314 4.86523 10.0004 4.86523V4.86523C9.99671 4.86523 9.99355 4.86523 9.98987 4.86523V4.86523ZM6.66602 10.0064C6.66286 8.16591 8.1523 6.67068 9.99279 6.667V6.667C11.8333 6.66384 13.3285 8.15328 13.3327 9.99377V9.99377C13.3359 11.8348 11.8459 13.33 10.0054 13.3332V13.3332C10.0033 13.3332 10.0007 13.3332 9.99858 13.3332V13.3332C8.16125 13.3332 6.66918 11.8448 6.66602 10.0064V10.0064Z" fill="white"/>
<mask id="mask0_2220_8868" style="mask-type:luminance" maskUnits="userSpaceOnUse" x="0" y="0" width="20" height="20">
<path fill-rule="evenodd" clip-rule="evenodd" d="M9.97997 0.00105261C7.26529 0.00631565 6.92477 0.0184207 5.85848 0.0694722V0.0694722C4.79429 0.119471 4.06746 0.29052 3.43274 0.538936V0.538936C2.77538 0.795246 2.2175 1.1384 1.6633 1.69523V1.69523C1.10805 2.25206 0.767533 2.81047 0.513328 3.46835V3.46835C0.267017 4.10517 0.100179 4.83253 0.0533376 5.89724V5.89724C0.00649654 6.96353 -0.00402955 7.30405 0.00123349 10.0193V10.0193C0.00597023 12.7339 0.0180752 13.075 0.0691268 14.1418V14.1418C0.120178 15.206 0.289648 15.9318 0.53859 16.5675V16.5675C0.794901 17.2249 1.13805 17.7817 1.69541 18.3364V18.3364C2.25171 18.8912 2.81012 19.2317 3.46853 19.4864V19.4864C4.10483 19.7322 4.83218 19.9001 5.8969 19.9464V19.9464C6.96266 19.9938 7.30371 20.0038 10.0179 19.9985V19.9985C12.7341 19.9938 13.0746 19.9811 14.1415 19.9306V19.9306C15.2051 19.8801 15.9314 19.7096 16.5672 19.4612V19.4612C17.2245 19.2043 17.7814 18.8617 18.3361 18.3043V18.3043C18.8903 17.748 19.2313 17.1896 19.4861 16.5312V16.5312C19.7319 15.8949 19.8992 15.1681 19.9461 14.1039V14.1039C19.9924 13.0366 20.0034 12.696 19.9982 9.98136V9.98136C19.9929 7.26563 19.9808 6.92564 19.9303 5.85935V5.85935C19.8798 4.79463 19.7092 4.06833 19.4608 3.43256V3.43256C19.204 2.7752 18.8608 2.21837 18.3045 1.66365V1.66365C17.7482 1.10945 17.1888 0.767878 16.5309 0.513673V0.513673C15.8946 0.267889 15.1672 0.0999979 14.103 0.0536831V0.0536831C13.1978 0.0136839 12.8157 0 11.0594 0V0C10.7468 0 10.3905 0.000526304 9.97997 0.00105261V0.00105261ZM5.97504 18.1469C5.00033 18.1043 4.47087 17.9422 4.11772 17.8064V17.8064C3.65088 17.6259 3.31721 17.409 2.96616 17.0606V17.0606C2.61617 16.7112 2.39881 16.3785 2.2167 15.9122V15.9122C2.07934 15.5596 1.91461 15.0312 1.86882 14.0554V14.0554C1.81882 13.0018 1.80829 12.686 1.80303 10.0155V10.0155C1.79777 7.3461 1.80777 7.03032 1.85355 5.97455V5.97455C1.89513 5.00089 2.05829 4.4709 2.19355 4.11775V4.11775C2.3746 3.65039 2.59091 3.31724 2.93985 2.96619V2.96619C3.28931 2.61568 3.62194 2.39884 4.08772 2.21674V2.21674C4.44087 2.07885 4.96928 1.91516 5.94399 1.86885V1.86885C6.99871 1.81938 7.31449 1.80832 9.98391 1.80306V1.80306C12.6538 1.7978 12.9702 1.80727 14.0254 1.85359V1.85359C14.9996 1.89569 15.5296 2.05727 15.8817 2.19411V2.19411C16.349 2.37463 16.6822 2.59041 17.0327 2.93988V2.93988C17.3832 3.28935 17.6011 3.62092 17.7832 4.0888V4.0888C17.9211 4.43985 18.0843 4.96984 18.1306 5.94403V5.94403C18.1806 6.99821 18.1921 7.31505 18.1974 9.98394V9.98394C18.2027 12.6539 18.1927 12.9702 18.1464 14.0249V14.0249C18.1037 14.9996 17.9422 15.5291 17.8058 15.8828V15.8828C17.6248 16.3491 17.409 16.6827 17.0601 17.0338V17.0338C16.7106 17.3833 16.3785 17.6011 15.9111 17.7838V17.7838C15.5596 17.9211 15.0301 18.0853 14.0559 18.1311V18.1311C13.0017 18.1811 12.6854 18.1922 10.0155 18.1969V18.1969C9.60023 18.198 9.24182 18.198 8.92866 18.198V18.198C7.22975 18.198 6.86555 18.1853 5.97504 18.1469V18.1469ZM15.3243 3.45215C14.6622 3.45373 14.1259 3.99214 14.127 4.65423V4.65423C14.1285 5.31632 14.6669 5.85262 15.329 5.85157V5.85157C15.9917 5.85052 16.528 5.31211 16.5269 4.65002V4.65002C16.5259 3.98793 15.988 3.45215 15.3264 3.45215V3.45215C15.3253 3.45215 15.3248 3.45215 15.3243 3.45215V3.45215ZM9.98987 4.86523C7.15467 4.86997 4.85998 7.17413 4.86524 10.0093V10.0093C4.87103 12.8456 7.17467 15.1392 10.0093 15.134V15.134C12.8456 15.1282 15.1403 12.8256 15.135 9.98986V9.98986C15.1292 7.15834 12.8314 4.86523 10.0004 4.86523V4.86523C9.99671 4.86523 9.99355 4.86523 9.98987 4.86523V4.86523ZM6.66602 10.0064C6.66286 8.16591 8.1523 6.67068 9.99279 6.667V6.667C11.8333 6.66384 13.3285 8.15328 13.3327 9.99377V9.99377C13.3359 11.8348 11.8459 13.33 10.0054 13.3332V13.3332C10.0033 13.3332 10.0007 13.3332 9.99858 13.3332V13.3332C8.16125 13.3332 6.66918 11.8448 6.66602 10.0064V10.0064Z" fill="white"/>
</mask>
<g mask="url(#mask0_2220_8868)">
</g>
</svg>
