<svg width="70" height="255" viewBox="0 0 70 255" fill="none" xmlns="http://www.w3.org/2000/svg">
<path d="M35 60.9469C32.6945 57.2154 29.4598 53.9807 25.3954 51.6354C21.3309 49.2902 16.9137 48.1026 12.5263 47.9735C14.6082 44.1127 15.7907 39.6955 15.7907 35C15.7907 30.3045 14.6082 25.8873 12.5263 22.0265C16.9137 21.8974 21.326 20.7148 25.3954 18.3646C29.4598 16.0193 32.6945 12.7846 35 9.05309C37.3055 12.7846 40.5402 16.0193 44.6046 18.3646C48.6691 20.7098 53.0863 21.8974 57.4737 22.0265C55.3918 25.8873 54.2093 30.3045 54.2093 35C54.2093 39.6955 55.3918 44.1127 57.4737 47.9735C53.0863 48.1026 48.674 49.2902 44.6046 51.6354C40.5402 53.9807 37.3055 57.2154 35 60.9469ZM35 5.30664C51.4019 5.30664 64.6933 18.6031 64.6933 35C64.6933 51.3969 51.3969 64.6934 35 64.6934C18.6031 64.6934 5.30664 51.3969 5.30664 35C5.30664 18.6031 18.6031 5.30664 35 5.30664ZM35 0C15.7013 0 0 15.7013 0 35C0 54.2987 15.7013 70 35 70C54.2987 70 70 54.2987 70 35C70 15.7013 54.3037 0 35 0Z" fill="black"/>
<path d="M55.6429 203.472C55.5782 203.415 55.1936 203.022 54.8624 202.629C54.5768 202.293 53.7925 201.546 53.2633 201.016C52.8102 200.562 51.8279 199.749 51.3938 199.311C51.0283 198.941 50.3887 198.418 50.263 198.3C50.1374 198.182 49.2579 197.4 48.7362 197.003C48.6563 196.942 47.7958 196.164 47.5445 195.939C47.4455 195.852 46.7754 195.222 46.4137 194.875C46.3337 194.799 45.6751 194.135 45.4047 193.842C45.1344 193.548 44.4986 192.892 44.2054 192.549C43.9122 192.209 43.5239 191.679 43.1774 191.37C42.8347 191.065 41.4412 189.261 41.1061 188.903C40.7711 188.548 39.7964 187.202 39.7202 187.099C39.5679 186.893 39.4651 186.752 39.3662 186.626C39.5032 186.618 39.6098 186.614 39.6746 186.607C40.1619 186.561 41.4184 186.508 42.3512 186.462C43.2802 186.416 44.2777 186.492 44.8793 186.485C45.4809 186.477 47.3389 186.527 47.3884 186.511C47.4379 186.496 47.6968 186.431 47.8339 186.386C47.9671 186.34 48.2717 186.26 48.3669 186.244C48.4621 186.229 48.5421 186.225 48.622 186.229C48.702 186.233 48.7286 186.225 48.7781 186.202C48.8276 186.183 48.9304 186.099 49.0104 185.974C49.0903 185.848 49.2921 185.52 49.3569 185.417C49.4216 185.314 49.5282 185.142 49.5586 185.093C49.5891 185.043 49.5891 185.024 49.5777 184.971C49.5663 184.917 49.5777 184.688 49.5815 184.601C49.5815 184.513 49.6576 184.238 49.6538 184.204C49.6386 183.983 49.4711 183.762 49.4025 183.689C49.3645 183.651 49.2464 183.495 49.1855 183.418C49.1246 183.342 49.0522 183.262 48.9456 183.193C48.839 183.128 47.8796 182.541 47.5597 182.328C47.2399 182.114 46.8135 181.736 46.7526 181.675C46.6916 181.614 46.6345 181.599 46.5698 181.58C46.5051 181.561 45.7512 181.225 45.6903 181.199C45.6294 181.172 45.5646 181.126 45.5228 181.096C45.4809 181.065 45.3248 180.943 45.2677 180.901C45.2106 180.859 44.6966 180.676 44.5938 180.649C44.491 180.623 44.1864 180.55 44.1483 180.531C44.1064 180.512 43.817 180.524 43.7752 180.531C43.5772 180.565 42.7624 180.962 42.6215 181.027C42.5606 181.054 41.8562 181.332 41.6963 181.405C41.6278 181.435 41.1671 181.588 41.0452 181.63C40.9234 181.672 40.2038 181.885 40.1086 181.885C40.0134 181.885 39.4804 182.041 39.2367 182.083C39.092 182.11 37.4396 182.35 37.3596 182.369C37.3101 182.381 36.7162 182.434 36.1146 182.491C36.1298 181.935 36.1374 181.572 36.1374 181.538C36.1489 181.21 36.1869 180.829 36.206 180.646C36.225 180.462 36.3012 179.826 36.3316 179.673C36.3621 179.52 36.6667 178.25 36.6743 178.201C36.6819 178.151 36.7695 177.808 36.7771 177.781C36.7999 177.697 36.9599 177.171 37.0017 177.022C37.055 176.839 37.1274 176.343 37.135 176.286C37.1426 176.229 37.0588 176.012 37.0588 175.966C37.055 175.752 36.9675 175.687 36.9332 175.607C36.8989 175.527 36.6667 175.344 36.6515 175.318C36.6362 175.291 36.5753 175.192 36.5448 175.173C36.5144 175.154 36.3126 175.009 36.2821 174.993C36.2517 174.978 36.1146 174.898 36.0918 174.86C36.0689 174.822 35.8709 174.612 35.8367 174.566C35.8024 174.52 35.4255 174.208 35.376 174.17C35.3493 174.15 35.079 173.861 35.0143 173.834C34.9495 173.807 34.3137 173.422 34.2908 173.395C34.268 173.369 33.6474 172.915 33.6169 172.888C33.5865 172.861 33.2666 172.713 33.0687 172.598C33.0077 172.56 32.528 172.266 32.4823 172.251C32.4366 172.236 32.3757 172.205 32.2691 172.205C32.1625 172.205 32.0254 172.152 31.9569 172.121C31.8884 172.091 31.2716 172.06 31.2106 172.068C31.1497 172.076 31.0736 172.129 31.005 172.114C30.9365 172.099 30.5634 172.068 30.4796 172.091C30.3958 172.114 30.0151 172.152 29.9313 172.152C29.8476 172.152 29.4135 172.224 29.3716 172.255C29.3298 172.285 29.1204 172.331 29.0823 172.331C29.0442 172.331 28.9109 172.453 28.8614 172.53C28.812 172.606 28.7929 172.621 28.7358 172.64C28.6825 172.659 28.6482 172.682 28.652 172.728C28.652 172.758 28.6787 172.789 28.7358 172.808C28.7967 172.827 28.949 172.896 29.0366 172.926C29.1204 172.957 29.166 172.999 29.227 173.06C29.2879 173.121 29.4821 173.3 29.5658 173.411C29.6458 173.521 29.7486 173.693 29.8171 173.864C29.8895 174.04 29.8552 174.036 29.878 174.086C29.8971 174.135 30.0646 174.539 30.2359 175.188C30.4073 175.84 30.5101 176.622 30.6129 177.286C30.7157 177.945 30.8147 179.959 30.8299 180.363C30.8451 180.771 30.8794 182.278 30.8794 182.526C30.8794 182.594 30.8794 182.797 30.8832 183.09C30.057 183.209 28.0885 183.487 27.4679 183.563C26.7369 183.655 23.9232 184.093 22.9257 184.257C21.9281 184.421 21.555 184.49 21.2085 184.501C20.862 184.513 19.9178 184.562 19.6322 184.562C19.3467 184.562 18.1093 184.612 17.976 184.604C17.8427 184.593 17.6524 184.623 17.6067 184.612C17.561 184.601 17.3021 184.524 17.2526 184.517C17.2031 184.509 16.9556 184.421 16.8947 184.387C16.8338 184.353 16.7995 184.345 16.7652 184.337C16.731 184.33 16.6663 184.299 16.6472 184.28C16.632 184.265 16.5901 184.223 16.5711 184.208C16.552 184.193 16.4987 184.223 16.4949 184.242C16.4949 184.261 16.4873 184.418 16.4911 184.444C16.5063 184.528 16.5482 184.685 16.5596 184.726C16.5901 184.837 16.7081 184.959 16.7805 185.066C16.8528 185.173 16.8871 185.325 16.948 185.402C17.0089 185.478 17.0089 185.489 17.1803 185.73C17.3516 185.97 17.6257 186.187 17.976 186.439C18.3263 186.691 18.1892 186.729 18.4748 186.9C18.7603 187.072 19.0307 187.328 19.2896 187.533C19.5485 187.739 19.8569 187.991 19.9635 188.075C20.0701 188.159 20.2643 188.411 20.3252 188.456C20.3861 188.502 20.4927 188.636 20.5232 188.659C20.6641 188.758 20.8506 188.788 20.8963 188.796C21.0143 188.815 21.2161 188.834 21.2618 188.838C21.3075 188.838 21.5321 188.849 21.6235 188.876C21.7149 188.903 22.0804 188.922 22.2784 188.926C22.4764 188.926 22.8495 188.91 23.0551 188.899C23.2607 188.887 23.4625 188.876 23.6948 188.819C23.9156 188.765 24.1364 188.735 24.2126 188.704C24.2887 188.674 24.9208 188.579 24.9664 188.552C24.9893 188.54 25.1759 188.498 25.3853 188.453C25.2977 188.739 25.2025 189.055 25.1226 189.28C24.9855 189.677 23.7405 192.411 23.2759 193.361C22.8114 194.307 20.6679 198.007 20.6412 198.048C20.6146 198.09 20.4584 198.281 20.4166 198.342C20.3747 198.407 20.2947 198.529 20.2414 198.613C20.1843 198.697 19.9939 198.91 19.9406 199.021C19.8873 199.132 19.8112 199.166 19.7998 199.223C19.7883 199.28 19.6741 199.425 19.6056 199.517C19.5332 199.608 19.0611 200.241 19.0002 200.322C18.9393 200.402 18.8936 200.501 18.8251 200.535C18.7565 200.569 18.3872 200.966 18.3567 201.012C18.3225 201.061 17.8009 201.618 17.7514 201.641C17.7019 201.664 16.929 202.351 16.8642 202.396C16.7995 202.442 16.6815 202.53 16.6282 202.598C16.5749 202.667 16.0647 203.052 16.0304 203.079C15.9961 203.106 15.9657 203.167 15.92 203.201C15.8743 203.239 15.7982 203.243 15.7372 203.304C15.6763 203.365 15.6382 203.373 15.5849 203.399C15.5354 203.426 15.2727 203.617 15.2537 203.647C15.2347 203.678 14.5417 204.029 14.3399 204.139C14.1381 204.25 13.5632 204.574 13.4985 204.597C13.4337 204.624 13.3995 204.654 13.3195 204.677C13.2091 204.711 13.1482 204.727 13.1177 204.75C13.0873 204.772 13.133 204.811 13.1786 204.818C13.2243 204.826 13.2624 204.845 13.2624 204.875C13.2624 204.906 13.3728 204.929 13.4261 204.933C13.4794 204.94 13.9668 204.963 14.1038 204.994C14.2409 205.02 14.576 204.986 14.7587 204.971C14.9415 204.952 14.9453 204.929 15.1204 204.925C15.2956 204.921 15.6344 204.898 15.7639 204.849C15.8933 204.803 15.9543 204.818 16.0152 204.818C16.0761 204.818 16.1408 204.799 16.3312 204.75C16.5216 204.7 16.6929 204.639 16.7614 204.605C16.83 204.57 17.3402 204.505 17.6676 204.418C17.995 204.33 18.7908 204.036 18.9431 203.964C19.0954 203.891 19.3771 203.834 19.6094 203.655C19.8416 203.476 19.8569 203.544 19.9406 203.514C20.0244 203.483 20.5651 203.22 21.4408 202.675C22.3165 202.129 23.2836 201.039 23.6529 200.676C24.0184 200.318 24.2202 200.066 24.3268 199.963C24.3801 199.913 24.4601 199.83 24.5514 199.723C24.6695 199.807 24.7989 199.891 24.8294 199.906C24.8827 199.933 25.0807 200.081 25.2254 200.131C25.37 200.18 25.7089 200.348 25.7965 200.428C25.884 200.508 26.1125 200.711 26.1658 200.768C26.2191 200.825 26.5465 201.13 26.5732 201.153C26.5998 201.176 26.8359 201.424 26.9235 201.523C27.0072 201.622 27.2814 201.817 27.3613 201.874C27.5707 202.034 27.8753 202.042 28.0048 202.087C28.1342 202.133 28.6368 202.187 28.949 202.202C29.2612 202.217 30.2359 202.118 30.4035 202.095C30.4339 202.091 30.491 202.08 30.5672 202.068C30.5253 202.713 30.491 203.228 30.4872 203.377C30.4796 203.773 30.3578 204.597 30.3425 204.742C30.3273 204.887 30.2131 205.169 30.1598 205.276C30.1065 205.383 30.0989 205.444 30.0989 205.573C30.0989 205.703 29.9618 206.153 29.9161 206.298C29.8704 206.443 29.9161 206.489 29.9313 206.542C29.9466 206.595 30.1979 207.64 30.3349 208.296C30.472 208.952 31.3172 209.906 31.6142 210.211C31.9112 210.516 32.3681 211.027 32.7031 211.279C33.0382 211.531 33.2057 211.546 33.5103 211.561C33.8149 211.576 34.051 211.546 34.3175 211.393C34.584 211.241 34.9495 210.936 35.2465 210.455C35.5435 209.975 35.6196 209.586 35.6577 209.341C35.6958 209.097 35.7415 206.447 35.7415 206.256C35.7415 206.065 35.7415 204.052 35.7377 203.846C35.7339 203.643 35.6806 202.885 35.6806 202.736C35.6806 202.518 35.6882 201.885 35.6996 201.103C35.7224 201.1 35.7377 201.096 35.7491 201.096C35.8138 201.084 35.8519 201.077 36.1184 201.039C36.3887 201.004 38.1249 200.821 38.2963 200.81C38.4676 200.798 38.6047 200.745 38.7836 200.722C38.9626 200.703 39.3585 200.672 39.6098 200.665C39.8649 200.661 40.2381 200.646 40.3827 200.6C40.5236 200.554 40.6911 200.478 40.7787 200.39C40.8663 200.302 40.9577 200.18 41.0414 200.074C41.129 199.967 41.4374 199.646 41.5402 199.479C41.643 199.311 41.6163 199.147 41.5897 199.025C41.563 198.903 41.4793 198.739 41.2432 198.449C41.011 198.159 40.1695 197.553 39.922 197.351C39.6745 197.148 38.9359 196.454 38.6427 196.271C38.3496 196.088 37.9079 195.962 37.7518 195.932C37.5919 195.897 37.215 195.913 37.0703 195.92C36.9256 195.928 36.7999 195.966 36.7124 196.004C36.6248 196.046 36.1641 196.393 36.1108 196.435C36.0575 196.477 35.8633 196.569 35.81 196.588C35.791 196.595 35.7605 196.603 35.7262 196.611C35.7262 196.599 35.7262 196.588 35.7262 196.584C35.6882 196.408 35.7453 196.019 35.7224 195.867C35.6996 195.699 35.711 194.54 35.7453 194.349C35.7795 194.158 35.7834 193.933 35.791 193.678C35.8024 193.422 35.8176 193.041 35.8367 192.77C35.8557 192.499 35.8671 190.81 35.8709 190.722C35.89 190.455 35.9242 189.227 35.9661 187.751C36.1146 188.075 36.2402 188.373 36.3012 188.495C36.5601 189.029 37.1997 190.28 37.5195 190.848C37.6985 191.168 38.0412 191.897 38.2201 192.175C38.5399 192.678 39.0501 193.556 39.1796 193.762C39.309 193.968 39.7888 194.841 40.1695 195.413C40.5503 195.985 41.0643 197.045 41.4717 197.713C41.6582 198.022 42.1951 199.067 42.3321 199.36C42.4692 199.654 43.0022 200.642 43.0936 200.856C43.185 201.065 43.6343 201.775 43.7599 201.969C44.0303 202.393 44.5328 203.049 44.628 203.136C44.727 203.224 44.944 203.46 44.9783 203.476C45.0164 203.491 45.4123 203.773 45.5266 203.834C45.6408 203.895 45.7817 204.002 45.8159 204.017C45.8502 204.033 46.2652 204.166 46.3985 204.162C46.7944 204.147 47.0419 204.055 47.0914 204.048C47.2361 204.029 47.8186 204.013 47.8719 204.006C48.1499 203.968 48.504 203.922 48.6677 203.937C48.8352 203.952 49.0637 203.975 49.2579 203.971C49.5663 203.968 49.768 203.914 49.9127 203.91C50.4648 203.891 50.6247 203.96 50.8494 203.979C51.0854 203.998 51.3329 204.025 51.5652 204.033C51.7974 204.04 52.1667 204.055 52.517 204.12C52.8673 204.185 52.8978 204.135 53.149 204.143C53.4003 204.151 53.7202 204.097 53.8534 204.101C54.1466 204.113 54.2304 204.124 54.3179 204.135C54.5197 204.155 54.5616 204.216 54.7824 204.227C54.87 204.227 55.1974 204.193 55.2774 204.181C55.3574 204.17 55.4068 204.147 55.4754 204.151C55.6429 204.158 55.8028 204.177 55.9132 204.158C55.9589 204.151 56.0351 203.987 55.9818 203.907C55.9551 203.865 55.7648 203.575 55.6239 203.445L55.6429 203.472ZM29.7524 197.881C29.4935 197.93 28.4921 198.144 28.0771 198.186C27.6621 198.228 26.676 198.365 26.299 198.342C25.9221 198.323 25.9868 198.331 25.964 198.327L25.7317 198.315C26.1506 197.785 26.5351 197.293 26.6798 197.106C26.7369 197.03 27.3651 196.073 27.6202 195.516C27.8753 194.959 29.3221 192.148 29.326 192.087C29.3298 192.026 29.5392 191.752 29.6001 191.622C29.661 191.492 30.0951 190.52 30.175 190.371C30.2588 190.218 30.3235 190.077 30.354 190.039C30.4796 189.864 30.5177 189.7 30.7994 189.273C30.8337 189.219 30.8832 189.132 30.9403 189.017C30.9403 189.868 30.9441 190.531 30.9403 190.783C30.9213 191.721 30.8984 192.797 30.8908 193.033C30.8832 193.235 30.8413 195.287 30.8489 195.691C30.8565 196.046 30.8413 196.965 30.8299 197.656C30.4986 197.724 29.9466 197.843 29.7638 197.877L29.7524 197.881ZM50.8265 223.499C50.8113 223.331 50.758 223.308 50.7504 223.278C50.7428 223.243 50.678 222.98 50.5714 222.858C50.5181 222.797 50.4153 222.728 50.3392 222.656C50.2744 222.591 50.0955 222.438 50.0764 222.412C49.9965 222.301 49.867 222.004 49.7033 221.924C49.6538 221.901 49.4863 221.851 49.2959 221.752C49.0637 221.63 48.6639 221.401 48.5382 221.29C48.4126 221.18 48.0052 220.97 47.9481 220.94C47.891 220.909 47.4036 220.73 47.3503 220.711C47.297 220.692 46.9772 220.451 46.7754 220.371C46.5203 220.272 46.3604 220.223 46.1396 220.238C45.934 220.253 45.557 220.478 45.519 220.501C45.2372 220.65 44.9098 220.768 44.807 220.795C44.7042 220.825 44.1787 220.978 43.9731 221.016C43.9351 221.024 42.9642 221.172 42.454 221.229C42.0885 221.271 40.7635 221.42 40.1886 221.481C39.8345 221.519 38.757 221.554 37.333 221.634C37.352 221.535 37.3749 221.413 37.3939 221.344C37.4167 221.249 37.5462 220.612 37.5576 220.558C37.6185 220.28 37.9003 219.879 37.9231 219.849C37.946 219.818 38.0564 219.65 38.0792 219.605C38.1021 219.559 38.3115 219.323 38.361 219.132C38.4105 218.941 38.4295 218.667 38.4105 218.438C38.3914 218.209 38.1363 217.763 38.0907 217.663C38.045 217.564 37.946 217.358 37.9117 217.282C37.8774 217.206 37.8279 217.171 37.7594 217.129C37.6909 217.088 37.2188 216.794 37.0322 216.718C36.8456 216.641 35.6234 216.126 35.5168 216.073C35.4102 216.02 34.5117 215.531 34.0053 215.314C33.4989 215.097 32.7146 214.998 32.5585 214.982C32.4024 214.967 31.9302 215.017 31.8655 215.043C31.8008 215.07 31.4848 215.085 31.3134 215.127C31.1345 215.173 31.0774 215.242 30.769 215.276C30.7309 215.28 29.8209 215.367 29.7486 215.387C29.6762 215.406 29.5849 215.436 29.5506 215.44C29.2727 215.467 28.8081 215.44 28.7548 215.444C28.7092 215.448 28.4883 215.577 28.4388 215.596C28.3893 215.615 28.3056 215.638 28.2827 215.65C28.2599 215.661 28.218 215.711 28.1951 215.737C28.1723 215.764 28.1114 215.776 28.0962 215.821C28.0733 215.882 28.119 215.959 28.1647 215.997C28.1799 216.012 28.3665 216.153 28.3817 216.187C28.3969 216.222 28.8043 216.618 29.0252 216.782C29.246 216.946 29.5011 217.164 29.9694 217.728C30.4339 218.293 30.8109 219.261 30.8756 219.57C30.9403 219.879 30.9175 220.36 30.967 220.73C31.0165 221.1 31.0583 221.405 31.1573 221.641C31.2068 221.763 31.2525 221.927 31.283 222.171C29.859 222.32 28.4312 222.465 28.0581 222.496C27.9362 222.507 26.0173 222.747 25.5376 222.801C25.0616 222.854 22.2822 223.129 21.871 223.167C21.4598 223.205 20.032 223.491 19.8226 223.506C19.6132 223.522 18.5928 223.544 18.4748 223.529C18.4024 223.518 18.2006 223.464 18.1016 223.438C18.0027 223.411 17.6943 223.331 17.6524 223.319C17.6143 223.308 17.5153 223.35 17.5077 223.384C17.5001 223.411 17.542 223.586 17.5762 223.697C17.6333 223.869 17.9608 224.487 17.9912 224.544C18.1968 224.933 18.7451 225.39 19.2705 225.779C19.4799 225.936 19.7579 226.127 19.8074 226.18C19.9825 226.382 20.211 226.39 20.3556 226.699C20.4623 226.927 20.8278 227.275 21.0372 227.461C21.0296 227.591 21.0258 227.717 21.0258 227.831C21.0258 228.472 20.9344 229.509 20.7821 230.49C20.6298 231.466 20.1424 233.407 19.7312 234.902C19.32 236.397 18.2578 239.544 18.1359 239.876C18.0141 240.207 17.3287 241.874 17.1993 242.206C17.0698 242.538 16.5596 244.136 16.4645 244.365C16.3693 244.593 15.8743 245.413 15.6535 245.841C15.4326 246.268 14.6978 247.572 14.4351 248.022C14.1724 248.476 13.5365 249.46 13.3424 249.708C12.9388 250.227 12.5809 250.585 12.1887 250.925C11.7737 251.283 11.3777 251.573 11.3549 251.603C11.332 251.634 11.0617 251.775 11.0236 251.802C10.9856 251.828 10.9894 251.893 11.0655 251.901C11.096 251.901 11.2825 251.909 11.3054 251.935C11.3282 251.962 11.5567 251.954 11.6328 251.935C11.709 251.916 11.8879 251.897 12.0478 251.893C12.2001 251.893 12.4705 251.859 12.7141 251.771C12.9769 251.672 13.171 251.687 13.2586 251.645C13.3462 251.603 13.8373 251.47 13.8944 251.439C13.9515 251.409 14.4046 251.264 14.5303 251.222C14.9757 251.073 15.5316 250.757 15.6002 250.707C15.6687 250.658 16.3122 250.326 16.3997 250.269C16.6282 250.112 17.1155 249.75 17.2374 249.681C17.363 249.613 17.858 249.216 18.0788 249.014C18.1473 248.953 18.7337 248.396 18.806 248.312C18.8784 248.228 19.2363 247.839 19.2591 247.812C19.2858 247.786 19.6322 247.351 19.7008 247.252C19.7693 247.153 20.1843 246.584 20.2985 246.455C20.409 246.325 21.0714 245.52 21.5398 244.902C21.8634 244.479 22.2023 243.823 22.366 243.484C22.5107 243.186 22.8952 242.507 23.116 242.095C23.4244 242.385 23.7176 242.709 24.0108 243.045C24.342 243.426 24.4372 243.331 24.7037 243.979C24.9703 244.628 25.0464 245.23 25.2482 245.978C25.45 246.729 25.9145 249.708 26.162 251.043C26.4133 252.378 26.9844 252.988 27.1595 253.182C27.3347 253.377 27.4641 253.571 27.586 253.674C27.7078 253.777 28.2865 254.258 28.5188 254.407C28.751 254.555 28.9528 254.674 29.0823 254.693C29.2117 254.712 29.8019 255.108 30.3007 254.971C30.7994 254.834 31.0507 254.304 31.2716 253.758C31.3096 253.667 31.3477 253.568 31.382 253.461C31.5609 253.461 31.7589 253.453 31.9797 253.453C32.547 253.453 33.5217 253.366 34.1538 253.339C34.7858 253.316 36.9675 253.194 37.3139 253.186C37.6642 253.179 39.9563 253.118 40.4817 253.125C40.5959 253.125 41.0338 253.137 41.0338 253.137C41.1328 253.148 41.2432 253.156 41.4031 253.19C41.563 253.224 42.0466 253.358 42.1456 253.346C42.2408 253.339 42.6253 253.247 42.751 253.228C42.8766 253.209 43.1203 253.224 43.2802 253.201C43.4401 253.179 43.6609 253.06 43.7637 252.969C43.8665 252.877 44.6318 252.385 44.727 252.294C44.8222 252.202 44.8793 252.027 44.9326 251.787C44.9821 251.546 44.9478 251.081 44.9174 250.917C44.8869 250.768 44.7118 250.543 44.6623 250.463C44.6623 250.455 44.6547 250.448 44.6509 250.44C44.6509 250.433 44.6432 250.429 44.6356 250.425C44.6014 250.394 44.5443 250.349 44.4643 250.303C44.5252 250.169 44.727 249.876 44.7308 249.845C44.7346 249.811 45.0126 249.235 45.0925 249.117C45.1725 248.999 45.5075 248.442 45.5456 248.396C45.8578 247.988 46.4442 247.198 46.6345 247.034C46.7221 246.958 47.0153 246.718 47.2323 246.653C47.3161 246.63 47.4303 246.577 47.6283 246.462C47.8263 246.348 47.9786 246.161 48.207 245.856C48.4354 245.551 48.3669 245.105 48.3441 244.906C48.3212 244.708 48.1918 244.323 48.1499 244.193C48.108 244.063 48.0699 243.976 48.028 243.789C47.9862 243.602 47.9557 243.339 47.8872 243.274C47.8186 243.209 47.6397 242.828 47.4417 242.664C47.3846 242.618 46.9239 242.156 46.7906 242.008C46.6764 241.878 46.2233 241.409 45.9759 241.153C45.934 241.111 45.6179 240.604 45.3705 240.41C45.2791 240.337 45.0925 240.204 45.0583 240.162C45.024 240.12 44.43 239.773 44.3805 239.746C44.1331 239.601 43.9617 239.38 43.7295 239.315C43.6457 239.292 43.3335 239.178 43.2878 239.155C43.2459 239.132 43.1165 239.025 42.9832 238.937C42.8461 238.85 42.7167 238.834 42.6253 238.831C42.5339 238.827 42.3626 238.854 42.2712 238.892C42.1798 238.93 41.8029 238.998 41.6011 239.063C41.3993 239.128 41.2965 239.109 41.0148 239.433C40.8853 239.582 40.0667 239.807 39.6898 239.868C39.5032 239.899 38.0107 240.135 36.4154 240.383C36.4192 240.36 36.423 240.337 36.4306 240.318C36.4725 240.185 36.5068 240.116 36.4877 240.036C36.4725 239.952 36.5144 239.643 36.5144 239.609C36.5144 239.574 36.5829 239.166 36.6058 238.983C36.6324 238.8 36.7543 238.022 36.7657 237.915C36.7733 237.809 36.8494 237.156 36.8723 237.031C36.8875 236.947 37.0246 235.707 37.116 234.811C37.116 234.811 37.1236 234.811 37.1274 234.811C37.4472 234.876 37.7023 234.963 37.8774 235.005C38.0564 235.047 38.5057 235.173 38.6351 235.207C38.7608 235.242 39.408 235.402 39.6822 235.417C39.9563 235.432 40.6226 235.528 40.7444 235.52C40.8663 235.513 41.2432 235.417 41.4564 235.398C41.6696 235.379 42.2293 235.291 42.3245 235.28C42.4197 235.268 42.8423 235.124 43.1012 235.085C43.3601 235.051 44.1292 234.937 44.3006 234.902C44.4719 234.868 44.7765 234.765 45.0773 234.685C45.3781 234.605 46.1053 234.284 46.2348 234.227C46.368 234.17 46.3832 234.071 46.3985 233.972C46.4137 233.876 46.5203 233.468 46.566 233.297C46.6117 233.125 46.5812 233.049 46.5355 232.85C46.4899 232.652 46.3223 232.397 46.2652 232.313C46.2081 232.225 45.9492 232.004 45.7817 231.882C45.6141 231.76 45.1382 231.405 45.0506 231.348C44.9631 231.291 44.7955 231.13 44.7118 231.077C44.6242 231.027 44.5404 230.997 44.4415 230.955C44.3463 230.913 43.4211 230.6 43.1203 230.501C42.8195 230.406 42.2979 230.242 42.1608 230.223C42.0237 230.204 41.9095 230.226 41.7801 230.238C41.6278 230.249 41.426 230.246 41.327 230.23C41.1823 230.204 40.9386 230.204 40.8815 230.223C40.8244 230.242 40.6112 230.23 40.3028 230.413C40.1238 230.52 39.9525 230.741 39.823 230.848C39.6593 230.982 39.4233 231.031 39.3205 231.073C39.2177 231.115 38.0183 231.561 37.5538 231.573C37.4853 231.573 37.4244 231.573 37.3596 231.573C37.3787 231.317 37.3939 231.119 37.4015 231.05C37.4282 230.768 37.5119 229.712 37.5462 229.502C37.5805 229.292 37.6262 229.021 37.6376 228.842C37.649 228.663 37.6185 228.59 37.5538 228.484C37.4891 228.377 37.333 228.19 37.1007 227.946C36.8685 227.702 36.404 227.385 36.1946 227.278C35.9852 227.172 36.0461 227.301 35.6539 227.027C35.2617 226.752 34.6487 226.557 34.1538 226.348C33.9215 226.249 33.6664 226.127 33.4151 225.993C33.5789 225.974 33.6855 225.963 33.7083 225.959C34.3213 225.879 34.9305 225.829 35.0105 225.821C35.2655 225.795 35.5739 225.772 35.8785 225.73C36.0803 225.703 36.4915 225.68 36.7695 225.646C37.0398 225.612 37.5995 225.562 37.9764 225.532C38.3534 225.497 39.5413 225.493 39.6822 225.486C40.2381 225.455 41.624 225.429 41.8943 225.425C42.1646 225.421 43.9122 225.413 44.0797 225.413C44.5328 225.413 45.2715 225.451 45.6256 225.436C45.9797 225.425 46.3985 225.509 46.7678 225.547C47.1371 225.585 47.7044 225.657 47.8681 225.657C48.0319 225.657 48.1689 225.608 48.2527 225.608C48.3364 225.608 48.7362 225.512 48.8162 225.49C48.8961 225.467 49.5777 225.15 49.5967 225.143C49.6805 225.104 50.0041 224.921 50.0993 224.868C50.1945 224.815 50.4648 224.651 50.5333 224.601C50.6019 224.551 50.6895 224.456 50.7123 224.403C50.7351 224.349 50.8151 224.2 50.8379 224.098C50.876 223.934 50.8303 223.655 50.8189 223.522L50.8265 223.499ZM26.1391 241.195C25.9983 241.169 25.8079 241.157 25.5794 241.119C25.351 241.081 25.1835 241.054 24.9284 241.081C24.6733 241.108 24.5438 241.054 24.4448 241.054C24.3535 241.054 23.9422 241.054 23.611 241.027C23.7747 240.65 23.9232 240.299 23.9461 240.238C23.9956 240.116 24.5476 238.362 24.5705 238.312C24.5933 238.262 24.8446 237.473 24.8903 237.355C24.9398 237.236 25.252 236.13 25.2939 235.982C25.3358 235.833 25.9107 233.648 25.9335 233.514C25.9564 233.381 26.181 232.694 26.261 232.378C26.3371 232.061 26.7636 230.005 26.7864 229.845C26.8054 229.685 26.794 229.651 26.7521 229.559C26.7103 229.468 26.36 228.712 26.3181 228.663C26.2762 228.613 26.0325 228.335 25.9754 228.278C25.9183 228.22 25.1873 227.408 25.054 227.271C25.0388 227.255 25.0121 227.233 24.9817 227.206C25.1911 227.152 25.7394 226.996 25.8726 226.962C26.0135 226.924 27.0643 226.752 27.1824 226.721C27.289 226.695 29.4783 226.439 30.3616 226.332C30.8413 226.912 31.1764 227.522 31.2982 228.018C31.4239 228.537 31.4238 229.921 31.481 230.833C31.5381 231.744 31.7323 235.76 31.7818 236.222C31.8312 236.68 31.9074 238.201 31.9226 238.495C31.9379 238.789 31.9379 239.223 31.9379 239.258C31.9493 239.49 31.9645 239.78 32.014 240.005C32.0635 240.23 32.0825 240.524 32.1396 240.589C32.1968 240.658 32.2881 240.814 32.4062 240.997C31.3211 241.161 28.9909 241.42 28.5454 241.519C28.3018 241.573 27.7725 241.615 27.3271 241.638C27.1633 241.554 27.0187 241.481 26.8816 241.409C26.6608 241.291 26.2838 241.218 26.1429 241.191L26.1391 241.195ZM38.8369 243.465C39.172 243.43 39.9639 243.415 40.0325 243.411C40.101 243.407 40.2533 243.43 40.3104 243.465C40.3675 243.499 40.4056 243.537 40.4094 243.64C40.4132 243.743 40.2952 244.719 40.2952 244.868C40.2952 245.017 40.2228 245.249 40.0591 245.982C39.8954 246.714 39.785 247.385 39.6822 247.793C39.5794 248.201 39.2367 249.349 39.1339 249.727C39.1339 249.735 39.1339 249.742 39.1301 249.746C38.894 249.769 38.6618 249.788 38.5209 249.811C38.3115 249.845 37.668 249.868 37.4739 249.876C37.2797 249.883 36.2859 249.975 35.9014 249.994C35.7377 250.002 35.1323 250.082 34.8543 250.108C34.5802 250.131 32.8669 250.295 32.5927 250.303C32.4861 250.303 32.1435 250.326 31.7475 250.349C31.7246 250.101 31.7018 249.91 31.6828 249.849C31.6371 249.7 31.618 249.681 31.5723 249.533C31.5267 249.384 31.4695 249.052 31.4695 248.987C31.4695 248.922 31.2754 248.312 31.2106 248.125C31.1459 247.938 30.906 247.282 30.887 247.191C30.868 247.099 30.8413 246.699 30.8032 246.542C30.7652 246.386 30.5367 245.7 30.3882 245.097C30.3463 244.925 30.2474 244.7 30.1141 244.449C30.2435 244.449 30.373 244.449 30.5101 244.429C30.9593 244.372 32.0483 244.201 32.6042 244.117C32.7298 244.098 33.5979 244.006 33.8492 243.979C34.4774 243.915 36.9979 243.552 37.3863 243.548C37.7708 243.545 38.5095 243.503 38.8445 243.465H38.8369ZM53.1757 102.014C53.0729 101.732 52.8064 101.469 52.5894 101.27C52.3723 101.076 51.0511 99.9736 50.9293 99.8897C50.8075 99.8058 50.6019 99.6952 50.4191 99.6342C50.2364 99.5732 49.9432 99.5922 49.8442 99.5999C49.7452 99.6075 49.4596 99.7105 49.3302 99.7448C49.2007 99.7791 49.0142 99.7791 48.9495 99.7639C48.9266 99.7562 48.8809 99.7562 48.82 99.7524C48.8657 99.6113 48.9114 99.4664 48.9647 99.2909C49.0142 99.1269 49.0751 99.0659 49.0979 98.9439C49.1246 98.8218 49.2198 98.6121 49.2769 98.5358C49.334 98.4595 49.4635 98.3375 49.5663 98.2345C49.6691 98.1315 49.8099 98.04 49.8518 98.0018C49.8937 97.9599 50.0041 97.834 50.0384 97.8073C50.0726 97.7806 50.1716 97.7196 50.2516 97.6433C50.3315 97.567 50.4191 97.4641 50.4534 97.4259C50.4838 97.384 50.5638 97.3039 50.5752 97.2696C50.5905 97.2352 50.5866 97.2162 50.6019 97.1895C50.6171 97.1628 50.6095 97.1132 50.6285 97.0865C50.6476 97.0598 50.6933 97.0445 50.678 96.9835C50.6628 96.9225 50.5981 96.3847 50.5828 96.2245C50.5676 96.0682 50.5143 95.5914 50.5105 95.5304C50.5067 95.4694 50.3544 95.046 50.3163 94.9545C50.2782 94.863 50.2859 94.8782 50.1793 94.7829C50.0726 94.6875 49.4292 94.0544 49.1551 93.7989C48.8809 93.5434 48.6639 93.3946 48.3365 93.2077C48.009 93.0208 47.6663 92.8912 47.2932 92.7882C46.9201 92.6852 45.4657 92.1475 45.2829 92.0521C45.1001 91.9568 44.9136 91.8042 44.5709 91.686C44.2282 91.5677 43.2117 91.6059 42.9718 91.6173C42.7319 91.6288 42.2255 92.3916 42.1151 92.4106C42.0047 92.4297 41.544 92.5746 41.4755 92.5937C41.4069 92.6128 40.9386 92.6623 40.7939 92.6776C40.6493 92.6929 40.3028 92.6929 40.1962 92.7234C40.0896 92.7539 39.8611 92.792 39.7393 92.8073C39.6174 92.8225 37.9422 93.1276 36.7961 93.3412C35.6539 93.5548 33.8301 93.8981 33.3961 93.9705C32.9621 94.043 31.5228 94.3214 31.2068 94.3748C30.8908 94.4282 30.6852 94.3977 30.5025 94.3862C30.3159 94.3748 29.9199 94.2833 29.7829 94.2489C29.6458 94.2146 29.4516 94.1116 29.4059 94.0811C29.3602 94.0506 29.3031 94.0353 29.2879 94.0697C29.2498 94.146 29.2955 94.3595 29.3183 94.4473C29.3412 94.535 29.4326 94.6647 29.4668 94.6952C29.5011 94.7257 29.5125 94.7409 29.5163 94.7676C29.5201 94.7943 29.6382 94.8973 29.6762 95.0079C29.7143 95.1185 30.0684 95.5113 30.0989 95.5609C30.1293 95.6105 30.2283 95.6982 30.2359 95.7287C30.2435 95.7592 30.3121 95.8317 30.5367 96.0338C30.7614 96.236 31.3134 96.5564 31.6028 96.7623C31.8922 96.9644 32.1206 97.1399 32.2577 97.2352C32.3947 97.3306 32.5585 97.4374 32.8478 97.4946C33.1372 97.5518 34.0319 97.5251 34.1271 97.5442C34.1919 97.5594 34.4051 97.5747 34.565 97.5785C34.6335 98.1544 34.6449 98.8333 34.683 99.1574C34.7211 99.5007 34.7744 101.209 34.7782 101.293C34.7782 101.331 34.782 101.373 34.7858 101.415C34.2452 101.522 33.7045 101.629 33.4037 101.701C32.943 101.812 32.509 101.915 31.8693 102.01C31.2297 102.106 29.8666 102.342 29.3755 102.418C28.8843 102.495 28.3018 102.632 28.0276 102.689C27.7535 102.746 26.7255 102.964 26.379 103.021C26.0325 103.078 25.7203 103.04 25.4957 103.009C25.4157 102.998 25.3129 102.99 25.2063 102.983C25.2558 102.891 25.3129 102.784 25.3205 102.746C25.332 102.693 25.4271 102.502 25.4652 102.426C25.5033 102.35 25.7089 101.945 25.7241 101.884C25.7394 101.823 25.8536 101.549 25.8764 101.518C25.8993 101.488 26.0668 101 26.0973 100.939C26.1277 100.878 26.2648 100.672 26.28 100.618C26.2952 100.565 26.3866 100.336 26.4171 100.275C26.4475 100.214 26.5541 99.9164 26.5694 99.8706C26.5846 99.8249 26.676 99.6876 26.676 99.6266C26.676 99.5655 26.7141 99.4893 26.7369 99.4282C26.7598 99.3672 26.7978 99.2223 26.8207 99.1918C26.8435 99.1613 26.8587 99.0697 26.874 98.9858C26.8892 98.9019 27.5441 97.4755 27.6964 96.9873C27.8487 96.4991 27.7345 95.8584 27.7116 95.6143C27.6888 95.3702 27.6202 95.1109 27.5212 94.9659C27.4222 94.821 26.9273 94.3252 26.7141 94.0887C26.5008 93.8523 25.9983 93.1505 25.8917 93.059C25.785 92.9675 25.5033 92.7691 25.3662 92.6013C25.2292 92.4335 24.8484 91.7012 24.8103 91.6707C24.7723 91.6402 24.5058 91.5334 24.4524 91.48C24.3991 91.4266 24.2088 91.3046 24.0336 91.2817C23.8585 91.2588 23.4321 91.2131 23.3254 91.1902C23.2188 91.1673 23.0513 91.1215 22.8457 91.0452C22.6401 90.969 22.2746 90.9995 21.9395 91.0605C21.6045 91.1215 20.5613 91.5792 20.5613 91.5792C20.6374 91.6211 21.5512 92.6623 21.5664 92.7081C21.5816 92.7539 21.871 93.4061 21.9205 93.5014C21.97 93.5968 22.0005 93.7302 22.0081 93.8408C22.0119 93.9514 21.9928 94.6151 21.951 95.0079C21.9091 95.4007 21.753 96.0262 21.2847 97.5518C20.8163 99.0773 19.1411 102.834 18.8555 103.494C18.57 104.154 17.3211 107.129 17.1574 107.453C16.9937 107.777 16.4759 108.734 16.4226 108.841C16.3655 108.948 15.8591 110.153 15.7982 110.256C15.7372 110.359 15.3565 110.939 15.2461 111.126C15.1357 111.312 14.774 112.033 14.6864 112.201C14.5988 112.369 14.1343 113.402 14.062 113.498C13.9896 113.593 13.5099 114.333 13.4718 114.398C13.4375 114.463 12.8322 115.328 12.6913 115.519C12.5504 115.706 12.0516 116.217 11.9793 116.293C11.907 116.37 11.5567 116.77 11.4881 116.831C11.4158 116.892 11.3891 116.911 11.3663 116.93C11.3435 116.949 11.3473 116.968 11.3549 116.98C11.3625 116.995 11.4386 116.984 11.4767 116.984C11.5148 116.984 11.5719 116.965 11.61 116.972C11.6595 116.984 11.6709 116.972 11.7661 116.972C11.8613 116.972 11.8917 116.987 11.9108 116.999C11.9298 117.007 12.0212 117.026 12.0554 117.014C12.0897 117.003 12.1278 117.037 12.143 117.029C12.1583 117.026 12.1925 117.018 12.2154 117.022C12.242 117.022 12.4819 116.999 12.5009 117.003C12.5695 117.014 12.8169 116.946 12.9388 116.907C13.4261 116.759 14.2105 116.297 14.5722 116.061C14.9339 115.828 15.8058 115.077 15.9885 114.936C16.1713 114.795 17.5343 113.673 17.5876 113.624C17.6409 113.574 17.6943 113.528 17.7209 113.505C17.7476 113.486 17.778 113.49 17.8313 113.433C17.8884 113.376 18.3453 112.949 18.391 112.91C18.4367 112.868 18.589 112.743 18.608 112.712C18.6271 112.682 18.9507 112.384 18.9735 112.342C18.9964 112.304 19.2743 111.972 19.3695 111.862C19.5561 112.026 19.7312 112.14 19.7883 112.266C19.8988 112.514 19.914 112.682 19.9444 113.074C19.9749 113.467 19.8264 114.257 19.7883 114.581C19.7465 114.905 19.5904 116.366 19.5599 116.686C19.5294 117.007 19.3124 118.57 19.282 118.784C19.2515 118.997 18.9812 120.29 18.9583 120.466C18.9355 120.641 18.8098 121.572 18.8098 121.618C18.8098 121.663 18.7223 121.892 18.7146 121.919C18.707 121.942 18.7032 122.125 18.6842 122.296C18.6651 122.468 18.5928 122.701 18.6461 122.952C18.6994 123.204 18.8593 124.154 18.8746 124.371C18.8898 124.589 18.9888 124.791 19.1411 125.321C19.2934 125.851 19.7845 126.705 19.933 126.888C20.0815 127.071 20.2148 127.136 20.3328 127.209C20.4508 127.281 21.2123 127.731 21.2618 127.769C21.3113 127.808 21.3608 127.815 21.4674 127.815C21.574 127.815 21.9738 127.708 22.1451 127.636C22.3165 127.563 22.3774 127.579 22.484 127.552C22.5906 127.525 22.88 127.499 23.4168 127.06C23.9537 126.621 23.9537 126.042 23.9765 125.676C23.9956 125.309 24.0945 122.67 24.1022 122.434C24.1098 122.197 24.2088 119.734 24.224 119.425C24.2392 119.116 24.3611 116.286 24.3611 116.08C24.3611 115.874 24.3725 113.833 24.3801 113.685C24.3877 113.536 24.5172 113.032 24.5134 112.941C24.5096 112.849 24.4905 112.132 24.4905 111.896C24.4905 111.659 24.5819 110.328 24.5819 110.084C24.5819 109.84 24.5362 109.264 24.4981 109.177C24.4639 109.089 23.691 107.758 23.6643 107.704C23.6377 107.651 23.6262 107.575 23.6072 107.552C23.4397 107.384 23.2645 107.3 23.1275 106.934C23.2988 106.656 23.4587 106.35 23.7861 105.752C23.9423 105.469 24.2126 104.875 24.2735 104.775C24.3344 104.676 24.5857 104.112 24.658 103.967C24.6733 103.94 24.6961 103.894 24.7266 103.837C24.8446 103.94 24.9665 104.058 25.1302 104.123C25.3815 104.222 26.2039 104.867 26.3067 104.932C26.4095 104.997 26.7217 105.191 26.8054 105.286C26.8892 105.382 27.4299 105.611 27.7154 105.786C28.001 105.961 28.9719 106.465 29.2079 106.534C29.444 106.602 29.8628 106.648 29.9351 106.625C30.0075 106.602 30.1712 106.484 30.2778 106.457C30.3844 106.431 30.5976 106.4 30.6205 106.377C30.6433 106.354 30.807 106.312 30.9403 106.282C31.0736 106.251 32.1511 106.068 32.3072 106.038C32.4633 106.007 33.3656 105.725 33.4875 105.717C33.6093 105.71 33.9901 105.672 34.1385 105.664C34.2223 105.66 34.4203 105.63 34.6982 105.584C34.6982 105.622 34.6982 105.653 34.6982 105.679C34.6982 105.698 34.6944 105.744 34.7059 105.927C34.7173 106.11 34.7059 106.98 34.702 107.338C34.6982 107.693 34.6754 108.383 34.6754 108.54C34.6754 108.696 34.6259 108.94 34.6297 109.138C34.6297 109.192 34.6297 109.264 34.6297 109.352C34.5383 109.371 34.4584 109.386 34.3975 109.402C34.249 109.436 32.9697 109.718 32.5927 109.772C32.2158 109.829 30.7804 110.08 30.6357 110.111C30.491 110.142 29.6534 110.374 29.5201 110.401C29.3869 110.428 29.2232 110.435 29.1356 110.428C29.048 110.42 28.9071 110.454 28.8691 110.45C28.831 110.45 28.336 110.431 28.2637 110.462C28.1913 110.492 28.0695 110.458 28.0314 110.454C27.9934 110.45 27.8677 110.416 27.8334 110.42C27.7992 110.424 27.6355 110.393 27.6088 110.389C27.5822 110.386 27.5517 110.431 27.5555 110.481C27.5555 110.511 27.5707 110.603 27.586 110.63C27.6012 110.656 27.5974 110.687 27.6012 110.721C27.605 110.756 27.7116 110.859 27.7154 110.893C27.7192 110.927 27.8144 111.057 27.8601 111.087C27.9058 111.118 28.0124 111.225 28.0581 111.29C28.0923 111.335 28.0733 111.347 28.1 111.408C28.1266 111.469 28.2294 111.595 28.2751 111.64C28.3513 111.717 28.4236 111.801 28.4655 111.831C28.5074 111.862 28.6292 112.048 28.7663 112.182C28.85 112.262 29.2155 112.598 29.2422 112.624C29.2688 112.651 29.5278 112.884 29.5963 112.895C29.6648 112.907 29.7334 113.002 29.9237 113.101C30.1141 113.2 30.3159 113.399 30.354 113.414C30.4225 113.441 30.5976 113.605 30.6738 113.65C30.7499 113.696 30.967 113.891 31.0279 113.929C31.0888 113.967 31.1193 113.952 31.1764 113.978C31.2335 114.005 31.3477 114.07 31.42 114.1C31.5457 114.154 31.6675 114.158 31.7741 114.184C31.8807 114.211 32.0445 114.303 32.2615 114.337C32.4785 114.371 33.3428 114.31 33.4608 114.295C33.5789 114.283 33.9634 114.165 34.1385 114.123C34.1842 114.112 34.2375 114.1 34.2985 114.085C34.2299 114.947 34.1804 115.603 34.1728 115.71C34.1347 116.37 34.0281 116.816 34.0167 117.041C34.0015 117.266 33.8301 118.216 33.7997 118.372C33.7692 118.528 33.6474 119.158 33.5827 119.406C33.4342 119.966 33.2552 120.512 32.9392 121.381C32.6727 122.106 32.2424 122.575 32.1435 122.808C32.0445 123.04 31.4391 123.776 31.3134 123.956C31.184 124.135 30.868 124.596 30.7461 124.699C30.6243 124.802 29.878 125.554 29.8438 125.588C29.8095 125.622 29.3716 125.927 29.2841 125.973C29.2308 126.004 28.8729 126.213 28.8234 126.244C28.6825 126.332 28.3665 126.473 28.0543 126.572C27.9515 126.606 27.4908 126.713 27.4565 126.721C27.4222 126.732 27.407 126.778 27.4146 126.808C27.4222 126.839 27.4641 126.873 27.4946 126.9C27.5288 126.927 27.8144 126.888 27.8449 126.896C27.8753 126.9 28.0124 126.934 28.0505 126.957C28.0885 126.98 28.1723 126.965 28.3132 126.965C28.4541 126.965 28.831 127.01 29.128 127.014C29.425 127.018 29.741 126.976 29.8628 126.957C29.9846 126.938 30.2359 126.877 30.4073 126.824C30.5786 126.77 31.3782 126.568 31.4429 126.557C31.5076 126.545 31.5152 126.564 31.5685 126.515C31.6218 126.465 32.0521 126.316 32.1663 126.286C32.2805 126.255 33.0915 125.855 33.1829 125.809C33.2743 125.76 33.4761 125.622 33.5103 125.607C33.556 125.584 34.0205 125.264 34.1043 125.184C34.188 125.104 34.4812 124.829 34.5079 124.795C34.5345 124.76 34.7744 124.592 34.7972 124.57C34.8163 124.547 35.1551 124.264 35.2617 124.135C35.3684 124.009 35.6882 123.723 35.7224 123.7C35.7567 123.677 35.7795 123.643 35.8367 123.551C35.8938 123.456 35.9014 123.49 35.9166 123.467C35.9318 123.444 36.1946 123.162 36.225 123.12C36.2555 123.082 36.5791 122.769 36.6248 122.712C36.6705 122.655 36.9142 122.327 36.9294 122.3C36.9446 122.274 37.1236 122.041 37.1578 121.999C37.1959 121.957 37.4053 121.595 37.432 121.526C37.4586 121.457 37.6756 121.133 37.6795 121.118C37.6795 121.103 37.6833 121.061 37.7175 121C37.748 120.939 38.0221 120.508 38.0602 120.443C38.0945 120.382 38.3686 119.699 38.5818 119.192C38.6085 119.131 38.795 118.566 38.8864 118.288C38.9207 118.177 39.1301 117.327 39.1453 117.277C39.1605 117.228 39.2519 116.911 39.3167 116.656C39.3471 116.534 39.4613 115.954 39.4956 115.706C39.6174 114.901 39.7469 113.738 39.7583 113.662C39.785 113.498 39.8116 113.208 39.8421 112.846C39.9144 112.83 39.983 112.815 40.0477 112.8C40.1429 112.777 41.3574 112.54 41.4983 112.525C41.6392 112.51 42.2864 112.502 42.4578 112.457C42.6291 112.411 42.7928 112.403 43.0251 112.399C43.2573 112.396 43.8894 112.323 44.2244 112.296C44.5595 112.27 45.7284 112.171 45.9454 112.167C46.1624 112.167 47.4341 112.266 47.6549 112.251C47.8758 112.235 49.0599 112.037 49.2845 111.999C49.4711 111.968 49.4901 111.957 49.5434 111.896C49.5967 111.835 49.9242 111.515 50.0079 111.415C50.0917 111.316 50.0841 111.267 50.0917 111.175C50.0993 111.084 50.1259 110.1 50.1221 109.897C50.1183 109.695 50.046 109.558 49.9394 109.367C49.8328 109.177 49.6081 108.974 49.4558 108.826C49.3035 108.677 48.4545 108.105 48.3365 108.04C48.2184 107.975 48.0814 107.952 47.9671 107.865C47.8339 107.765 47.476 107.621 47.1333 107.506C47.1333 107.495 47.1409 107.479 47.1409 107.468C47.1447 107.434 47.1828 107.308 47.1904 107.258C47.198 107.209 47.2361 107.037 47.2437 107.003C47.2513 106.968 47.3541 106.534 47.3579 106.488C47.3579 106.442 47.4189 106.145 47.4303 106.11C47.4417 106.076 47.5559 105.79 47.5635 105.748C47.5712 105.706 47.6968 105.214 47.693 105.168C47.6892 105.122 47.8263 104.581 47.8796 104.398C47.8948 104.344 47.9176 104.238 47.9443 104.104C48.108 104.119 48.3098 104.157 48.3974 104.157C48.5268 104.157 49.1741 104.352 49.3797 104.394C49.5853 104.436 49.7262 104.493 49.9965 104.497C50.2668 104.501 51.0435 104.608 51.5575 104.638C52.0715 104.669 52.2695 104.596 52.4942 104.535C52.7188 104.47 52.9587 104.341 53.2557 104.043C53.5526 103.749 53.4575 103.299 53.4346 103.036C53.408 102.773 53.2709 102.308 53.1681 102.026L53.1757 102.014ZM42.5225 95.7478C42.591 95.7173 42.7205 95.7249 42.751 95.7478C42.7814 95.7707 42.8271 95.9004 42.8271 95.9766C42.8271 96.0529 42.7966 97.9522 42.7662 98.387C42.7357 98.8218 42.6291 99.8973 42.6063 100.065C42.6063 100.073 42.6063 100.084 42.6063 100.096C42.3245 100.13 41.9171 100.202 41.4336 100.267C41.2356 100.294 40.8967 100.34 40.5807 100.386C40.5807 100.286 40.5883 100.21 40.5883 100.153C40.5959 100.046 40.6074 99.8935 40.6036 99.7677C40.5998 99.4664 40.6112 98.9324 40.6454 98.7227C40.6797 98.5129 40.7064 98.3527 40.6988 98.2574C40.6911 98.162 40.6188 97.9637 40.5388 97.8149C40.4589 97.6662 40.3637 97.5594 40.1847 97.4145C40.0058 97.2696 39.7659 97.075 39.5832 96.9606C39.4994 96.9072 39.2748 96.7394 38.993 96.522C39.0501 96.5068 39.092 96.4915 39.1263 96.4839C39.1872 96.4648 42.4578 95.7745 42.5263 95.744L42.5225 95.7478ZM41.3194 108.181C41.0643 108.223 40.4589 108.357 40.3561 108.364C40.299 108.364 40.2152 108.376 40.1086 108.387C40.1276 108.086 40.1391 107.876 40.1467 107.804C40.1581 107.685 40.1657 107.483 40.1809 107.373C40.1962 107.262 40.1924 107.064 40.2114 106.915C40.2304 106.766 40.219 106.621 40.2114 106.461C40.2076 106.297 40.2761 106.026 40.2647 105.961C40.2533 105.897 40.3028 105.325 40.3104 105.271C40.3142 105.222 40.3675 104.741 40.3942 104.627C40.4018 104.592 40.4094 104.543 40.417 104.485C40.6226 104.444 40.7559 104.421 40.7787 104.417C40.9462 104.386 41.2242 104.314 41.4145 104.321C41.5668 104.329 41.8867 104.299 42.275 104.257C42.2674 104.36 42.2598 104.444 42.2522 104.489C42.2446 104.573 42.256 105.119 42.237 105.321C42.2179 105.523 42.176 106.129 42.1608 106.305C42.1456 106.48 42.0656 107.144 42.0885 107.346C42.1075 107.529 42.1341 107.777 42.1646 107.998C41.8448 108.071 41.5516 108.143 41.3194 108.181ZM20.5917 134.486C20.5651 134.409 20.5803 134.219 20.5917 134.192C20.6107 134.15 20.6298 134.081 20.645 134.036C20.6602 133.99 20.6526 133.99 20.6831 133.978C20.7135 133.967 20.7745 133.978 20.7935 133.99C20.8164 134.005 20.9115 134.07 20.9306 134.062C20.9534 134.055 20.9839 134.093 21.0181 134.108C21.06 134.127 21.1209 134.146 21.1666 134.165C21.2123 134.184 21.4217 134.28 21.5893 134.31C21.7568 134.341 22.187 134.486 22.2784 134.52C22.465 134.589 22.8647 134.627 23.0208 134.634C23.1731 134.642 23.9994 134.669 24.2392 134.615C24.4791 134.562 25.1226 134.459 25.4348 134.459C25.747 134.459 26.1582 134.333 26.2686 134.345C26.379 134.356 27.3918 134.207 27.6735 134.177C27.9553 134.146 30.2512 133.83 30.4834 133.746C30.7157 133.662 31.3363 133.578 31.6789 133.525C32.0216 133.471 32.3909 133.441 32.5204 133.399C32.6498 133.357 34.5764 133.082 34.7592 133.063C34.9381 133.04 35.7643 132.926 35.9623 132.895C36.3354 132.834 37.0398 132.747 37.1464 132.724C37.2568 132.701 39.389 132.354 39.6669 132.308C39.9449 132.262 40.2799 132.209 40.497 132.159C40.714 132.11 40.9348 132.072 40.9653 132.056C40.9957 132.041 41.3232 131.969 41.3689 131.953C41.4145 131.938 41.6887 131.873 41.7268 131.858C41.7648 131.843 41.8714 131.77 41.9362 131.77C42.0009 131.77 42.176 131.724 42.2217 131.698C42.2674 131.675 42.374 131.564 42.5301 131.484C42.69 131.404 42.8614 131.301 42.9223 131.278C42.9832 131.255 43.0517 131.236 43.1317 131.274C43.2117 131.313 43.9274 131.591 44.1216 131.652C44.3158 131.717 44.9555 131.927 45.3362 132.06C45.7169 132.19 45.8197 132.216 46.033 132.342C46.2462 132.468 46.368 132.548 46.4251 132.579C46.4784 132.609 46.5317 132.636 46.5622 132.728C46.5888 132.815 46.6726 132.956 46.6878 132.987C46.7031 133.017 46.6878 133.147 46.7221 133.216C46.7564 133.284 46.9696 133.624 47.0115 133.757C47.0534 133.887 47.0838 134.123 47.0686 134.291C47.0534 134.455 47 134.524 47 134.562C47 134.6 47.0305 134.608 47.0115 134.661C46.9924 134.711 46.8516 134.97 46.8211 135.054C46.7906 135.138 46.6574 135.359 46.6193 135.435C46.5774 135.512 46.5432 135.55 46.5355 135.596C46.5279 135.641 46.4556 135.763 46.4442 135.802C46.4327 135.84 46.4251 135.962 46.3947 136C46.368 136.038 46.2957 136.042 46.2309 136.099C46.1662 136.156 45.9873 136.286 45.9454 136.343C45.9035 136.4 45.8883 136.366 45.7664 136.431C45.6446 136.496 45.4923 136.545 45.4162 136.595C45.34 136.641 45.0164 136.778 44.9478 136.805C44.8831 136.831 44.8489 136.793 44.7384 136.843C44.628 136.889 44.5747 136.923 44.529 136.957C44.4833 136.991 43.9617 137.003 43.7828 136.999C43.6038 136.995 42.77 136.999 42.256 137.011C41.7458 137.018 40.5769 136.98 40.0743 137.003C39.5718 137.026 38.8788 137.06 38.8103 137.075C38.7417 137.091 38.1325 137.121 37.7556 137.155C37.3787 137.19 36.0232 137.285 35.4064 137.346C34.7896 137.407 31.7551 137.804 31.5381 137.819C31.321 137.834 30.4948 137.995 30.3083 138.056C30.1217 138.113 28.949 138.376 28.7015 138.406C28.4541 138.437 28.119 138.494 27.94 138.555C27.7611 138.616 27.4184 138.765 27.2661 138.788C27.1138 138.811 26.7217 138.921 26.6531 138.94C26.5846 138.963 26.1544 139.013 25.8878 138.994C25.8079 138.986 25.3967 138.902 25.3434 138.879C25.2863 138.856 24.8903 138.692 24.8103 138.593C24.7304 138.494 24.4715 138.357 24.3839 138.288C24.3001 138.22 24.1098 138.151 24.0412 138.094C23.9765 138.036 23.6681 137.903 23.5691 137.819C23.4701 137.735 23.215 137.533 23.0932 137.453C22.9714 137.373 22.4954 137.037 22.4193 136.976C22.3431 136.911 22.0614 136.637 22.0347 136.599C22.0043 136.561 21.9586 136.473 21.8139 136.343C21.6426 136.194 21.437 135.931 21.3837 135.813C21.3303 135.691 21.1819 135.607 21.0867 135.409C20.9915 135.21 20.9648 135.1 20.8658 134.978C20.7668 134.856 20.8087 134.867 20.744 134.787C20.6755 134.703 20.6146 134.573 20.5879 134.497L20.5917 134.486ZM51.9916 163.43C51.9649 163.304 51.5994 162.77 51.5233 162.655C51.4471 162.541 51.1501 162.293 51.074 162.236C50.9978 162.179 50.8912 162.129 50.8303 162.072C50.7694 162.015 50.461 161.717 50.3772 161.668C50.2935 161.618 50.2821 161.626 50.2097 161.584C50.1336 161.542 49.6691 161.134 49.6424 161.103C49.6158 161.073 49.5244 161.012 49.4901 161.004C49.4558 160.996 49.3835 161.008 49.3302 160.985C49.2769 160.962 48.8581 160.729 48.8048 160.699C48.7477 160.668 48.6068 160.52 48.4849 160.466C48.4545 160.451 48.1537 160.256 48.1385 160.253C48.1232 160.245 48.0128 160.203 47.8758 160.241C47.8415 160.249 47.5179 160.378 47.4874 160.39C47.4569 160.401 47.3732 160.447 47.3161 160.47C47.2551 160.493 46.8135 160.687 46.7678 160.695C46.7221 160.703 46.5355 160.798 46.467 160.802C46.3985 160.806 45.7208 160.802 45.557 160.802C45.3933 160.802 44.2892 160.836 44.1787 160.84C44.0683 160.844 43.5962 160.855 43.5086 160.878C43.4211 160.901 42.0961 160.928 41.9552 160.935C41.8143 160.943 41.4678 160.958 41.4374 160.966C41.4069 160.973 40.6454 160.981 40.5959 160.981C40.436 160.985 39.9715 161.008 39.3471 161.038C39.8535 160.634 40.318 160.26 40.535 160.058C40.6302 159.97 41.0452 159.577 41.247 159.421C41.445 159.269 42.0466 158.845 42.3359 158.643C42.6291 158.437 43.2117 158.052 43.4325 157.896C43.6533 157.735 44.1216 157.4 44.2701 157.255C44.4186 157.11 44.5176 156.931 44.5671 156.751C44.6166 156.572 44.5557 156.24 44.5328 156.08C44.5062 155.92 44.3958 155.607 44.3539 155.516C44.312 155.424 44.3196 155.291 44.2968 155.169C44.2777 155.047 44.2244 154.947 44.1978 154.772C44.1711 154.597 44.0797 154.116 44.015 153.899C43.9503 153.685 43.8094 153.426 43.7675 153.338C43.7257 153.25 43.7219 153.075 43.6724 152.998C43.6229 152.922 43.4515 152.823 43.3868 152.777C43.3221 152.732 42.8766 152.297 42.7624 152.205C42.6482 152.114 42.1951 151.812 42.0504 151.736C42.1189 151.751 42.1722 151.759 42.2027 151.759C42.3055 151.759 42.8956 151.816 43.1469 151.809C43.3982 151.801 43.6571 151.789 44.0988 151.751C44.5404 151.713 44.9098 151.587 45.1991 151.446C45.4885 151.305 45.5761 151.175 45.6751 151.038C45.7779 150.901 45.8159 150.767 45.8235 150.447C45.8312 150.127 45.6789 149.555 45.6598 149.162C45.6484 148.921 45.6903 148.738 45.755 148.506C45.9264 148.197 46.052 147.926 46.0901 147.869C46.17 147.743 46.3718 147.415 46.5927 147.06C46.7335 146.831 46.9505 146.595 47.0495 146.469C47.1866 146.29 47.5559 145.889 47.5712 145.859C47.5864 145.832 47.7463 145.687 47.7653 145.661C47.7806 145.638 47.8758 145.573 47.8986 145.523C47.9214 145.477 48.0699 145.352 48.089 145.325C48.1042 145.302 48.2832 145.157 48.306 145.115C48.3288 145.077 48.4621 144.951 48.504 144.902C48.5459 144.852 48.6791 144.76 48.7438 144.715C48.8086 144.673 48.8657 144.631 48.9038 144.585C48.9418 144.539 48.9761 144.444 49.0066 144.349C49.037 144.253 49.0066 143.67 49.0028 143.601C48.9989 143.532 48.9951 143.509 48.938 143.441C48.8809 143.368 48.5268 142.934 48.424 142.796C48.3212 142.659 48.2717 142.529 48.2032 142.384C48.1385 142.239 48.0166 142.152 47.8301 142.007C47.6473 141.862 47.2361 141.625 47.099 141.541C46.962 141.454 46.5508 141.175 46.5279 141.16C46.5051 141.145 45.8312 140.577 45.656 140.447C45.4809 140.317 45.1192 139.94 44.9707 139.837C44.8222 139.73 44.2511 139.387 44.1369 139.31C44.0226 139.238 43.6952 139.15 43.5886 139.127C43.4782 139.104 42.9566 138.959 42.7129 138.898C42.4692 138.837 41.9742 138.712 41.8943 138.689C41.8143 138.666 41.662 138.677 41.6316 138.643C41.6011 138.612 41.5364 138.59 41.4793 138.59C41.4222 138.59 41.2851 138.578 41.1214 138.578C40.9615 138.578 40.9691 138.605 40.9348 138.624C40.9044 138.643 40.5731 138.91 40.5312 138.944C40.4855 138.982 40.4398 139.062 40.4056 139.104C40.337 139.184 40.2799 139.272 40.1924 139.371C40.1048 139.467 39.9487 139.554 39.7507 139.631C39.6746 139.661 39.4994 139.738 39.4156 139.745C39.3319 139.757 38.7227 139.886 38.658 139.902C38.597 139.917 37.4891 140.039 37.1807 140.115C36.8723 140.195 35.8709 140.378 35.6349 140.397C35.3988 140.416 34.287 140.626 33.9444 140.683C33.6017 140.741 32.5965 140.885 32.3567 140.954C32.1168 141.023 31.7399 141.053 31.6142 141.065C31.4886 141.076 31.3058 141.103 31.0926 141.149C30.8794 141.194 29.7105 141.393 29.5925 141.416C29.4783 141.435 27.9934 141.698 27.8334 141.725C27.6697 141.751 26.9197 141.9 26.5503 141.961C26.4018 141.984 25.7927 142.098 25.2939 142.194C25.233 142.148 24.4296 141.702 24.3725 141.683C24.3154 141.664 24.2506 141.641 24.2088 141.629C24.1669 141.618 24.1136 141.557 24.0527 141.526C23.9917 141.496 23.9004 141.465 23.8471 141.442C23.7938 141.419 23.5615 141.362 23.4435 141.332C23.3254 141.301 22.8724 141.076 22.7086 141.027C22.5449 140.981 22.3736 140.969 22.2632 140.966C22.1566 140.966 21.5816 140.992 21.3418 140.996C21.1019 141 19.9102 141.015 19.8493 141.015C19.7883 141.015 19.6437 141.061 19.6208 141.061C19.6018 141.061 19.4685 141.122 19.4495 141.126C19.4304 141.13 19.282 141.156 19.2553 141.16C19.1411 141.187 19.0383 141.198 19.0116 141.24C19.004 141.255 18.9964 141.313 19.0116 141.332C19.0307 141.358 19.103 141.465 19.1297 141.492C19.1715 141.538 19.3391 141.69 19.4266 141.763C19.5142 141.835 19.7579 142.011 19.8188 142.068C19.8797 142.121 20.15 142.361 20.2985 142.487C20.447 142.613 20.8697 143.14 21.0258 143.353C21.1781 143.567 21.338 143.948 21.4065 144.047C21.4712 144.146 21.5169 144.246 21.5664 144.322C21.6159 144.398 21.8215 144.951 21.8596 145.016C21.8977 145.081 21.9738 145.325 22.0119 145.462C22.05 145.599 22.1642 145.805 22.1642 145.836C22.1642 145.866 22.3393 146.416 22.3964 146.519C22.4497 146.622 22.4916 146.69 22.5107 146.793C22.5335 146.896 22.8305 148.128 22.9142 148.487C22.998 148.845 23.2683 149.947 23.295 150.092C23.3216 150.237 23.3673 150.451 23.4168 150.565C23.4663 150.68 23.6719 151.137 23.7709 151.343C23.8699 151.545 24.0679 151.984 24.323 152.312C24.5781 152.644 24.9169 152.819 24.9779 152.842C25.0388 152.865 25.3358 153.029 25.4995 153.067C25.6632 153.105 25.9107 153.151 26.1011 153.212C26.2876 153.273 26.8016 153.46 26.9425 153.498C27.0872 153.536 27.388 153.628 27.6202 153.605C27.6507 153.605 27.902 153.483 27.9324 153.449C27.9667 153.414 28.1152 153.3 28.1342 153.265C28.1533 153.231 28.2294 153.143 28.2789 153.101C28.3284 153.06 28.3398 153.018 28.3513 152.979C28.3627 152.941 28.4502 152.831 28.4655 152.716C28.4807 152.602 28.5873 152.518 28.652 152.434C28.6863 152.392 28.713 152.32 28.732 152.224C28.9033 152.198 29.0899 152.167 29.1584 152.148C29.2917 152.11 29.6001 152.129 29.7257 152.114C29.8514 152.098 29.9199 152.114 30.2055 152.037C30.491 151.961 30.7119 151.976 31.066 151.912C31.42 151.847 31.8465 151.736 32.0787 151.713C32.311 151.69 32.8021 151.603 32.9278 151.584C33.0534 151.561 33.8949 151.492 33.9824 151.454C34.07 151.416 34.862 151.328 34.999 151.32C35.1361 151.309 35.4255 151.267 35.7072 151.24C35.989 151.214 36.8037 151.088 37.1616 151.046C37.5195 151 38.2886 150.931 38.38 150.912C38.4676 150.897 38.7493 150.916 38.8141 150.901C38.8788 150.886 39.1567 150.912 39.1948 150.916C39.2329 150.92 39.3014 150.935 39.3776 150.95C39.2519 151.011 38.9131 151.187 38.8483 151.206C38.7722 151.225 38.4029 151.431 38.3305 151.484C38.2582 151.534 38.2163 151.519 38.0183 151.652C37.8203 151.786 37.7861 151.858 37.7061 151.889C37.6223 151.919 37.3063 152.056 37.2644 152.087C37.2226 152.117 36.956 152.262 36.937 152.289C36.918 152.316 36.4344 152.545 36.1793 152.693C35.9242 152.842 35.5549 153.063 35.4217 153.143C35.2884 153.224 34.7249 153.555 34.5574 153.662C34.5155 153.689 34.188 153.895 33.8834 154.089C33.5522 154.299 32.5128 154.921 31.8655 155.386C31.7703 155.455 31.4048 155.71 31.3553 155.748C31.3058 155.786 30.887 156.046 30.8147 156.103C30.7423 156.16 30.3425 156.252 30.1446 156.233C30.0913 156.229 29.8895 156.175 29.7524 156.145C29.6153 156.114 29.3755 156.053 29.3069 156.053C29.2384 156.053 29.2155 156.038 29.1775 156.008C29.1394 155.977 29.0404 155.909 28.633 155.645C28.2256 155.382 27.3042 154.921 27.0148 154.783C26.7217 154.646 26.2838 154.49 26.0021 154.459C25.7165 154.429 25.3129 154.337 25.1797 154.33C25.0464 154.322 24.3382 154.429 24.2659 154.425C24.1935 154.425 23.7024 154.356 23.5996 154.345C23.493 154.333 23.4663 154.356 23.4244 154.379C23.3826 154.402 23.116 154.486 23.0285 154.516C22.9371 154.551 22.4726 154.73 22.404 154.741C22.3355 154.753 22.2137 154.764 22.1832 154.761C22.1566 154.761 22.1033 154.761 22.0804 154.783C22.0538 154.802 22.0423 154.833 22.0347 154.863C22.0271 154.894 22.05 154.963 22.069 154.978C22.088 154.993 22.1718 155.104 22.2441 155.172C22.3165 155.241 22.3431 155.359 22.4193 155.443C22.4992 155.531 22.5373 155.584 22.6211 155.63C22.7048 155.676 23.1236 156.031 23.6567 156.454C24.1859 156.877 24.54 157.484 24.7913 157.999C25.0464 158.513 25.2977 159.837 25.3891 159.951C25.4805 160.066 26.1049 161.313 26.181 161.408C26.2724 161.526 26.4742 161.702 26.7293 161.893C26.6455 161.904 26.5618 161.915 26.478 161.927C26.398 161.938 25.549 162.034 25.4195 162.053C25.2901 162.072 24.9931 162.129 24.8827 162.148C24.7723 162.167 24.6314 162.179 24.4106 162.198C24.1897 162.217 21.6844 162.556 21.0981 162.648C20.5118 162.739 20.4356 162.743 20.1044 162.766C19.7731 162.789 17.9494 162.777 17.8123 162.777C17.6752 162.777 17.6333 162.735 17.5343 162.701C17.4353 162.667 17.3592 162.667 17.2602 162.686C17.1612 162.705 16.8985 162.735 16.7957 162.735C16.6929 162.735 16.3959 162.69 16.2817 162.663C16.1637 162.636 16.1294 162.632 16.0723 162.594C16.0114 162.556 15.7982 162.499 15.7677 162.461C15.7372 162.423 15.6839 162.388 15.6611 162.362C15.6382 162.335 15.4936 162.373 15.4936 162.476C15.4936 162.64 15.5431 162.671 15.5507 162.728C15.5545 162.758 15.5583 162.892 15.5773 162.949C15.5964 163.006 15.6763 163.14 15.6954 163.159C15.7144 163.178 15.8705 163.449 15.8933 163.479C15.9124 163.51 15.9657 163.616 16.0913 163.758C16.217 163.899 16.434 164.242 16.453 164.272C16.552 164.44 16.7157 164.555 16.7272 164.578C16.7386 164.604 16.9442 164.726 17.0051 164.772C17.066 164.814 17.0965 164.902 17.1193 164.936C17.1422 164.97 17.4734 165.26 17.5077 165.283C17.542 165.306 17.8275 165.523 18.0027 165.649C18.1778 165.775 18.589 166.023 18.8822 166.134C19.1753 166.244 20.249 166.87 20.31 166.896C20.3709 166.923 20.447 166.957 20.7097 167.06C20.9915 167.175 21.4332 167.259 21.555 167.266C21.6692 167.274 22.1147 167.259 22.1908 167.228C22.2632 167.202 22.7505 167.106 23.0627 167.007C23.3749 166.908 25.3853 166.412 25.5071 166.351C25.6289 166.29 25.9678 166.252 26.0516 166.221C26.1315 166.191 26.261 166.16 26.4628 166.122C26.6646 166.08 29.227 165.592 29.4173 165.569C30.3616 165.459 32.132 165.222 33.3352 165.131C34.5383 165.039 36.0613 164.955 36.819 164.928C37.5767 164.902 39.8154 164.883 40.7064 164.894C41.5973 164.906 42.9908 165.024 43.7561 165.115C44.5214 165.207 45.6903 165.42 46.3414 165.516C46.9924 165.611 48.7591 165.89 49.0104 165.935C49.2617 165.981 49.433 165.981 49.6729 165.97C49.9127 165.958 50.046 166.012 50.2211 166.034C50.3696 166.054 50.7123 166.115 50.7999 166.118C50.8836 166.118 50.9293 166.111 50.9636 166.076C50.9979 166.042 51.0816 165.951 51.1235 165.912C51.1654 165.878 51.3634 165.691 51.3672 165.684C51.371 165.672 51.47 165.577 51.5271 165.504C51.5842 165.432 51.687 165.287 51.7213 165.237C51.7593 165.184 51.786 165.134 51.7974 165.077C51.8088 165.02 51.7974 164.978 51.8393 164.928C51.8774 164.879 51.9269 164.742 51.9649 164.623C52.003 164.501 52.0563 164.402 52.0639 164.368C52.0715 164.333 52.1058 164.097 52.1058 164.063C52.1058 164.028 52.0639 163.761 52.0563 163.731C52.0487 163.7 52.0487 163.529 52.0221 163.407L51.9916 163.43ZM38.2886 147.064C38.2353 147.087 37.432 147.178 37.253 147.209C37.0741 147.239 36.541 147.339 36.3811 147.365C36.2212 147.388 35.7186 147.468 35.5549 147.503C35.3912 147.537 34.8543 147.609 34.7173 147.621C34.5802 147.632 34.0814 147.731 33.754 147.792C33.4266 147.854 32.943 147.953 32.7526 147.976C32.5623 147.998 31.9493 148.147 31.7132 148.193C31.4772 148.235 30.9289 148.338 30.6433 148.372C30.3578 148.407 29.9009 148.487 29.5239 148.544C29.147 148.601 28.8272 148.654 28.7282 148.674C28.7206 148.674 28.7092 148.677 28.7015 148.681C28.6673 148.342 28.6292 148.075 28.5949 147.934C28.534 147.701 28.3893 147.266 28.3056 146.995C28.2485 146.809 28.1495 146.351 28.0885 146.126C28.0276 145.897 27.9629 145.584 27.9439 145.455C27.9362 145.394 27.9134 145.298 27.8906 145.207C28.5797 145.066 29.3031 144.863 29.4021 144.852C29.562 144.837 30.0684 144.688 30.1598 144.68C30.2512 144.673 30.9365 144.554 30.9974 144.547C31.0545 144.539 32.0673 144.36 32.2805 144.329C32.4937 144.299 33.4989 144.116 33.8187 144.085C34.1385 144.059 36.088 143.773 36.2783 143.757C36.6895 143.719 38.5932 143.551 38.8026 143.54C39.2405 143.517 40.2457 143.483 40.3294 143.468C40.5465 143.429 40.5883 143.754 40.5845 143.807C40.5807 143.86 40.5693 144.211 40.5122 144.524C40.4551 144.837 40.3218 145.516 40.2571 145.836C40.1924 146.153 40.021 146.725 39.9906 146.82C39.9753 146.873 39.9563 146.938 39.9373 147.011C39.5718 147.011 39.29 147.014 39.29 147.014C39.0349 147.011 38.3458 147.045 38.2925 147.068L38.2886 147.064ZM32.9049 161.389C32.7298 161.401 31.8731 161.473 31.7551 161.484C31.5761 161.5 31.3058 161.519 30.9708 161.542C31.0431 161.362 31.1078 161.168 31.1269 161.031C31.1383 160.954 31.2297 160.745 31.2449 160.722C31.2601 160.699 31.4124 160.378 31.4391 160.226C31.4657 160.073 31.4581 159.761 31.4695 159.738C31.481 159.715 31.4543 159.65 31.4429 159.513C31.4353 159.406 31.4429 159.131 31.4429 159.089C31.4467 159.047 31.4543 158.91 31.4543 158.876C31.4543 158.841 31.5647 158.224 31.5723 158.197C31.58 158.17 31.7779 157.751 31.8922 157.583C31.9759 157.457 32.1358 157.209 32.2463 157.049C32.4671 156.732 32.7412 156.393 32.7717 156.362C32.8021 156.332 33.0268 156.061 33.0649 156.008C33.1029 155.954 33.1981 155.855 33.2514 155.809C33.3047 155.764 33.7045 155.428 33.8758 155.294C34.0472 155.161 34.9762 154.402 35.0219 154.364C35.5854 153.929 36.0232 153.715 36.2745 153.624C36.343 153.601 36.7086 153.571 36.7543 153.574C36.9027 153.578 37.0627 153.632 37.0893 153.647C37.116 153.662 37.4891 153.895 37.5157 153.994C37.5424 154.093 37.5652 154.12 37.5119 154.284C37.4548 154.448 37.0017 155.458 36.8076 155.882C36.6172 156.305 36.1565 157.304 35.909 157.835C35.6615 158.365 35.0942 159.612 35.0561 159.68C35.0181 159.749 34.9419 159.89 34.9191 159.963C34.8772 160.089 34.8277 160.188 34.7744 160.302C34.7211 160.417 34.4393 160.935 34.3936 161.008C34.3289 161.107 34.268 161.206 34.2109 161.305C33.9139 161.32 33.6817 161.332 33.5522 161.34C33.4989 161.34 33.0687 161.389 32.8897 161.401L32.9049 161.389Z" fill="black"/>
</svg>
