<svg width="100" height="100" viewBox="0 0 100 100" fill="none" xmlns="http://www.w3.org/2000/svg">
<path d="M50 87.067C46.7064 81.7362 42.0855 77.1153 36.2791 73.7649C30.4727 70.4145 24.1624 68.7181 17.8947 68.5335C20.8688 63.0182 22.5582 56.7078 22.5582 50C22.5582 43.2922 20.8688 36.9818 17.8947 31.4665C24.1624 31.2819 30.4656 29.5926 36.2791 26.2351C42.0855 22.8847 46.7064 18.2638 50 12.933C53.2936 18.2638 57.9145 22.8847 63.7209 26.2351C69.5273 29.5855 75.8376 31.2819 82.1053 31.4665C79.1312 36.9818 77.4418 43.2922 77.4418 50C77.4418 56.7078 79.1312 63.0182 82.1053 68.5335C75.8376 68.7181 69.5343 70.4145 63.7209 73.7649C57.9145 77.1153 53.2936 81.7362 50 87.067ZM50 7.58092C73.4313 7.58092 92.4191 26.5758 92.4191 50C92.4191 73.4242 73.4242 92.4191 50 92.4191C26.5758 92.4191 7.58091 73.4242 7.58091 50C7.58091 26.5758 26.5758 7.58092 50 7.58092ZM50 0C22.4304 0 0 22.4304 0 50C0 77.5696 22.4304 100 50 100C77.5696 100 100 77.5696 100 50C100 22.4304 77.5767 0 50 0Z" fill="white"/>
</svg>
