<svg width="8" height="13" viewBox="0 0 8 13" fill="none" xmlns="http://www.w3.org/2000/svg">
<path fill-rule="evenodd" clip-rule="evenodd" d="M5.62734 9.66667C6.04553 9.74493 6.43128 9.85378 6.76749 9.99059C7.56229 10.314 7.99999 10.7652 7.99999 11.2612C7.99999 11.7571 7.56229 12.2083 6.76749 12.5317C6.02537 12.8337 5.04253 13 4 13C2.95748 13 1.97463 12.8337 1.2325 12.5317C0.437708 12.2083 0 11.7571 0 11.2612C0 10.7652 0.437708 10.314 1.2325 9.99059C1.56871 9.85379 1.95444 9.74494 2.37263 9.66667C2.44746 9.77828 2.52222 9.88997 2.59664 10.0019C2.14076 10.0768 1.7228 10.1886 1.36594 10.3338C0.727324 10.5936 0.361043 10.9317 0.361043 11.2612C0.361043 11.5906 0.727324 11.9287 1.36594 12.1885C2.06661 12.4736 3.00209 12.6306 4 12.6306C4.99791 12.6306 5.93338 12.4736 6.63406 12.1885C7.27267 11.9287 7.63895 11.5906 7.63895 11.2612C7.63895 10.9317 7.27267 10.5936 6.63406 10.3338C6.27721 10.1886 5.85926 10.0768 5.40339 10.0019C5.47778 9.88997 5.55255 9.77831 5.62734 9.66667ZM4.0073 6.31521e-06C6.21308 0.0038698 8 1.75626 8 3.91738C8 4.79016 7.70844 5.59616 7.21561 6.24731C6.38284 7.34761 5.59115 8.47717 4.81349 9.6155L4.14873 10.5886C4.07808 10.6927 3.92192 10.6927 3.85127 10.5886L3.13248 9.53641C2.37207 8.42332 1.59514 7.3208 0.781951 6.24408C0.283605 5.58422 -0.00824218 4.76575 0.000179508 3.88008C0.0205738 1.7352 1.81709 -0.00382398 4.0073 6.31521e-06ZM3.99554 1.50399C2.59511 1.50399 1.45982 2.61583 1.45982 3.98733C1.45982 5.35883 2.59511 6.47067 3.99554 6.47067C5.39598 6.47067 6.53125 5.35883 6.53125 3.98733C6.53125 2.61583 5.39598 1.50399 3.99554 1.50399Z" fill="white"/>
</svg>
