<?xml version="1.0" encoding="UTF-8"?><svg id="_レイヤー_2" xmlns="http://www.w3.org/2000/svg" viewBox="0 0 40.64 73.11"><defs><style>.cls-1{fill:#fff;fill-rule:evenodd;}</style></defs><g id="_デザイン"><path class="cls-1" d="M21.09,5.39c.31-.02.48-.14.71-.24h.18v-.06l.24-.06v-.06c.2-.04.39-.08.59-.12v-.06h.12v-.06h.18v-.06h.29v-.06h.18v-.06h.29v-.06c.22-.06.43-.12.65-.18l.06-.18h.06v-.12l.18-.12v-.06h.18v-.06h.77v-.06c.3-.08,1.14,0,1.35.06h.94s.06-.1.18-.06l.06.12h.18v.06h.29v.06h.41v.06h.18v.06h.12v.06c.18.04.35.08.53.12v.06h.12v.06h.18v.06c.65.14,1.3.27,1.94.41.08.31.4.49.53.77v.18h.06v.12h.06v.18h.06c.02.26.04.51.06.77h.06c.04.24.08.47.12.71-.18.12-.03.06-.12.24h-.06v.12l-.35.29-.06.12h-.12l-.06.12h-.18l-.06.12h-.12v.06c-.45.1-.9.2-1.35.29-.2.02-.39.04-.59.06v.06h-.18v.06c-.2.04-.39.08-.59.12v.06h-.18v.06h-.18v.06h-.18v.06l-.35.06v.06h-.12v.06l-.35.06v.06c-.16.02-.31.04-.47.06v.06h-.24v.06h-.18v.06h-.24v.06c-.18.02-.35.04-.53.06v.06h-.29v.06h-1.12c-.29,0-.7.16-1.06.06v-.06c-.47-.04-.94-.08-1.41-.12.09-.33.24-.21.47-.35l.06-.12h.12v-.06h.12l.12-.18c.25-.17.5-.33.65-.59-.24-.09-.67-.06-1-.06-.12.1-.31.06-.47.12v.06h-.24c-.49.16-1.16.19-1.65.35h-.24v.06c-.14.02-.27.04-.41.06v.06c-.14.02-.27.04-.41.06v.06h-.18v.06c-.14.02-.27.04-.41.06v.06c-.16.02-.31.04-.47.06v.06h-.12v.06h-.18v.06h-.12v.06c-.14.02-.27.04-.41.06v.06h-.29v.06h-.29v.06h-.65v.06h-.71v.06c-.24.02-.47.04-.71.06v-.06h-.12v-.06c-.43-.04-.86-.08-1.3-.12v-.06h-.24v-.06h-.18v-.06h-.18v-.06h-.18v-.06h-.18v-.06c-.16-.02-.31-.04-.47-.06l-.06-.12h-.12l-.12-.12h-.12v-.06l-.24-.06-.06-.12c-.14-.13-.27-.3-.47-.35v-.29c.22,0,.53-.07.71-.12h.77v-.06h.12v-.06c.29-.02.59-.04.88-.06v-.06h.29v-.06h.24v-.06h.24v-.06h.18v-.06c.18-.04.35-.08.53-.12l.12-.18c.2-.14.25.04.29-.29-.12-.13-.05-.29-.12-.47h-.06v-.18l-.12-.06v-.12l-.29-.24-.06-.12h-.12l-.06-.12-.24-.06v-.06h-.18v-.06c-.18-.06-.35-.12-.53-.18v-.18l1.18-.59v-.12l.12-.06v-.53h-.06v-.24c-.06-.18-.12-.35-.18-.53h-.06v-.12h-.06v-.12l-.12-.12v-.12l-.24-.18v-.12c-.18-.16-.35-.31-.53-.47v-.12l-.12-.12v-.12l-.12-.06c-.07-.11-.08-.34-.18-.41h-.12l-.06-.12-.18-.06v-.06h-.18v-.06h-.18v-.06h-.18v-.06h-.18l-.06-.12c-.17-.09-.1.05-.24-.12h-.06v-.24h-.06v-.24c.14-.1.27-.2.41-.29h.24c.19-.06.69-.2,1-.12v.06h.35c.88-.07,1.89-.04,2.65.18h1.06v.06h.53v.06h.35v.06h.47v.06h.29v.06h.18v.06h.12c.12.14.24.27.35.41l.12.06.12.35.18.12v.12l.12.06.06.18h.06v.12l.12.06v.12l.18.12v.12l.12.06v.12l.12.06v.12h.06c.02.16.04.31.06.47.23.75,0,1.34,0,2.12ZM6.36,7.57c.22.02.43.04.65.06v.06h.12v.06c.14.02.27.04.41.06l.06.12h.12c.2.22.39.43.59.65h.12c.26.27.51.55.77.82h.12l.06.12.29.24.06.24h.06c.08.33.16.67.24,1v.35h.06c.06.22.14,1.6.06,1.88h-.06c-.02.35-.04.71-.06,1.06h-.06v.18h-.06v.18h-.06c-.02.14-.04.27-.06.41l-.12.06-.06.35-.12.06v.12h-.06l-.06.24-.12.06v.12l-.12.06v.12l-.18.12v.12l-.12.06v.12c-.14.12-.27.24-.41.35-.1.14-.2.27-.29.41h-.12l-.06.12-.18.06-.24.29h-.12l-.06.12h-.12l-.12.18h-.12l-.18.24-.24.06-.06.12-.24.06-.06.12h-.18v.06c-.24.02-.47.04-.71.06v-.06c-.46-.12-.64-.66-.88-1l-.29-.24v-.12l-.12-.06v-.12l-.12-.06v-.12l-.12-.06v-.12l-.12-.06v-.12l-.12-.06c-.06-.18-.12-.35-.18-.53h-.06v-1.06h.06c.02-.27.04-.55.06-.82h.06v-.24h.06v-.24h.06v-.24h.06v-.24h.06c.02-.29.04-.59.06-.88h.06v-.18l.12-.06v-.18l.12-.06v-.12l.18-.12v-.06h.12l.12-.18h.12c.43-.49.86-.98,1.3-1.47v-.18h.06v-.29c.14-.45-.03-1.61.24-1.88.05-.06.07-.06.12-.12ZM22.85,13.16c.04.17.09.28.18.41l.12.06c.06.18.12.35.18.53.05.15.03.86,0,.94h-.06c-.05.17.02.33-.06.47l-.12.06v.12h-.06l-.06.18-.12.06v.12l-.18.12v.12h-.06l-.12.18c-.13.1-.25.11-.35.24-.41-.02-.82-.04-1.24-.06v.06c-.18.02-.35.04-.53.06v.06h-.18v.06h-.18v.06h-.18v.06h-.18v.06h-.18v.06c-.24.04-.47.08-.71.12v.06c-.2.04-.39.08-.59.12v.06h-.18v.06h-.18v.06h-.18v.06l-.35.06v.06c-.18.02-.35.04-.53.06v.06c-.22.04-.43.08-.65.12v.06h-.18v.06h-.24c-.98.35-1.94.81-3.24.82.1-.35.44-.41.71-.59l.06-.12.18-.06v-.06l.24-.06.29-.35h.12c.22-.24.43-.47.65-.71v-.24s.1,0,.06-.12h-.06c-.04-.2-.13-.28-.24-.41h-.06l-.06-.18-.18-.12-.06-.24-.12-.06v-.12h-.06v-.18h-.06v-.12l-.12-.06-.06-.29c-.11-.28-.17-.34-.18-.77.07-.07.02,0,.06-.12h.18v-.06h1.06v-.06h.18v-.06h.35v-.06c.16-.02.31-.04.47-.06v-.06h.24v-.06c.14-.02.27-.04.41-.06v-.06h.18v-.06h.18v-.06l.35-.06v-.06h.12v-.06c.35-.1.71-.2,1.06-.29v-.06h.12v-.06c.14-.02.27-.04.41-.06v-.06h.18v-.06c.14-.02.27-.04.41-.06v-.06c.2-.02.39-.04.59-.06v-.06c.07-.04.16-.09.29-.06v.06h.24v.06h.12v.06l.35.06v.06c.18.02.35.04.53.06v.06h.18v.06h.18v.06h.18v.06h.18c.17.07.32.19.53.24ZM28.45,18.46c.05.21.16.2.24.35l.06.29.12.06v.12h.06v.29h.06v.18h.06v.29h.06v.41h-.06v.18h-.06l-.12.35h-.06v.12l-.29.24-.06.12h-.12v.06h-.18v.06h-.12v.06h-.24v.06h-.24v.06h-.12v.06h-.24v.06c-.29.02-.59.04-.88.06v.06h-.29v.06h-.24v.06h-.24v.06h-.41v.06h-.53v.06h-.35v.06h-.35v.06h-.24v.06h-.29v.06h-.53v.06h-.18v.06c-.16.02-.31.04-.47.06v.06c-.2.02-.39.04-.59.06v.06c-.19.07-.3.1-.47.18l.29.35.12.06v.12l.12.06.06.24.18.06c.16.12.06.2.35.24.16-.14.74-.04,1-.12v-.06h.35v-.06c.43-.02.86-.04,1.3-.06v.06c.35.02.71.04,1.06.06v.06c.18.02.35.04.53.06v.06l.24.06v.06h.12l.06.12h.12l.06.12h.12l.12.18h.12c.18.2.35.39.53.59.18.16.35.31.53.47l.06.18c.22.2.43.39.65.59l.06.18.29.24.12.35h.06v.12h.06v.24h.06v.24h.06v.35h.06v.41h.06v.59s.07.02.06.12h-.06c-.02.43-.04.86-.06,1.3h-.06c-.02.14-.04.27-.06.41h-.06v.12h-.06l-.06.24-.12.06v.12l-.12.06v.12l-.12.06v.12l-.29.24-.12.18h-.12l-.12.12h-.12v.06h-.12l-.06.12h-.12v.06h-.18v.06h-.12v.06l-.35.06v.06h-.12c-.21.11-.17.17-.53.18v-.06l-.29-.06v-.06h-.12l-.18-.24h-.12l-.18-.24h-.06v-.12l-.12-.06-.06-.24-.12-.06-.06-.24-.12-.06v-.18h-.06v-.12h-.06l-.12-.35h-.06l-.06-.29h-.06v-.12h-.06v-.18h-.06l-.06-.24h-.06c-.1-.53-.2-1.06-.29-1.59v-.35h-.06v-.24h-.06v-.12h-.06v-.12h-.06v-.12h-.06v-.12h-.06v-.12h-.06v-.12h-.06l-.06-.24-.12-.06v-.06l-.12-.06v-.12l-.18-.12v-.12l-.24-.18v-.12l-.24-.18v-.06h-.12l-.06-.12h-.12v-.06h-.12v-.06c-.29-.02-.59-.04-.88-.06-.1.28-.06.8-.06,1.18-.09.11-.12.73-.06.94.08.3-.04.84.06,1.18.09.33.04.87.06,1.3l.06.35h-.06c.04.49.08.98.12,1.47h.06v.77h.06v.65h-.06v.24h-.06c-.02.14-.04.27-.06.41h-.06l-.12.35h-.06v.12h-.06v.18h-.06l-.06.24h-.06v.12h-.06l-.06.29-.18.12v.12h-.06l-.06.18-.12.06v.12l-.18.12v.12c-.2.18-.39.35-.59.53-.12.14-.24.27-.35.41h-.12l-.12.18h-.12l-.06.12h-.12v.06l-.24.06v.06c-.31.14-1.25.12-1.53-.06l-.06-.12-.18-.06-.12-.18h-.12v-.06l-.18-.06-.06-.12h-.12c-.18-.24-.35-.47-.53-.71-.04-.18-.08-.35-.12-.53h-.06v-.18h-.06v-.18h-.06v-.18h-.06v-.29h-.06v-.24h-.06c-.02-.18-.04-.35-.06-.53h-.06v-.18h-.06v-.24h-.06l-.06-.29h-.06l-.06-.24h-.06l-.06-.24-.12-.06v-.12c-.14-.12-.27-.24-.41-.35v-.12l-.12-.06-.06-.24-.12-.06v-.12l-.18-.12v-.12l-.12-.06v-.12l-.12-.06v-.12l-.12-.06-.06-.18h-.06l-.06-.24h-.06v-.12h-.06c-.1-.29-.2-.59-.29-.88h-.18c-.07.13-.13.13-.18.29h-.12l-.29.35h-.06v.12h-.06l-.12.18h-.12l-.18.24h-.12v.06h-.12l-.06.12h-.18v.06h-.18v.06h-.24v.06h-.29v.06c-.2.05-.89-.24-1.06-.29h-.29v-.06h-.12v-.06h-.18v-.06h-.12v-.06h-.12l-.06-.12h-.12l-.18-.24c-.72-.51-1.14-.74-1.12-2,.17-.1.22-.28.35-.41.14-.12.27-.24.41-.35v-.12l.24-.18v-.12l.12-.06v-.12l.18-.12v-.12h.06c.04-.18.08-.35.12-.53.1-.26.25-.57.35-.82l.06-.35.12-.06v-.12l.12-.06v-.12l.12-.06v-.12h.06c.11-.29-.14-1.25-.24-1.35-.25-.28-.67-.37-.77-.82h-.06v-.06h.06c.12-.17.33-.26.53-.35v-.06h.35v-.06h.65c.74-.23,1.7-.33,2.41-.59.27-.06.55-.12.82-.18v-.06l.24-.06v-.06h.18v-.06l.24-.06v-.06h.18v-.06h.12v-.06l.24-.06v-.06l.35-.06v-.06h.12v-.06h.12v-.06h.12v-.06h.12v-.06h.12v-.06l.24-.06v-.06h.18v-.06h.12v-.06h.18v-.06h.24v-.06h.18v-.06h.18v-.06c.14-.02.27-.04.41-.06v-.06c.26-.04.51-.08.77-.12v-.06c.2-.04.39-.08.59-.12v-.06h.18v-.06h.18v-.06h.18v-.06l.24-.06v-.06h.18v-.06c.2-.04.39-.08.59-.12v-.06h.12v-.06c.59-.12,1.18-.24,1.77-.35v-.06h.18v-.06h.24l.06-.12h.12l.12-.12.24-.06.06-.12h.12l.06-.12h.12l.06-.12h.18l.12-.18c.12-.07.25-.02.41-.06v-.06l.12.06h.06v-.06c.22.02.43.04.65.06v.06c.31.02.63.04.94.06v.06h.18v.06h.18v.06h.29v.06h.35v.06c.24.04.47.08.71.12v.06h.12l.06.12.29.06.06.12h.12v.06l.18.06ZM12.6,24.7v-.06h-.12l-.06-.12h-.12l-.06-.12h-.12s-.04-.08-.12-.12v-.06c.69.07,1.22.3,2,.29.3,0,1.01-.28,1.24-.18l.06.12.29.06.06.12h.12l.12.18.35.12.06.12.24.06c.11.06.24.17.35.24.12.63.25,2.25.06,2.94-.02.29-.04.59-.06.88h-.06l-.06.24c-.09.13-.31.14-.41.29-.37,0-.68,0-.94-.12v-.06l-.24-.06v-.06c-.27-.06-.55-.12-.82-.18v-.06l-.29-.24c-.08-.75-.16-1.49-.24-2.24h-.06l-.06-.29h-.06v-.12h-.06l-.06-.29-.12-.06v-.12h-.06v-.12l-.12-.12v-.12l-.12-.06v-.12l-.12-.06v-.18h-.06l-.06-.18c-.15-.04-.19-.09-.29-.18ZM23.5,42.01c-.18.02-.32.05-.47.12v.06h-.18v.06h-.12v.06h-.12v.06h-.12v.06l-.35.12v.06h-.18v.06h-.12v.06h-.12v.06l-.35.12v.06h-.18v.06h-.24v.06h-.18v.06h-.35l-.06.12-.29.24v.12l-.18.12v.06h-.12c-.16.18-.31.35-.47.53h-.12l-.12.18c-.14.12-.27.24-.41.35-.18.2-.35.39-.53.59h-.12l-.06.12h-.12l-.18.24h-.12c-.22.24-.43.47-.65.71-.17.17-.4.27-.47.53-.16.04-.19.09-.29.18v.06c-.2.04-.39.08-.59.12v-.06h-.18l-.06-.12-.24-.06-.06-.12-.29-.24v-.12h-.06l-.06-.24h-.06l-.06-.35h-.06v-.12h-.06v-.29c-.02-.07-.15-.36-.12-.47h.06v-.12h.06v-.18h.06l.12-.35h.06l.06-.24.12-.06v-.12h.06v-.12h.06v-.18l.24-.18c.12-.14.24-.27.35-.41h.12l.06-.12h.12l.12-.18h.12l.12-.18h.12l.12-.18h.12l.24-.29h.12l.06-.12h.06l.06-.12.29-.06v-.06h.12v-.06h.12l.06-.12h.12l.12-.18h.12c.12-.14.24-.27.35-.41v-.18h.06v-.18h.06v-.18h.06c.07-.22-.11-.71.06-.82h.12v-.06h.18v-.06c.13-.03.43.12.47.18v.12l.12.06v.12l.18.12v.12l.12.06v.12h.06v.24h.06v.18h.06v.18l.12.06.18.24h.12v-.06h.24v-.06l.35-.12v-.06h.18l.06-.12.35-.12v-.06l.18-.06.06-.12h.12v-.06l.18-.06.06-.12h.12l.06-.12h.12v-.06c.09-.07.1-.08.24-.12v-.12l.18-.06.29-.35h.12c.05-.24.18-.26.24-.41v-.41h.06v-.29s.04,0,.06-.12c.13-.05.3-.09.41-.18l.06-.18c.07-.08.21-.05.35-.06.08.1.2.15.29.24l.06.12h.12l.06.12h.12v.06c.31.12.9-.17,1.06-.24.07-.03.58-.05.77,0v.06h.47v.06c.18.06.35.12.53.18l.06.12.35.12.12.18h.12l.12.18h.12l.29.35.12.06v.12h.06c.06.07.04.11.12.18,0,.63-.17,1.22-.59,1.41-.27.06-.55.12-.82.18l-.29.35h-.12l-.06.12h-.12l-.18.24-.18.06-.06.12h-.12l-.12.12h-.12v.06h-.12l-.06.12-.35.12v.06h-.12v.06l-.35.12v.06h-.18v.06h-.12v.06h-.18v.06h-.12v.06h-.24v.06h-.12v.06h-.12v.06h-.12v.06h-.12v.06h-.12v.06h-.12v.06h-.12v.06l-.35.12v.06h-.18v.06h-.18v.06l-.24.06v.06h-.18v.06c-.24.08-.47.16-.71.24v-.06c.13-.11.14-.27.24-.41.18-.16.35-.31.53-.47v-.12l.18-.12c.24-.35.46-.74.47-1.3ZM11.78,43.13c.13.03.15.05.24.12v.06l.18.06v.12h.06l.12.18c.2.18.39.35.59.53v.18c.12.29.3.69.18,1.12h-.06c-.02.24-.04.47-.06.71h-.06l-.06.24-.12.06v.12l-.12.06v.12l-.12.12v.12h-.06v.12l-.12.06-.12.35h-.06v.12h-.06v.12h-.06v.12h-.06v.12h-.06v.12h-.06v.12h-.06l-.06.24-.29.18v.12l-.12.06-.06.18h-.06v.12l-.12.06v.12l-.12.06v.12h-.06l-.06.18-.12.06v.12l-.12.06v.12l-.18.12v.12l-.18.12v.12l-.24.18-.06.18-.12.06v.12h-.06l-.06.18-.12.06v.12l-.18.12v.12h-.06c-.09.11-.36.3-.29.53h.06v.12h.06v.18h.06v.12h.06v.12l.12.06v.18h.06l.06.24h.06l.12.35h.06v.12h.06v.35h.06v.47h.06v4.12h.06v1.77h.06v.65h.06v.47h.06v.41c.2.68.28,1.5.47,2.18v1.83h-.06c-.03.21.2.35.12.65h-.06c-.02.16-.04.31-.06.47h-.06c-.04.22-.08.43-.12.65h-.06v.18h-.06v.24h-.06l-.06.24h-.06v.12l-.12.06v.12h-.06v.12h-.06c-.12.2-.15.35-.35.47v.06h-.18v.06c-.49.02-.98.04-1.47.06-.2,0-.48.04-.59-.06-.15-.04-.19-.09-.29-.18v-.06h-.12l-.06-.12h-.06l-.06-.12-.18-.06-.06-.24h-.06l-.06-.35-.12-.06v-.12l-.12-.06v-.12h-.06v-.12h-.06v-.18l-.12-.06v-.12h-.06v-.18h-.06v-.18h-.06v-.24h-.06v-.24h-.06v-.29h-.06v-.29h-.06v-.29h-.06v-.24h-.06v-.24h-.06v-.24h-.06v-.29h-.06v-.35h-.06c.02-.2.04-.39.06-.59h-.06c-.06-.27.07-.54.12-.71v-.35h.06c.02-.18.04-.35.06-.53h.06v-.18h.06v-.29h.06v-.18h.06v-.35c.12-.35.24-.71.35-1.06v-.29l.18-.12c.04-.55.08-1.1.12-1.65h.06c.02-.24.04-.47.06-.71h-.06v-.71c.06-.2.14-1.01.06-1.3-.08-.29-.18-.64-.24-.94l-.18.06v.06h-.12v.06h-.12l-.06.12h-.12l-.06.12h-.12l-.06.12h-.12v.06l-.18.06-.06.12h-.12l-.12.18-.24.18v.06h-.12c-.14.16-.27.31-.41.47h-.12l-.12.18h-.12l-.06.12-.18.06v.06h-.12l-.06.12-.18.06v.06l-.35.12-.06.12-.24.06-.06.12-.35.12-.06.12h-.12l-.12.12h-.12v.06h-.12l-.06.12-.29.06v.06c-.18.06-.39-.08-.47-.06v.06c-.16.06-.31.12-.41.06-.2-.05-.11-.08-.24-.18.03-.12,0-.05.06-.12.08-.34.38-.49.59-.71l.24-.29.18-.12v-.12l.12-.06.12-.35.12-.06.06-.24.18-.12v-.12c.24-.22.47-.43.71-.65v-.12l.18-.12.06-.24.18-.12v-.12l.24-.18v-.12l.18-.12v-.12l.24-.18v-.12l.12-.06v-.12l.12-.06.12-.35.24-.18.18-.24h.06v-.12c.22-.2.43-.39.65-.59v-.12l.24-.18v-.12l.18-.12v-.12l.24-.18.06-.18.12-.06v-.12l.12-.06v-.12l.24-.18.06-.18.12-.06v-.12l.12-.06.12-.35.12-.06.06-.24.12-.06v-.12h.06l.06-.18.12-.06v-.12l.18-.12v-.12l.12-.06v-.24h.06l.06-.24h.06v-.12l.12-.06v-.12l.12-.06.06-.29.12-.06v-.12l.12-.06v-.12l.12-.06v-.12h.06v-.12h.06v-.18h.06v-.12h.06l.06-.24h.06v-.18h.06v-.12h.06v-.18h.06v-.12h.06c.04-.18.08-.35.12-.53h.06v-.12h.06v-.18h.06v-.18h.06v-.24h.06v-.53l.06-.18-.12-.06-.06-.29c.47-.1.83-.24,1.41-.24h.35c.22.08.43.16.65.24l.06.12h.12v.06c.16.1.11-.06.18.18ZM30.87,44.48v.12c.38.22.64.7.82,1.12v.18h.06v.12h.06v.18h.06l.12.35h.06v.29c.13.41.14.53,0,.94v.24h-.06l-.06.24h-.06v.12l-.12.06v.12l-.12.06v.12l-.18.12v.12l-.29.24c-.18.2-.35.39-.53.59h-.12l-.12.18h-.12l-.06.12-.24.06-.06.12-.35.12-.06.12h-.18v.06h-.12l-.06.12-.35.12v.06l-.18.06-.06.12h-.12c-.14.16-.27.31-.41.47h-.12l-.12.18h-.12l-.12.18h-.12l-.12.18h-.12l-.06.12h-.12l-.06.12h-.12l-.06.12c-.27.17-.58.23-1,.24-.1-.12-.21-.15-.35-.24l-.06-.12h-.59c-.79.24-1.57.47-2.36.71-.13.23-.32.37-.35.71.16.04.28.09.41.18l.06.12.35.12.06.12.24.06.06.12h.12l.12.18h.12l.12.12h.12v.06h.12l.06.12h.12l.06.12h.12l.06.12h.12l.06.12.35.29v.12h.06v.12h.06v.24h.06l.06.24h.06v.18h.06v.12h.06c.04.07.05.26.12.29h.29v-.06h.24l.06-.12h.12v-.06h.12v-.06h.12l.12-.12h.12v-.06l.18-.06.06-.12.24-.06.06-.12h.12l.24-.29h.12l.06-.12h.12l.12-.18h.12l.18-.24h.12l.24-.29h.12l.24-.29h.12l.18-.24h.12l.29-.35h.12c.14-.16.27-.31.41-.47l.24-.18v-.12l.12-.06.06-.18h.06v-.12l.18-.12.06-.24h.06v-.18h.06v-.18h.06v-.18h.06v-.18l.18-.12c.1-.15.11-.3.12-.53h.47v.06h.12v.06l.29.06v.06h.12v.06l.24.06.24.29h.12l.12.12h.12v.06h.12v.06h.12l.06.12h.12v.06h.18l.06.12h.06l.06.12h.12l.18.24h.12l.06.12h.12l.06.12h.12v.06l.18.06.06.12h.12c.18.2.35.39.53.59l.24.18.06.35c.06.18.12.18.12.47-.16.18-.31.35-.47.53h-.12l-.06.12-.18.06v.06h-.12l-.06.12h-.12l-.06.12h-.12l-.06.12h-.12l-.12.12h-.12v.06h-.12v.06h-.12v.06h-.12v.06h-.12l-.06.12-.35.12v.06l-.29.06-.06.12h-.12v.06h-.18v.06h-.12v.06h-.18v.06h-.12v.06h-.18v.06h-.12v.06l-.35.12v.06h-.18v.06h-.12v.06h-.18v.06h-.12v.06h-.18v.06h-.12v.06h-.18v.06h-.12v.06c-.69.22-1.37.43-2.06.65-.45.04-.9.08-1.35.12-.3.09-.58.11-1,.12-.08.15-.12.21-.12.47h.06v.18h.06l.06.18c.15.04.19.09.29.18v.06l.24.06.06.12h.12l.06.12.18.06v.06l.24.06v.06l.18.06.06.12.24.06.06.12.35.12v.06l.24.06v.06h.12v.06h.12v.06h.12v.06h.12v.06h.12v.06h.12l.12.12h.12l.06.12.35.12.06.12.24.06.06.12c.18.06.35.12.53.18l.06.12.35.12.06.12h.12l.12.12h.12v.06l.24.06.06.12h.12l.12.12h.12v.06h.12v.06h.12v.06h.12l.06.12.29.06v.06h.12v.06l.24.06v.06h.18v.06h.18v.06h.18v.06h.18v.06h.24v.06h.12v.06h.18v.06h.18v.06h.24v.06c.18.02.35.04.53.06v.06h.12v.06h.29v.06l.35.06v.06h.12v.06l.29.06.06.12h.12v.06h.12v.06c.18.04.35.08.53.12v.06h.12v.06h.18v.06l.24.06v.06h.12v.06h.18v.06h.12l.06.12h.12v.06h.24l.24.29h.12l.24.29h.12l.12.18h.12l.12.18h.12l.12.18h.12l.06.12c.21.14.31.02.35.35-.07.04-.08.09-.12.12h-.12l-.12.18h-.12l-.06.12-.35.06v.06h-.12v.06c-.22.02-.43.04-.65.06l-.06.12h-.12v.06h-.12v.06h-.18v.06h-.12v.06l-.35.06v.06l-.24.06v.06c-.14.02-.27.04-.41.06v.06h-.18v.06h-.18v.06h-.18v.06h-.18v.06c-.24.02-.47.04-.71.06-.2.06-.96.14-1.24.06v-.06c-.34-.1-.87.03-1.18-.06h-.59v-.06h-.59v-.06h-.53v-.06h-.12v-.06h-.18l-.06-.12-.24-.06-.18-.24h-.12l-.06-.12-.18-.06v-.06h-.12l-.06-.12h-.12l-.12-.18h-.12l-.12-.18h-.12l-.06-.12h-.12l-.06-.12h-.12l-.24-.29h-.12l-.18-.24h-.12c-.16-.18-.31-.35-.47-.53h-.12l-.29-.35h-.12c-.2-.22-.39-.43-.59-.65l-.35-.29v-.12l-.24-.18v-.12l-.24-.18v.35c.13.15,0,.68,0,.94-.04.27-.08.55-.12.82h-.06v.29h-.06v.24h-.06c-.02.18-.04.35-.06.53h-.06v.24h-.06v.18h-.06v.24h-.06v.12h-.06v.18h-.06v.18h-.06v.18h-.06v.18h-.06v.24h-.06l-.06.35h-.06v.12h-.06v.18h-.06v.24h-.06c-.02.14-.04.27-.06.41h-.06c-.07.23,0,.46-.12.65h-.06l-.24.29h-.12l-.18.24h-.12l-.18.24h-.12l-.12.18h-.12l-.12.18h-.12l-.12.18h-.12l-.06.12h-.12l-.06.12h-.12l-.06.12-.24.06-.06.12-.24.06v.06l-.24.06v.06c-.18.02-.35.04-.53.06-.12.03-.61.22-.77.18v-.06h-.18c-.13-.05-.25-.14-.41-.18-.06-.11-.18-.24-.24-.35l-.06-.29h-.06v-.12h-.06v-.18h-.06v-.18h-.06v-.12h-.06l-.06-.29-.12-.06v-.12l-.12-.06v-.12c-.16-.14-.31-.27-.47-.41l-.24-.29h-.12c-.12-.14-.24-.27-.35-.41h-.12l-.12-.18h-.12l-.12-.18h-.12l-.18-.24c-.18-.13-.29-.11-.35-.35h-.12c-.04-.2-.23-.45-.35-.59l-.12-.06v-.12l-.18-.12v-.12l-.18-.12v-.12l-.12-.06v-.12l-.12-.06-.06-.24-.12-.06v-.12h-.06l-.06-.24h-.06v-.24h-.06v-.12h-.06v-.24c-.08-.24-.16-.47-.24-.71l-.29.06v.06c-.5.15-1.07-.19-1.3-.35l-.12-.18c-.21-.15-.45-.18-.53-.47l.18-.12v-.06h.12v-.06h.29v-.06h.12v-.06l.35-.06v-.06l.29-.06v-.06h.12v-.06h.18v-.06h.12v-.06h.18v-.06l.35-.12v-.06h.12v-.06h.18v-.06h.12v-.06h.12l.06-.12.24-.06.06-.12h.12v-.06l.18-.06.06-.12h.12l.06-.12h.12l.06-.12h.12v-.06l.18-.06.06-.12h.12l.12-.18h.12l.06-.12h.06l.06-.12h.12l.18-.24h.12l.12-.18.18-.06.29-.35h.12c.14-.16.27-.31.41-.47h.12l.29-.35.12-.06v-.12l.12-.06v-.12l.12-.06v-.18l-.24-.06-.06-.24h.06v-.12c.16-.06.31-.12.47-.18.14-.1.27-.2.41-.29v-.12l.18-.12v-.12h.06c.1-.23-.14-.2.18-.29v-.06h.47c.35-.1.48-.14.88-.06,0-.42-.13-.65-.24-.94-.02-.14-.04-.27-.06-.41h-.06l-.06-.24h-.06v-.41c-.09-.26-.31-.58-.59-.65.03.16.14.53.06.77h-.06l-.12.35h-.06v.18h-.06v.12h-.06v.12l-.12.06v.12h-.06v.12l-.12.12v.12c-.18.16-.35.31-.53.47-.16.18-.31.35-.47.53h-.12l-.18.24h-.12l-.06.12h-.12l-.12.18-.18.06-.06.12h-.12l-.06.12-.35.12v.06l-.18.06-.06.12h-.12l-.06.12h-.12l-.06.12h-.12l-.06.12h-.12l-.06.12-.18.06v.06l-.24.06-.06.12-.35.12-.06.12h-.12v.06h-.12v.06h-.18v.06l-.24.06v.06l-.29.06v.06h-.12v.06h-.12v.06h-.12v.06l-.24.06-.06.12h-.12v.06h-.18v.06h-.12v.06c-.14.02-.27.04-.41.06v.06h-.24v.06h-.24v.06h-.35c-.13.04-.43.18-.65.12v-.06h-.29s0-.04-.12-.06l-.06-.12c.12-.06.24-.17.35-.24h.12l.06-.12.24-.06.06-.12.24-.06.12-.18h.12l.12-.12h.12v-.06h.12v-.06h.12v-.06l.18-.06.06-.12h.12l.12-.18h.12l.12-.18h.12l.12-.18h.12l.06-.12h.12v-.06l.18-.06.06-.12h.12l.12-.18h.12l.12-.18h.12l.18-.24h.12l.29-.35h.12l.24-.29.12-.06v-.12l.12-.06.06-.18.24-.18v-.12l.24-.18v-.12l.12-.06v-.12l.12-.06v-.12h.06l.12-.18c-.07-.07-.02,0-.06-.12-.25,0-.36.03-.53.12v.06h-.18v.06h-.12v.06l-.35.06v.06h-.12v.06l-.35.12v.06h-.18v.06c-.22.04-.43.08-.65.12v-.06c-.13-.08-.16-.15-.18-.35h.06l.06-.29.18-.12v-.12h.06l.06-.24h.06l.06-.29.12-.06v-.12h.06v-.24l.18-.12v-.12l.18-.12v-.06c.2-.04.39-.08.59-.12v-.06l.35-.12v-.06l.35-.12.06-.12h.12l.29-.35c.13-.13.29-.14.35-.35h-.06c-.13.11-.34.06-.53.12v.06h-.29v.06h-.18v.06h-.18v.06h-.18v.06c-.14.02-.27.04-.41.06v.06c-.14.02-.27.04-.41.06l-.12.18-.18.12v.06h-.12l-.24.29h-.24v.06c-.24-.02-.47-.04-.71-.06v-.06h-.18v-.06h-.12v-.06h-.12l-.06-.12h-.12v-.06l-.18-.06-.06-.12h-.12l-.29-.35-.18-.12v-.12h-.06l-.18-.24-.18-.12v-.12l-.12-.06-.06-.24h-.06l-.06-.24h-.06l-.06-.29h-.06v-.18h-.06v-.18h-.06v-.18h-.06v-.18h-.06c-.02-.24-.04-.47-.06-.71h-.06c.02-.37.04-.75.06-1.12h.06v-.35h.06v-.29h.06v-.29h.06v-.47c.06-.2.13-.49.18-.71.15-.08.21-.12.47-.12v.06l.35.06v.06l.18.06.12.18h.18l.06.12c.24.16.51.27.88.29.14-.12.27-.24.41-.35l.12-.18h.12c.12-.14.24-.27.35-.41h.12l.06-.12h.12l.06-.12.35-.12.06-.12.24-.06v-.06l.24-.06v-.06h.18v-.06l.24-.06v-.06c.2-.06.39-.12.59-.18v-.06h.12v-.06h.18v-.06l.24-.06v-.06c.31-.1.63-.2.94-.29v-.06l.24-.06v-.06h.12v-.06c.18-.06.35-.12.53-.18l.06-.12h.18v-.06h.12v-.06h.12v-.06l.24-.06v-.06h.12v-.06h.12v-.06h.12v-.06h.12v-.06h.12v-.06l.24-.06v-.06h.12v-.06h.18v-.06h.12v-.06h.18v-.06h.12v-.06l.35-.06v-.06h.18v-.06h.18v-.06h.18v-.06h.24v-.06c.16-.02.31-.04.47-.06v-.06h.35v-.06h.18v-.06h.18v-.06l.24-.06v-.06l.24-.06.06-.12h.12v-.06h.12v-.06h.18v-.06h.12v-.06h.18v-.06h.12v-.06h.18v-.06h.12v-.06l.35-.06v-.06h1.94v.06h.24v.06h.12v.06h.12l.06.12.24.06.06.12.24.06.18.24h.12l.06.12.18.12v.06h.12v.06c.09.07.1.08.24.12ZM24.45,49.37l.12-.06v-.12l.12-.06v-.12l.12-.06.06-.35h.06v-.12h.06v-.12h.06v-.12h.06v-.12h.06c.07-.16-.01-.17.12-.29-.03-.23-.09-.23-.18-.41h-.06v-.29l-.12-.06c-.04-.18-.08-.35-.12-.53l-.24-.18-.06-.18-.29-.06-.06-.18h-.06v-.12l-.18-.12v-.12c.29-.11.8-.11,1.12-.18.14.02.27.04.41.06v-.06h.59l.06.12h.12l.06.18.24.18v.12h.06v.18h.06v.35h.06v.18l.12.06v.24c.07.21.02.2,0,.47-.08.06-.11.16-.18.24l-.12.06-.06.24h-.06v.12h-.06l-.06.18-.12.06-.06.24-.12.06c-.44.66-.88,1.21-1.88,1.3.06-.24.21-.43.35-.59ZM20.38,47.72l-.06.12h-.12l-.06.12h-.12l-.06.12h-.12v.06c-.29.15-.55.08-.88.06-.09-.11-.22-.16-.29-.29h-.06c.07-.29.26-.22.47-.35l.06-.12c.18-.06.35-.12.53-.18v-.06l.24-.06v-.06h.18v-.06l.24-.06v-.06l.35.06v.06c.14.04.13.06.24.12v.18c-.2.06-.39.28-.53.41ZM20.73,50.79h-.06v-.12l-.12-.06v-.18h-.06v-.18h-.06v-.12h-.06v-.18h-.06v-.12l-.12-.06-.06-.24h-.06c-.06-.14-.04-.48.06-.59v-.29l.12-.06v-.12l.18-.12v-.12l.35-.29v-.12l.12-.06c.16-.18.31-.35.47-.53h.12c.07-.07,0-.03.12-.06.06.11.13.18.24.24-.01.22-.04.31-.12.47h-.06c-.06.18-.12.35-.18.53h-.06l-.06.24-.12.06-.24.29c-.11.08-.08-.03-.18.12h-.06l.06.18c.18.05.58.32.65.47v.24h.06v.12h.06v.12h.06l.06.12h.12v.06c.11.1.17.22.29.29v.06l-.18.06c-.04.12,0,.05-.06.12v.06l-.29.06c-.27.14-.53.35-.88.41v-.71ZM15.67,50.37c-.04-.07-.1-.09-.12-.12v-.12h-.06v-.12h-.06c-.11-.2-.1-.35-.29-.47v-.24h.06v-.06c.14-.02.27-.04.41-.06v-.06h.24v-.06h.41v-.06h.41v-.06h.18v-.06h.12v-.06c.18-.06.35-.12.53-.18v-.06c.09-.06.17-.09.29-.12l-.06.35h-.06v.35c-.16.53-.15,1.12,0,1.65.02.22.04.43.06.65.18.2.35.39.53.59.15.09.11-.06.24.12h.12c-.21.25-.71.29-1.06.41v.06h-.41v-.06h-.35v-.06c-.18-.2.05-.71-.06-1h-.06l-.06-.24h-.06v-.12l-.12-.06v-.24c-.07-.2-.07-.53-.06-.82-.31.04-.41.23-.71.29ZM22.86,61.33c0,1.06-.19,2.03-.47,2.83-.02.16-.04.31-.06.47h-.06v.18h-.06v.18h-.06v.18h-.06v.18h-.06v.18h-.06l-.06.24h-.06l-.12.35c-.17.27-.71.79-1.06.88-.19.16-.82,0-1-.06h-.29v-.06h-.18v-.06l-.24-.06v-.06h-.24v-.06h-.12v-.06h-.12l-.06-.12-.24-.06v-.06l-.35-.12v-.06h-.18v-.06h-.12v-.06c-.14-.02-.27-.04-.41-.06v-.06l-.35-.12v-.06h-.12v-.06l-.35-.06v-.06h-.12v-.06c-.08-.05-.1-.04-.24-.06v-.06l.35-.06v-.06h.18c.26-.1.57-.25.82-.35h.18v-.06h.12v-.06h.12v-.06h.12v-.06h.12v-.06h.12v-.06h.12v-.06h.12v-.06h.12v-.06l.35-.12v-.06h.18v-.06h.12v-.06h.18l.06-.12h.12v-.06h.12v-.06h.12l.12-.12h.12l.06-.12.35-.12.06-.12h.12l.06-.12h.12l.06-.12.29-.06v-.06l.18-.06.06-.12h.12l.06-.12h.12l.06-.12c.31-.21.63-.39.82-.71h.12c.05-.21.16-.33.18-.59h.12Z"/></g></svg>