<svg width="80" height="18" viewBox="0 0 80 18" fill="none" xmlns="http://www.w3.org/2000/svg">
<path fill-rule="evenodd" clip-rule="evenodd" d="M10.292 1.5C7.304 1.5 3.154 1.5 0 1.5V17.1667H4.316V5.33333C4.316 5.33333 8.134 5.16667 9.628 5.33333C10.956 5.5 11.454 6.33333 11.454 8C11.454 10 11.454 11 11.454 17.1667H15.77C15.77 17.1667 15.77 10.1667 15.77 7.66667C15.77 3.33333 14.276 1.66667 10.292 1.5ZM30.544 1.5C26.228 1.5 22.742 5 22.742 9.5C22.742 13.8333 26.228 17.5 30.544 17.5C34.86 17.5 38.346 14 38.346 9.5C38.346 5 34.86 1.5 30.544 1.5ZM30.544 13.5C28.22 13.5 26.394 11.6667 26.394 9.33333C26.394 7 28.22 5.16667 30.544 5.16667C32.868 5.16667 34.694 7 34.694 9.33333C34.694 11.6667 32.868 13.5 30.544 13.5ZM79.68 9.33333C79.68 5 76.194 1.33333 71.878 1.33333C67.562 1.33333 64.076 4.83333 64.076 9.33333C64.076 11.8333 65.238 14.1667 67.064 15.5C68.392 16.5 70.052 17.1667 72.542 17.1667C73.704 17.1667 76.692 16.8333 78.85 14.5L77.19 12.1667C76.36 12.8333 74.534 13.8333 73.04 13.8333C71.048 13.8333 70.052 13.5 69.222 12.6667C68.724 12.1667 68.392 11.5 68.226 10.6667H79.68C79.68 10.1667 79.68 9.83333 79.68 9.33333ZM67.894 8C68.392 6.16667 69.554 4.83333 71.878 4.83333C74.202 4.83333 75.364 6.33333 75.862 8H67.894ZM53.286 0H49.136V4.5H44.986V8.33333H49.136V12.8333H53.286V8.33333H57.436V4.5H53.286V0Z" fill="white"/>
</svg>
